<svg width="8" height="8" viewBox="0 0 8 8" xmlns="http://www.w3.org/2000/svg">
  <path
    d="M7.7121 7.71207C8.09596 7.32821 8.09596 6.70585 7.7121 6.32199L5.39012 4L7.71208 1.67803
    C8.09594 1.29417 8.09594 0.671811 7.71208 0.287951
    C7.32822 -0.0959094 6.70586 -0.0959095 6.322 0.287951L4.00004 2.60992L1.67802 0.287895
    C1.29416 -0.0959655 0.671798 -0.0959653 0.287938 0.287895
    C-0.0959215 0.671755 -0.0959216 1.29412 0.287938 1.67798L2.60996 4L0.28791 6.32204
    C-0.0959495 6.7059 -0.0959495 7.32826 0.28791 7.71212
    C0.67177 8.09599 1.29413 8.09599 1.67799 7.71213L4.00004 5.39008L6.32202 7.71207
    C6.70588 8.09593 7.32824 8.09593 7.7121 7.71207Z" />
</svg>
