<svg width="16" height="16" viewBox="0 0 16 16" fill="none" xmlns="http://www.w3.org/2000/svg">
<path d="M5.50061 8.0003C5.50061 6.61959 6.61959 5.5 8.0003 5.5C9.38101 5.5 10.5006 6.61959 10.5006 8.0003C10.5006 9.38101 9.38101 10.5006 8.0003 10.5006C6.61959 10.5006 5.50061 9.38101 5.50061 8.0003ZM4.14898 8.0003C4.14898 10.1274 5.8732 11.8516 8.0003 11.8516C10.1274 11.8516 11.8516 10.1274 11.8516 8.0003C11.8516 5.8732 10.1274 4.14898 8.0003 4.14898C5.8732 4.14898 4.14898 5.8732 4.14898 8.0003ZM11.104 3.9963C11.104 4.49309 11.5069 4.89658 12.0043 4.89658C12.5011 4.89658 12.9046 4.49309 12.9046 3.9963C12.9046 3.49952 12.5017 3.09663 12.0043 3.09663C11.5069 3.09663 11.104 3.49952 11.104 3.9963ZM4.96989 14.1054C4.23864 14.072 3.84121 13.9503 3.57706 13.8473C3.22689 13.711 2.97728 13.5486 2.71435 13.2863C2.45202 13.0239 2.28905 12.7743 2.15334 12.4241C2.05035 12.16 1.92857 11.7626 1.89525 11.0313C1.8589 10.2407 1.85163 10.0032 1.85163 8.0003C1.85163 5.9974 1.85951 5.76051 1.89525 4.96928C1.92857 4.23803 2.05095 3.84121 2.15334 3.57646C2.28965 3.22628 2.45202 2.97668 2.71435 2.71374C2.97668 2.45141 3.22628 2.28844 3.57706 2.15273C3.84121 2.04974 4.23864 1.92797 4.96989 1.89464C5.76051 1.85829 5.998 1.85102 8.0003 1.85102C10.0032 1.85102 10.2401 1.8589 11.0313 1.89464C11.7626 1.92797 12.1594 2.05035 12.4241 2.15273C12.7743 2.28844 13.0239 2.45141 13.2869 2.71374C13.5492 2.97607 13.7116 3.22628 13.8479 3.57646C13.9509 3.8406 14.0726 4.23803 14.106 4.96928C14.1423 5.76051 14.1496 5.9974 14.1496 8.0003C14.1496 10.0026 14.1423 10.2401 14.106 11.0313C14.0726 11.7626 13.9503 12.16 13.8479 12.4241C13.7116 12.7743 13.5492 13.0239 13.2869 13.2863C13.0245 13.5486 12.7743 13.711 12.4241 13.8473C12.16 13.9503 11.7626 14.072 11.0313 14.1054C10.2407 14.1417 10.0032 14.149 8.0003 14.149C5.998 14.149 5.76051 14.1417 4.96989 14.1054ZM4.90809 0.545438C4.1096 0.581788 3.56434 0.708409 3.08754 0.893796C2.59439 1.08524 2.17636 1.34212 1.75894 1.75894C1.34212 2.17575 1.08524 2.59378 0.893796 3.08754C0.708409 3.56434 0.581788 4.1096 0.545438 4.90809C0.508482 5.7078 0.5 5.96347 0.5 8.0003C0.5 10.0371 0.508482 10.2928 0.545438 11.0925C0.581788 11.891 0.708409 12.4363 0.893796 12.9131C1.08524 13.4062 1.34151 13.8249 1.75894 14.2417C2.17575 14.6585 2.59378 14.9148 3.08754 15.1068C3.56495 15.2922 4.1096 15.4188 4.90809 15.4552C5.70841 15.4915 5.96347 15.5006 8.0003 15.5006C10.0377 15.5006 10.2928 15.4921 11.0925 15.4552C11.891 15.4188 12.4363 15.2922 12.9131 15.1068C13.4062 14.9148 13.8242 14.6585 14.2417 14.2417C14.6585 13.8249 14.9148 13.4062 15.1068 12.9131C15.2922 12.4363 15.4194 11.891 15.4552 11.0925C15.4915 10.2922 15.5 10.0371 15.5 8.0003C15.5 5.96347 15.4915 5.7078 15.4552 4.90809C15.4188 4.1096 15.2922 3.56434 15.1068 3.08754C14.9148 2.59439 14.6585 2.17636 14.2417 1.75894C13.8249 1.34212 13.4062 1.08524 12.9137 0.893796C12.4363 0.708409 11.891 0.581183 11.0931 0.545438C10.2934 0.509088 10.0377 0.5 8.00091 0.5C5.96347 0.5 5.70841 0.508482 4.90809 0.545438Z" fill="white"/>
</svg>
