<svg xmlns="http://www.w3.org/2000/svg" width="15" height="13" viewBox="0 0 15 13" fill="none">
<path d="M14.1699 7.96541V12.9128H11.3016V8.29698C11.3016 7.138 10.8874 6.34653 9.84888 6.34653C9.05634 6.34653 8.58552 6.87938 8.3776 7.39534C8.30209 7.57973 8.28262 7.83578 8.28262 8.0944V12.9125H5.41407C5.41407 12.9125 5.45257 5.09494 5.41407 4.28571H8.28283V5.50821C8.27706 5.51784 8.26893 5.52725 8.2638 5.53645H8.28283V5.50821C8.66402 4.92167 9.34383 4.08314 10.868 4.08314C12.7551 4.08314 14.1699 5.31612 14.1699 7.96541ZM2.41332 0.127274C1.43211 0.127274 0.790161 0.771361 0.790161 1.61759C0.790161 2.44586 1.4135 3.10856 2.37567 3.10856H2.39428C3.39475 3.10856 4.0168 2.44586 4.0168 1.61759C3.99776 0.771361 3.39475 0.127274 2.41332 0.127274ZM0.960648 12.9128H3.82813V4.28571H0.960648V12.9128Z" fill="white"/>
</svg>