<svg xmlns="http://www.w3.org/2000/svg" width="15" height="12" viewBox="0 0 15 12" fill="none">
<path d="M14.3505 1.62401C13.8362 1.85204 13.283 2.00626 12.7029 2.07514C13.2952 1.72027 13.7498 1.15876 13.9643 0.488577C13.4101 0.817356 12.796 1.05587 12.1429 1.18443C11.6197 0.627191 10.8742 0.278946 10.0487 0.278946C8.46495 0.278946 7.18043 1.56347 7.18043 3.14726C7.18043 3.37208 7.20588 3.59091 7.25508 3.80097C4.87127 3.68139 2.75763 2.53954 1.34284 0.803666C1.09598 1.22721 0.954377 1.72027 0.954377 2.24584C0.954377 3.24074 1.46113 4.11905 2.23035 4.63329C1.76039 4.61853 1.31781 4.48954 0.931275 4.27413C0.931061 4.28633 0.931061 4.29852 0.931061 4.3105C0.931061 5.70027 1.92018 6.85944 3.23208 7.12277C2.99165 7.18865 2.73774 7.22352 2.47656 7.22352C2.29131 7.22352 2.11184 7.20576 1.93686 7.17239C2.30179 8.31167 3.36086 9.141 4.61629 9.16432C3.63445 9.93375 2.39784 10.3922 1.05363 10.3922C0.822608 10.3922 0.593726 10.3787 0.369762 10.3519C1.63846 11.1661 3.14652 11.6407 4.76624 11.6407C10.0421 11.6407 12.9273 7.27015 12.9273 3.47946C12.9273 3.35518 12.9245 3.23132 12.919 3.10854C13.4798 2.70425 13.9661 2.19921 14.3505 1.62401Z" fill="white"/>
</svg>