<svg xmlns="http://www.w3.org/2000/svg" width="17" height="16" viewBox="0 0 17 16" fill="none">
<path fill-rule="evenodd" clip-rule="evenodd" d="M13.7724 2.37508C12.336 0.936856 10.4231 0.143967 8.38756 0.143967C4.192 0.143967 0.776891 3.5573 0.775113 7.75286C0.775113 9.0933 1.12534 10.4035 1.792 11.5573L0.712891 15.5004L4.74845 14.4426C5.85956 15.0489 7.11289 15.3689 8.38578 15.3689H8.38934C12.5849 15.3689 16 11.9555 16.0018 7.75819C16.0018 5.72441 15.2107 3.8133 13.7742 2.37508H13.7724ZM8.38756 14.0835H8.38578C7.24978 14.0835 6.13689 13.7777 5.16622 13.2017L4.93511 13.0649L2.54045 13.6924L3.18045 11.3582L3.02934 11.1182C2.39645 10.112 2.06222 8.94752 2.06222 7.75286C2.06222 4.26486 4.90133 1.42752 8.39289 1.42752C10.0836 1.42752 11.6711 2.08708 12.8658 3.28174C14.0604 4.47641 14.7182 6.06574 14.7164 7.75641C14.7164 11.2444 11.8773 14.0817 8.38934 14.0817L8.38756 14.0835ZM11.8578 9.34575C11.6676 9.24975 10.7324 8.79108 10.5582 8.72708C10.384 8.66308 10.2578 8.63108 10.1298 8.82308C10.0036 9.0133 9.63911 9.44174 9.52711 9.56797C9.41689 9.69419 9.30489 9.71019 9.11467 9.61597C8.92445 9.51997 8.31111 9.32086 7.58578 8.67197C7.02045 8.16708 6.63822 7.54486 6.528 7.35463C6.41778 7.16441 6.51556 7.0613 6.61156 6.96708C6.69689 6.88174 6.80178 6.74486 6.896 6.63463C6.99022 6.52441 7.02222 6.44441 7.08622 6.31819C7.15022 6.19197 7.11822 6.07997 7.07022 5.98574C7.02222 5.88974 6.64178 4.95463 6.48356 4.57419C6.32889 4.20263 6.17245 4.25419 6.05511 4.24708C5.94489 4.24174 5.81689 4.23997 5.69067 4.23997C5.56445 4.23997 5.35822 4.28797 5.184 4.47819C5.00978 4.66841 4.51911 5.12886 4.51911 6.06397C4.51911 6.99908 5.2 7.90397 5.296 8.03019C5.392 8.15641 6.63645 10.0782 8.54578 10.9013C8.99911 11.0969 9.35467 11.2142 9.63022 11.3013C10.0853 11.4453 10.5013 11.4257 10.8284 11.376C11.1947 11.3209 11.9538 10.9155 12.112 10.4711C12.2702 10.0266 12.2702 9.64619 12.2222 9.56619C12.1742 9.48619 12.048 9.43997 11.8578 9.34397V9.34575Z" fill="white"/>
</svg>