<svg width="356" height="187" viewBox="0 0 356 187" fill="none" xmlns="http://www.w3.org/2000/svg">
<g clip-path="url(#clip0_3907_34733)">
<path d="M203.445 94.6797C203.615 94.8197 203.775 94.9697 203.945 95.1097C203.875 95.0397 203.725 94.9097 203.445 94.6797Z" fill="#231F20"/>
<path d="M182.965 86.4404C183.145 86.4704 183.315 86.5004 183.495 86.5304C183.935 86.5804 184.015 86.6004 182.965 86.4404Z" fill="#231F20"/>
<path d="M228.975 90.9496C229.395 87.3496 228.315 83.6296 225.475 80.8496C228.255 83.6896 229.365 87.3796 228.975 90.9496Z" fill="#231F20"/>
<mask id="mask0_3907_34733" style="mask-type:luminance" maskUnits="userSpaceOnUse" x="148" y="61" width="60" height="38">
<path d="M166.585 62.5003C164.355 75.6903 158.255 88.3403 148.235 98.5703C149.485 97.3503 150.785 96.2003 152.105 95.0503C152.185 94.9803 152.245 94.9203 152.305 94.8703C152.255 94.9103 152.205 94.9403 152.145 94.9803C150.615 96.0703 153.285 93.9903 152.305 94.8703C153.025 94.3603 153.745 93.8503 154.485 93.3703C155.745 92.5603 157.035 91.7903 158.355 91.0803C159.175 90.6403 160.015 90.2403 160.845 89.8303C160.945 89.7803 161.415 89.5703 161.795 89.4003C161.405 89.5503 161.255 89.5903 161.885 89.3303C162.605 89.0303 162.275 89.1803 161.795 89.4003C162.325 89.2003 163.305 88.8203 163.475 88.7703C164.165 88.5303 164.865 88.3103 165.565 88.1003C167.145 87.6303 168.735 87.2403 170.345 86.9103C171.055 86.7703 171.775 86.6503 172.495 86.5203C172.605 86.5003 172.675 86.4903 172.735 86.4703C173.395 86.3203 171.295 86.5403 172.735 86.4703C172.835 86.4703 172.965 86.4603 173.105 86.4503C174.745 86.3603 176.365 86.2303 178.005 86.2303C179.465 86.2303 180.905 86.3103 182.355 86.4003C182.755 86.4303 183.205 86.4803 183.495 86.5103C183.315 86.4803 183.145 86.4503 182.965 86.4203C184.015 86.5803 183.935 86.5603 183.495 86.5103C184.035 86.6003 184.575 86.6803 185.115 86.7903C188.125 87.3603 191.095 88.2003 193.955 89.2803C194.025 89.2903 194.205 89.3603 194.595 89.5103C194.385 89.4303 194.165 89.3603 193.955 89.2803C193.635 89.2103 196.645 90.5503 197.145 90.8203C198.475 91.5103 199.765 92.2603 201.025 93.0603C201.555 93.4003 204.365 95.5203 203.935 95.1003C203.765 94.9603 203.605 94.8103 203.435 94.6703C203.705 94.9003 203.865 95.0303 203.935 95.1003C205.245 96.2103 206.525 97.3503 207.755 98.5603C197.745 88.3303 191.635 75.6803 189.405 62.4903C181.855 61.2103 174.135 61.2103 166.585 62.4903V62.5003Z" fill="white"/>
</mask>
<g mask="url(#mask0_3907_34733)">
<path d="M204.335 98.5607L200.995 61.2207H207.765V98.5607H204.335Z" fill="#A9CE41"/>
<path d="M203.735 98.5607L200.385 61.2207H200.995L204.335 98.5607H203.735Z" fill="#A9CE41"/>
<path d="M203.125 98.5607L199.785 61.2207H200.385L203.735 98.5607H203.125Z" fill="#A8CD41"/>
<path d="M202.525 98.5607L199.175 61.2207H199.785L203.125 98.5607H202.525Z" fill="#A7CD41"/>
<path d="M201.915 98.5607L198.575 61.2207H199.175L202.525 98.5607H201.915Z" fill="#A6CC40"/>
<path d="M201.315 98.5607L197.965 61.2207H198.575L201.915 98.5607H201.315Z" fill="#A5CC40"/>
<path d="M200.705 98.5607L197.365 61.2207H197.965L201.315 98.5607H200.705Z" fill="#A4CB40"/>
<path d="M200.105 98.5607L196.755 61.2207H197.365L200.705 98.5607H200.105Z" fill="#A3CB40"/>
<path d="M199.495 98.5607L196.155 61.2207H196.755L200.105 98.5607H199.495Z" fill="#A2CA3F"/>
<path d="M198.895 98.5607L195.545 61.2207H196.155L199.495 98.5607H198.895Z" fill="#A1CA3F"/>
<path d="M198.285 98.5607L194.945 61.2207H195.545L198.895 98.5607H198.285Z" fill="#A0C93F"/>
<path d="M197.685 98.5607L194.335 61.2207H194.945L198.285 98.5607H197.685Z" fill="#9FC83F"/>
<path d="M197.075 98.5607L193.735 61.2207H194.335L197.685 98.5607H197.075Z" fill="#9EC83F"/>
<path d="M196.475 98.5607L193.125 61.2207H193.735L197.075 98.5607H196.475Z" fill="#9DC73E"/>
<path d="M195.865 98.5607L192.525 61.2207H193.125L196.475 98.5607H195.865Z" fill="#9CC73E"/>
<path d="M195.265 98.5607L191.915 61.2207H192.525L195.865 98.5607H195.265Z" fill="#9BC63E"/>
<path d="M194.655 98.5607L191.315 61.2207H191.915L195.265 98.5607H194.655Z" fill="#9AC63E"/>
<path d="M194.055 98.5607L190.705 61.2207H191.315L194.655 98.5607H194.055Z" fill="#99C53D"/>
<path d="M193.445 98.5607L190.105 61.2207H190.705L194.055 98.5607H193.445Z" fill="#98C43D"/>
<path d="M192.845 98.5607L189.495 61.2207H190.105L193.445 98.5607H192.845Z" fill="#97C43D"/>
<path d="M192.236 98.5607L188.896 61.2207H189.496L192.846 98.5607H192.236Z" fill="#96C33D"/>
<path d="M191.635 98.5607L188.285 61.2207H188.895L192.235 98.5607H191.635Z" fill="#95C33D"/>
<path d="M191.026 98.5607L187.686 61.2207H188.286L191.636 98.5607H191.026Z" fill="#94C23C"/>
<path d="M190.425 98.5607L187.075 61.2207H187.685L191.025 98.5607H190.425Z" fill="#93C23C"/>
<path d="M189.816 98.5607L186.476 61.2207H187.076L190.426 98.5607H189.816Z" fill="#92C13C"/>
<path d="M189.215 98.5607L185.865 61.2207H186.475L189.815 98.5607H189.215Z" fill="#91C13C"/>
<path d="M188.605 98.5607L185.265 61.2207H185.865L189.215 98.5607H188.605Z" fill="#90C03B"/>
<path d="M188.005 98.5607L184.655 61.2207H185.265L188.605 98.5607H188.005Z" fill="#8FBF3B"/>
<path d="M187.395 98.5607L184.055 61.2207H184.655L188.005 98.5607H187.395Z" fill="#8EBF3B"/>
<path d="M186.795 98.5607L183.445 61.2207H184.055L187.395 98.5607H186.795Z" fill="#8DBE3B"/>
<path d="M186.185 98.5607L182.845 61.2207H183.445L186.795 98.5607H186.185Z" fill="#8CBE3A"/>
<path d="M185.585 98.5607L182.235 61.2207H182.845L186.185 98.5607H185.585Z" fill="#8BBD3A"/>
<path d="M184.975 98.5607L181.635 61.2207H182.235L185.585 98.5607H184.975Z" fill="#8ABD3A"/>
<path d="M184.375 98.5607L181.025 61.2207H181.635L184.975 98.5607H184.375Z" fill="#89BC3A"/>
<path d="M183.765 98.5607L180.425 61.2207H181.025L184.375 98.5607H183.765Z" fill="#88BB3A"/>
<path d="M183.165 98.5607L179.815 61.2207H180.425L183.765 98.5607H183.165Z" fill="#87BB39"/>
<path d="M182.555 98.5607L179.215 61.2207H179.815L183.165 98.5607H182.555Z" fill="#86BA39"/>
<path d="M181.955 98.5607L178.605 61.2207H179.215L182.555 98.5607H181.955Z" fill="#85BA39"/>
<path d="M181.345 98.5607L178.005 61.2207H178.605L181.955 98.5607H181.345Z" fill="#84B939"/>
<path d="M180.746 98.5607L177.396 61.2207H178.006L181.346 98.5607H180.746Z" fill="#83B938"/>
<path d="M180.135 98.5607L176.795 61.2207H177.395L180.745 98.5607H180.135Z" fill="#82B838"/>
<path d="M179.536 98.5607L176.186 61.2207H176.796L180.136 98.5607H179.536Z" fill="#81B838"/>
<path d="M178.925 98.5607L175.585 61.2207H176.185L179.535 98.5607H178.925Z" fill="#80B738"/>
<path d="M178.326 98.5607L174.976 61.2207H175.586L178.926 98.5607H178.326Z" fill="#7FB638"/>
<path d="M177.715 98.5607L174.375 61.2207H174.975L178.325 98.5607H177.715Z" fill="#7EB637"/>
<path d="M177.115 98.5607L173.765 61.2207H174.375L177.715 98.5607H177.115Z" fill="#7DB537"/>
<path d="M176.505 98.5607L173.165 61.2207H173.765L177.115 98.5607H176.505Z" fill="#7BB537"/>
<path d="M175.905 98.5607L172.555 61.2207H173.165L176.505 98.5607H175.905Z" fill="#7AB437"/>
<path d="M175.295 98.5607L171.955 61.2207H172.555L175.905 98.5607H175.295Z" fill="#79B436"/>
<path d="M174.695 98.5607L171.345 61.2207H171.955L175.295 98.5607H174.695Z" fill="#78B336"/>
<path d="M174.085 98.5607L170.745 61.2207H171.345L174.695 98.5607H174.085Z" fill="#77B236"/>
<path d="M173.485 98.5607L170.135 61.2207H170.745L174.085 98.5607H173.485Z" fill="#76B236"/>
<path d="M172.875 98.5607L169.535 61.2207H170.135L173.485 98.5607H172.875Z" fill="#75B136"/>
<path d="M172.275 98.5607L168.925 61.2207H169.535L172.875 98.5607H172.275Z" fill="#74B135"/>
<path d="M171.665 98.5607L168.325 61.2207H168.925L172.275 98.5607H171.665Z" fill="#73B035"/>
<path d="M171.065 98.5607L167.715 61.2207H168.325L171.665 98.5607H171.065Z" fill="#72B035"/>
<path d="M170.455 98.5607L167.115 61.2207H167.715L171.065 98.5607H170.455Z" fill="#71AF35"/>
<path d="M169.855 98.5607L166.505 61.2207H167.115L170.455 98.5607H169.855Z" fill="#70AF34"/>
<path d="M169.245 98.5607L165.905 61.2207H166.505L169.855 98.5607H169.245Z" fill="#6FAE34"/>
<path d="M168.645 98.5607L165.295 61.2207H165.905L169.245 98.5607H168.645Z" fill="#6EAD34"/>
<path d="M168.035 98.5607L164.695 61.2207H165.295L168.645 98.5607H168.035Z" fill="#6DAD34"/>
<path d="M167.435 98.5607L164.085 61.2207H164.695L168.035 98.5607H167.435Z" fill="#6CAC34"/>
<path d="M166.825 98.5607L163.485 61.2207H164.085L167.435 98.5607H166.825Z" fill="#6BAC33"/>
<path d="M166.225 98.5607L162.875 61.2207H163.485L166.825 98.5607H166.225Z" fill="#6AAB33"/>
<path d="M165.625 98.5607L162.275 61.2207H162.875L166.225 98.5607H165.625Z" fill="#69AB33"/>
<path d="M165.015 98.5607L161.665 61.2207H162.275L165.625 98.5607H165.015Z" fill="#68AA33"/>
<path d="M164.415 98.5607L161.065 61.2207H161.665L165.015 98.5607H164.415Z" fill="#67A932"/>
<path d="M163.805 98.5607L160.455 61.2207H161.065L164.415 98.5607H163.805Z" fill="#66A932"/>
<path d="M163.205 98.5607L159.855 61.2207H160.455L163.805 98.5607H163.205Z" fill="#65A832"/>
<path d="M162.595 98.5607L159.245 61.2207H159.855L163.205 98.5607H162.595Z" fill="#64A832"/>
<path d="M161.996 98.5607L158.646 61.2207H159.246L162.596 98.5607H161.996Z" fill="#63A731"/>
<path d="M161.385 98.5607L158.035 61.2207H158.645L161.995 98.5607H161.385Z" fill="#62A731"/>
<path d="M160.786 98.5607L157.436 61.2207H158.036L161.386 98.5607H160.786Z" fill="#61A631"/>
<path d="M160.175 98.5607L156.825 61.2207H157.435L160.785 98.5607H160.175Z" fill="#60A631"/>
<path d="M159.576 98.5607L156.226 61.2207H156.826L160.176 98.5607H159.576Z" fill="#5FA531"/>
<path d="M158.965 98.5607L155.615 61.2207H156.225L159.575 98.5607H158.965Z" fill="#5EA430"/>
<path d="M158.365 98.5607L155.015 61.2607L155.435 61.2207H155.615L158.965 98.5607H158.365Z" fill="#5DA430"/>
<path d="M157.755 98.5607L154.415 61.3107L155.015 61.2607L158.365 98.5607H157.755Z" fill="#5CA330"/>
<path d="M157.155 98.5605L153.815 61.3705L154.415 61.3105L157.755 98.5605H157.155Z" fill="#5BA330"/>
<path d="M156.545 98.5611L153.215 61.4211L153.815 61.3711L157.155 98.5611H156.545Z" fill="#5AA22F"/>
<path d="M155.945 98.5609L152.615 61.4709L153.215 61.4209L156.545 98.5609H155.945Z" fill="#59A22F"/>
<path d="M155.335 98.5607L152.015 61.5307L152.615 61.4707L155.945 98.5607H155.335Z" fill="#58A12F"/>
<path d="M154.735 98.5603L151.415 61.5803L152.015 61.5303L155.335 98.5603H154.735Z" fill="#57A02F"/>
<path d="M154.125 98.5611L150.815 61.6411L151.415 61.5811L154.735 98.5611H154.125Z" fill="#56A02F"/>
<path d="M153.525 98.5606L150.215 61.6906L150.815 61.6406L154.125 98.5606H153.525Z" fill="#559F2E"/>
<path d="M152.915 98.5604L149.615 61.7404L150.215 61.6904L153.525 98.5604H152.915Z" fill="#549F2E"/>
<path d="M152.315 98.5602L149.015 61.8002L149.615 61.7402L152.915 98.5602H152.315Z" fill="#539E2E"/>
<path d="M151.705 98.5608L148.415 61.8508L149.015 61.8008L152.315 98.5608H151.705Z" fill="#529E2E"/>
<path d="M151.105 98.5606L148.245 66.6706V61.8706L148.415 61.8506L151.705 98.5606H151.105Z" fill="#519D2D"/>
<path d="M150.495 98.5609L148.245 73.4209V66.6709L151.105 98.5609H150.495Z" fill="#509D2D"/>
<path d="M149.895 98.5609L148.245 80.1709V73.4209L150.495 98.5609H149.895Z" fill="#4F9C2D"/>
<path d="M148.245 80.1709L149.895 98.5609H148.245V80.1709Z" fill="#4F9C2D"/>
</g>
<path d="M172.735 86.4803C173.395 86.3303 171.295 86.5503 172.735 86.4803Z" fill="#231F20"/>
<path d="M161.875 89.3295C161.245 89.5895 161.395 89.5495 161.785 89.3995C162.255 89.1895 162.595 89.0295 161.875 89.3295Z" fill="#231F20"/>
<path d="M138.145 102.06C135.375 101.74 132.675 100.54 130.515 98.5596C132.715 100.57 135.395 101.76 138.145 102.06Z" fill="#231F20"/>
<path d="M130.525 80.8496C127.815 83.5096 126.585 87.5096 126.995 91.2896C126.615 87.5296 127.875 83.5596 130.525 80.8496Z" fill="#231F20"/>
<path d="M152.155 94.9799C152.205 94.9399 152.255 94.9099 152.315 94.8699C153.305 93.9899 150.635 96.0799 152.155 94.9799Z" fill="#231F20"/>
<path d="M193.965 89.29C194.175 89.37 194.395 89.44 194.605 89.52C194.215 89.37 194.025 89.3 193.965 89.29Z" fill="#231F20"/>
<path d="M225.475 98.5596C223.565 100.65 220.935 101.8 218.195 102.09C220.925 101.81 223.535 100.68 225.475 98.5596Z" fill="#231F20"/>
<path d="M138.146 102.06C141.746 102.48 145.456 101.4 148.236 98.5596C145.396 101.34 141.716 102.45 138.146 102.06Z" fill="#231F20"/>
<path d="M134.405 76.5303C134.265 76.7003 134.115 76.8603 133.975 77.0303C134.045 76.9603 134.175 76.8103 134.405 76.5303Z" fill="#231F20"/>
<mask id="mask1_3907_34733" style="mask-type:luminance" maskUnits="userSpaceOnUse" x="130" y="21" width="38" height="60">
<path d="M166.585 39.6703C153.395 37.4403 140.745 31.3403 130.515 21.3203C131.735 22.5703 132.885 23.8703 134.035 25.1903C134.105 25.2703 134.165 25.3303 134.215 25.3903C134.175 25.3403 134.145 25.2903 134.105 25.2303C133.015 23.7003 135.095 26.3703 134.215 25.3903C134.725 26.1103 135.235 26.8303 135.715 27.5703C136.525 28.8303 137.295 30.1203 138.005 31.4403C138.445 32.2603 138.845 33.1003 139.255 33.9303C139.305 34.0303 139.515 34.5003 139.685 34.8803C139.535 34.4903 139.495 34.3403 139.755 34.9703C140.055 35.6903 139.905 35.3603 139.685 34.8803C139.885 35.4103 140.265 36.3903 140.315 36.5603C140.555 37.2503 140.775 37.9503 140.985 38.6503C141.455 40.2303 141.845 41.8203 142.175 43.4303C142.315 44.1403 142.435 44.8603 142.565 45.5803C142.585 45.6903 142.595 45.7603 142.615 45.8203C142.765 46.4803 142.545 44.3803 142.615 45.8203C142.615 45.9203 142.625 46.0503 142.635 46.1903C142.725 47.8303 142.855 49.4503 142.855 51.0903C142.855 52.5403 142.775 53.9903 142.685 55.4403C142.655 55.8403 142.605 56.2903 142.575 56.5803C142.605 56.4003 142.635 56.2303 142.665 56.0503C142.505 57.1003 142.525 57.0203 142.575 56.5803C142.485 57.1203 142.405 57.6603 142.295 58.2003C141.725 61.2103 140.885 64.1803 139.805 67.0403C139.795 67.1103 139.725 67.2903 139.575 67.6803C139.655 67.4703 139.725 67.2503 139.805 67.0403C139.875 66.7203 138.535 69.7303 138.265 70.2303C137.575 71.5603 136.825 72.8503 136.025 74.1103C135.685 74.6403 133.565 77.4503 133.985 77.0203C134.125 76.8503 134.275 76.6903 134.415 76.5203C134.185 76.7903 134.055 76.9503 133.985 77.0203C132.875 78.3303 131.735 79.6103 130.525 80.8403C140.755 70.8303 153.405 64.7203 166.595 62.4903C167.875 54.9403 167.875 47.2203 166.595 39.6703H166.585Z" fill="white"/>
</mask>
<g mask="url(#mask1_3907_34733)">
<path d="M130.524 78.2502L167.864 74.6602V80.8502H130.524V78.2502Z" fill="#F5B53F"/>
<path d="M130.524 77.7502L167.864 74.1602V74.6602L130.524 78.2502V77.7502Z" fill="#F5B53F"/>
<path d="M130.524 77.2402L167.864 73.6602V74.1602L130.524 77.7502V77.2402Z" fill="#F5B43F"/>
<path d="M130.524 76.7404L167.864 73.1504V73.6604L130.524 77.2404V76.7404Z" fill="#F5B33F"/>
<path d="M130.524 76.2404L167.864 72.6504V73.1504L130.524 76.7404V76.2404Z" fill="#F5B23E"/>
<path d="M130.524 75.7297L167.864 72.1396V72.6497L130.524 76.2396V75.7297Z" fill="#F5B13E"/>
<path d="M130.524 75.2297L167.864 71.6396V72.1396L130.524 75.7297V75.2297Z" fill="#F5B03E"/>
<path d="M130.524 74.7199L167.864 71.1299V71.6399L130.524 75.2299V74.7199Z" fill="#F4AF3E"/>
<path d="M130.524 74.2199L167.864 70.6299V71.1299L130.524 74.7199V74.2199Z" fill="#F4AE3D"/>
<path d="M130.524 73.7101L167.864 70.1201V70.6301L130.524 74.2201V73.7101Z" fill="#F4AD3D"/>
<path d="M130.524 73.2101L167.864 69.6201V70.1201L130.524 73.7101V73.2101Z" fill="#F4AC3D"/>
<path d="M130.524 72.7001L167.864 69.1201V69.6201L130.524 73.2101V72.7001Z" fill="#F4AB3D"/>
<path d="M130.524 72.2003L167.864 68.6104V69.1204L130.524 72.7003V72.2003Z" fill="#F4AA3C"/>
<path d="M130.524 71.7003L167.864 68.1104V68.6104L130.524 72.2003V71.7003Z" fill="#F4A93C"/>
<path d="M130.524 71.1896L167.864 67.5996V68.1096L130.524 71.6996V71.1896Z" fill="#F4A83C"/>
<path d="M130.524 70.6896L167.864 67.0996V67.5996L130.524 71.1896V70.6896Z" fill="#F4A73C"/>
<path d="M130.524 70.1798L167.864 66.5898V67.0998L130.524 70.6898V70.1798Z" fill="#F4A63B"/>
<path d="M130.524 69.6798L167.864 66.0898V66.5898L130.524 70.1798V69.6798Z" fill="#F4A53B"/>
<path d="M130.524 69.1701L167.864 65.5801V66.0901L130.524 69.6801V69.1701Z" fill="#F3A43B"/>
<path d="M130.524 68.6701L167.864 65.0801V65.5801L130.524 69.1701V68.6701Z" fill="#F3A33B"/>
<path d="M130.524 68.1601L167.864 64.5801V65.0801L130.524 68.6701V68.1601Z" fill="#F3A23B"/>
<path d="M130.524 67.6603L167.864 64.0703V64.5803L130.524 68.1603V67.6603Z" fill="#F3A13A"/>
<path d="M130.524 67.1603L167.864 63.5703V64.0703L130.524 67.6603V67.1603Z" fill="#F3A03A"/>
<path d="M130.524 66.6505L167.864 63.0605V63.5705L130.524 67.1605V66.6505Z" fill="#F39F3A"/>
<path d="M130.524 66.1505L167.864 62.5605V63.0605L130.524 66.6505V66.1505Z" fill="#F39E3A"/>
<path d="M130.524 65.6398L167.864 62.0498V62.5598L130.524 66.1498V65.6398Z" fill="#F39D39"/>
<path d="M130.524 65.1398L167.864 61.5498V62.0498L130.524 65.6398V65.1398Z" fill="#F39C39"/>
<path d="M130.524 64.63L167.864 61.04V61.55L130.524 65.14V64.63Z" fill="#F39B39"/>
<path d="M130.524 64.13L167.864 60.54V61.04L130.524 64.63V64.13Z" fill="#F29A39"/>
<path d="M130.524 63.62L167.864 60.04V60.54L130.524 64.13V63.62Z" fill="#F29938"/>
<path d="M130.524 63.1203L167.864 59.5303V60.0403L130.524 63.6203V63.1203Z" fill="#F29838"/>
<path d="M130.524 62.6203L167.864 59.0303V59.5303L130.524 63.1203V62.6203Z" fill="#F29738"/>
<path d="M130.524 62.1105L167.864 58.5205V59.0305L130.524 62.6205V62.1105Z" fill="#F29638"/>
<path d="M130.524 61.6105L167.864 58.0205V58.5205L130.524 62.1105V61.6105Z" fill="#F29538"/>
<path d="M130.524 61.0998L167.864 57.5098V58.0198L130.524 61.6098V61.0998Z" fill="#F29437"/>
<path d="M130.524 60.5998L167.864 57.0098V57.5098L130.524 61.0998V60.5998Z" fill="#F29337"/>
<path d="M130.524 60.09L167.864 56.5V57.01L130.524 60.6V60.09Z" fill="#F29237"/>
<path d="M130.524 59.59L167.864 56V56.5L130.524 60.09V59.59Z" fill="#F29137"/>
<path d="M130.524 59.08L167.864 55.5V56L130.524 59.59V59.08Z" fill="#F29036"/>
<path d="M130.524 58.5802L167.864 54.9902V55.5002L130.524 59.0802V58.5802Z" fill="#F18F36"/>
<path d="M130.524 58.0802L167.864 54.4902V54.9902L130.524 58.5802V58.0802Z" fill="#F18E36"/>
<path d="M130.524 57.5705L167.864 53.9805V54.4905L130.524 58.0805V57.5705Z" fill="#F18D36"/>
<path d="M130.524 57.0705L167.864 53.4805V53.9805L130.524 57.5705V57.0705Z" fill="#F18C35"/>
<path d="M130.524 56.5597L167.864 52.9697V53.4797L130.524 57.0697V56.5597Z" fill="#F18B35"/>
<path d="M130.524 56.0597L167.864 52.4697V52.9697L130.524 56.5597V56.0597Z" fill="#F18A35"/>
<path d="M130.524 55.55L167.864 51.96V52.47L130.524 56.06V55.55Z" fill="#F18935"/>
<path d="M130.524 55.05L167.864 51.46V51.96L130.524 55.55V55.05Z" fill="#F18834"/>
<path d="M130.524 54.55L167.864 50.96V51.46L130.524 55.05V54.55Z" fill="#F18734"/>
<path d="M130.524 54.0402L167.864 50.4502V50.9602L130.524 54.5502V54.0402Z" fill="#F18634"/>
<path d="M130.524 53.5402L167.864 49.9502V50.4502L130.524 54.0402V53.5402Z" fill="#F18534"/>
<path d="M130.524 53.0304L167.864 49.4404V49.9504L130.524 53.5404V53.0304Z" fill="#F08434"/>
<path d="M130.524 52.5304L167.864 48.9404V49.4404L130.524 53.0304V52.5304Z" fill="#F08333"/>
<path d="M130.524 52.0197L167.864 48.4297V48.9397L130.524 52.5297V52.0197Z" fill="#F08233"/>
<path d="M130.524 51.5197L167.864 47.9297V48.4297L130.524 52.0197V51.5197Z" fill="#F08133"/>
<path d="M130.524 51.0099L167.864 47.4199V47.9299L130.524 51.5199V51.0099Z" fill="#F08033"/>
<path d="M130.524 50.5099L167.864 46.9199V47.4199L130.524 51.0099V50.5099Z" fill="#F07E32"/>
<path d="M130.524 50.0099L167.864 46.4199V46.9199L130.524 50.5099V50.0099Z" fill="#F07D32"/>
<path d="M130.524 49.5002L167.864 45.9102V46.4202L130.524 50.0102V49.5002Z" fill="#F07C32"/>
<path d="M130.524 49.0002L167.864 45.4102V45.9102L130.524 49.5002V49.0002Z" fill="#F07B32"/>
<path d="M130.524 48.4904L167.864 44.9004V45.4104L130.524 49.0004V48.4904Z" fill="#F07A31"/>
<path d="M130.524 47.9904L167.864 44.4004V44.9004L130.524 48.4904V47.9904Z" fill="#EF7931"/>
<path d="M130.524 47.4796L167.864 43.8896V44.3997L130.524 47.9897V47.4796Z" fill="#EF7831"/>
<path d="M130.524 46.9796L167.864 43.3896V43.8896L130.524 47.4796V46.9796Z" fill="#EF7731"/>
<path d="M130.524 46.4699L167.864 42.8799V43.3899L130.524 46.9799V46.4699Z" fill="#EF7631"/>
<path d="M130.524 45.9699L167.864 42.3799V42.8799L130.524 46.4699V45.9699Z" fill="#EF7530"/>
<path d="M130.524 45.4699L167.864 41.8799V42.3799L130.524 45.9699V45.4699Z" fill="#EF7430"/>
<path d="M130.524 44.9601L167.864 41.3701V41.8801L130.524 45.4701V44.9601Z" fill="#EF7330"/>
<path d="M130.524 44.4601L167.864 40.8701V41.3701L130.524 44.9601V44.4601Z" fill="#EF7230"/>
<path d="M130.524 43.9504L167.864 40.3604V40.8703L130.524 44.4604V43.9504Z" fill="#EF712F"/>
<path d="M130.524 43.4504L167.864 39.8604V40.3604L130.524 43.9504V43.4504Z" fill="#EF702F"/>
<path d="M130.524 42.9396L167.864 39.3496V39.8596L130.524 43.4496V42.9396Z" fill="#EF6F2F"/>
<path d="M130.524 42.4396L167.864 38.8496V39.3496L130.524 42.9396V42.4396Z" fill="#EE6E2F"/>
<path d="M130.524 41.9298L167.864 38.3398V38.8498L130.524 42.4398V41.9298Z" fill="#EE6D2E"/>
<path d="M130.524 41.4298L167.864 37.8398V38.3398L130.524 41.9298V41.4298Z" fill="#EE6C2E"/>
<path d="M130.524 40.9298L167.864 37.3398V37.8398L130.524 41.4298V40.9298Z" fill="#EE6B2E"/>
<path d="M130.524 40.4201L167.864 36.8301V37.3401L130.524 40.9301V40.4201Z" fill="#EE6A2E"/>
<path d="M130.524 39.9201L167.864 36.3301V36.8301L130.524 40.4201V39.9201Z" fill="#EE692D"/>
<path d="M130.524 39.4103L167.864 35.8203V36.3303L130.524 39.9203V39.4103Z" fill="#EE682D"/>
<path d="M130.524 38.9103L167.864 35.3203V35.8203L130.524 39.4103V38.9103Z" fill="#EE672D"/>
<path d="M130.524 38.4005L167.864 34.8105V35.3205L130.524 38.9105V38.4005Z" fill="#EE662D"/>
<path d="M130.524 37.9005L167.864 34.3105V34.8105L130.524 38.4005V37.9005Z" fill="#EE652D"/>
<path d="M130.524 37.3898L167.864 33.7998V34.3098L130.524 37.8998V37.3898Z" fill="#EE642C"/>
<path d="M130.524 36.8898L167.864 33.2998V33.7998L130.524 37.3898V36.8898Z" fill="#ED632C"/>
<path d="M130.524 36.3898L167.864 32.7998V33.2998L130.524 36.8898V36.3898Z" fill="#ED622C"/>
<path d="M130.524 35.88L167.864 32.29V32.8L130.524 36.39V35.88Z" fill="#ED612C"/>
<path d="M130.524 35.38L167.864 31.79V32.29L130.524 35.88V35.38Z" fill="#ED602B"/>
<path d="M130.524 34.8703L167.864 31.2803V31.7903L130.524 35.3803V34.8703Z" fill="#ED5F2B"/>
<path d="M130.524 34.3703L167.864 30.7803V31.2803L130.524 34.8703V34.3703Z" fill="#ED5E2B"/>
<path d="M130.524 33.8605L167.864 30.2705V30.7805L130.524 34.3705V33.8605Z" fill="#ED5D2B"/>
<path d="M130.524 33.3605L167.864 29.7705V30.2705L130.524 33.8605V33.3605Z" fill="#ED5C2A"/>
<path d="M130.524 32.8505L167.814 29.2705L167.864 29.7605V29.7705L130.524 33.3605V32.8505Z" fill="#ED5B2A"/>
<path d="M130.524 32.3505L167.764 28.7705L167.814 29.2705L130.524 32.8505V32.3505Z" fill="#ED5A2A"/>
<path d="M130.524 31.8505L167.724 28.2705L167.764 28.7705L130.524 32.3505V31.8505Z" fill="#EC592A"/>
<path d="M130.524 31.3405L167.674 27.7705L167.724 28.2705L130.524 31.8505V31.3405Z" fill="#EC582A"/>
<path d="M130.524 30.8405L167.624 27.2705L167.674 27.7705L130.524 31.3405V30.8405Z" fill="#EC5729"/>
<path d="M130.524 30.3305L167.574 26.7705L167.624 27.2705L130.524 30.8405V30.3305Z" fill="#EC5629"/>
<path d="M130.524 29.8305L167.524 26.2705L167.574 26.7705L130.524 30.3305V29.8305Z" fill="#EC5529"/>
<path d="M130.524 29.3205L167.484 25.7705L167.524 26.2705L130.524 29.8305V29.3205Z" fill="#EC5429"/>
<path d="M130.524 28.8205L167.434 25.2705L167.484 25.7705L130.524 29.3205V28.8205Z" fill="#EC5328"/>
<path d="M130.524 28.3105L167.384 24.7705L167.434 25.2705L130.524 28.8205V28.3105Z" fill="#EC5228"/>
<path d="M130.524 27.8105L167.334 24.2705L167.384 24.7705L130.524 28.3105V27.8105Z" fill="#EC5128"/>
<path d="M130.524 27.3105L167.284 23.7705L167.334 24.2705L130.524 27.8105V27.3105Z" fill="#EC5028"/>
<path d="M130.524 26.8005L167.244 23.2705L167.284 23.7705L130.524 27.3105V26.8005Z" fill="#EC4F27"/>
<path d="M130.524 26.3005L167.194 22.7705L167.244 23.2705L130.524 26.8005V26.3005Z" fill="#EB4E27"/>
<path d="M130.524 25.7905L167.144 22.2705L167.194 22.7705L130.524 26.3005V25.7905Z" fill="#EB4D27"/>
<path d="M130.524 25.2905L167.094 21.7705L167.144 22.2705L130.524 25.7905V25.2905Z" fill="#EB4C27"/>
<path d="M130.524 24.7801L166.484 21.3301H167.054L167.094 21.7701L130.524 25.2901V24.7801Z" fill="#EB4B26"/>
<path d="M130.524 24.2801L161.234 21.3301H166.484L130.524 24.7801V24.2801Z" fill="#EB4A26"/>
<path d="M130.524 23.7701L155.984 21.3301H161.234L130.524 24.2801V23.7701Z" fill="#EB4926"/>
<path d="M155.984 21.3301L130.524 23.7701V21.3301H155.984Z" fill="#EB4926"/>
</g>
<path d="M139.795 67.0498C139.715 67.2598 139.645 67.4798 139.565 67.6898C139.715 67.2998 139.785 67.1098 139.795 67.0498Z" fill="#231F20"/>
<path d="M139.755 34.9601C139.495 34.3301 139.535 34.4801 139.685 34.8701C139.895 35.3401 140.055 35.6701 139.755 34.9601Z" fill="#231F20"/>
<path d="M142.615 45.82C142.765 46.48 142.545 44.38 142.615 45.82Z" fill="#231F20"/>
<path d="M134.105 25.2401C134.145 25.2901 134.175 25.3401 134.215 25.4001C135.095 26.3901 133.005 23.7201 134.105 25.2401Z" fill="#231F20"/>
<path d="M142.645 56.0498C142.615 56.2298 142.585 56.3998 142.555 56.5798C142.505 57.0198 142.485 57.0998 142.645 56.0498Z" fill="#231F20"/>
<path d="M127.025 11.2296C127.345 8.45961 128.545 5.75961 130.525 3.59961C128.515 5.79961 127.325 8.48961 127.025 11.2296Z" fill="#231F20"/>
<path d="M148.245 3.60956C145.585 0.88956 141.575 -0.33044 137.795 0.0795603C141.555 -0.30044 145.525 0.94956 148.235 3.60956H148.245Z" fill="#231F20"/>
<path d="M130.525 98.5603C128.435 96.6503 127.285 94.0203 126.995 91.2803C127.275 94.0103 128.405 96.6203 130.525 98.5603Z" fill="#231F20"/>
<path d="M130.526 80.85C127.866 83.56 126.616 87.53 126.996 91.29C127.286 94.03 128.436 96.66 130.526 98.57C132.686 100.54 135.386 101.75 138.156 102.07C141.736 102.46 145.406 101.35 148.246 98.57C158.256 88.34 164.366 75.69 166.596 62.5C153.406 64.73 140.756 70.83 130.526 80.85Z" fill="#4C9E2D"/>
<path d="M217.855 0.10996C214.255 -0.31004 210.545 0.76996 207.765 3.60996C210.605 0.82996 214.285 -0.28004 217.855 0.10996Z" fill="#231F20"/>
<path d="M228.975 90.9502C228.655 93.7102 227.445 96.4102 225.475 98.5602C227.485 96.3702 228.665 93.6902 228.975 90.9502Z" fill="#231F20"/>
<path d="M225.475 3.61035C227.565 5.52035 228.715 8.15035 229.005 10.8904C228.725 8.16035 227.595 5.55035 225.475 3.61035Z" fill="#231F20"/>
<mask id="mask2_3907_34733" style="mask-type:luminance" maskUnits="userSpaceOnUse" x="188" y="21" width="38" height="60">
<path d="M189.415 62.5001C202.605 64.7301 215.255 70.8301 225.485 80.8501C224.265 79.6001 223.115 78.3001 221.965 76.9801C221.895 76.9001 221.835 76.8401 221.785 76.7801C221.825 76.8301 221.855 76.8801 221.895 76.9401C222.985 78.4701 220.905 75.8001 221.785 76.7801C221.275 76.0601 220.765 75.3401 220.285 74.6001C219.475 73.3401 218.705 72.0501 217.995 70.7301C217.555 69.9101 217.155 69.0701 216.745 68.2401C216.695 68.1401 216.485 67.6701 216.315 67.2901C216.465 67.6801 216.505 67.8301 216.245 67.2001C215.945 66.4801 216.095 66.8101 216.315 67.2901C216.115 66.7601 215.735 65.7801 215.685 65.6101C215.445 64.9201 215.225 64.2201 215.015 63.5201C214.545 61.9401 214.155 60.3501 213.825 58.7401C213.685 58.0301 213.565 57.3101 213.435 56.5901C213.415 56.4801 213.405 56.4101 213.385 56.3501C213.455 57.7901 213.235 55.6901 213.385 56.3501C213.385 56.2501 213.375 56.1201 213.365 55.9801C213.275 54.3401 213.145 52.7201 213.145 51.0801C213.145 49.6201 213.225 48.1801 213.315 46.7301C213.345 46.3301 213.395 45.8801 213.425 45.5901C213.395 45.7701 213.365 45.9401 213.335 46.1201C213.495 45.0701 213.475 45.1501 213.425 45.5901C213.515 45.0501 213.595 44.5101 213.705 43.9701C214.275 40.9601 215.115 37.9901 216.195 35.1301C216.205 35.0601 216.275 34.8801 216.425 34.4901C216.345 34.7001 216.275 34.9201 216.195 35.1301C216.125 35.4501 217.465 32.4401 217.735 31.9401C218.425 30.6101 219.175 29.3201 219.975 28.0601C220.315 27.5301 222.435 24.7201 222.015 25.1501C221.875 25.3201 221.725 25.4801 221.585 25.6501C221.815 25.3801 221.945 25.2201 222.015 25.1501C223.125 23.8401 224.265 22.5601 225.475 21.3301C215.245 31.3401 202.595 37.4501 189.405 39.6801C188.125 47.2301 188.125 54.9501 189.405 62.5001H189.415Z" fill="white"/>
</mask>
<g mask="url(#mask2_3907_34733)">
<path d="M225.476 21.6201L188.136 22.2501V21.3301H225.476V21.6201Z" fill="#4DB3F8"/>
<path d="M225.476 22.3401L188.136 22.9801V22.2501L225.476 21.6201V22.3401Z" fill="#4DB3F8"/>
<path d="M225.476 23.0698L188.136 23.6998V22.9798L225.476 22.3398V23.0698Z" fill="#4CB2F8"/>
<path d="M225.476 23.7903L188.136 24.4203V23.7003L225.476 23.0703V23.7903Z" fill="#4CB1F8"/>
<path d="M225.476 24.51L188.136 25.14V24.42L225.476 23.79V24.51Z" fill="#4BB0F8"/>
<path d="M225.476 25.2398L188.136 25.8698V25.1398L225.476 24.5098V25.2398Z" fill="#4BAFF8"/>
<path d="M225.476 25.9602L188.136 26.5902V25.8702L225.476 25.2402V25.9602Z" fill="#4AAEF7"/>
<path d="M225.476 26.68L188.136 27.31V26.59L225.476 25.96V26.68Z" fill="#49ADF7"/>
<path d="M225.476 27.4097L188.136 28.0397V27.3097L225.476 26.6797V27.4097Z" fill="#49ACF7"/>
<path d="M225.476 28.1302L188.136 28.7602V28.0402L225.476 27.4102V28.1302Z" fill="#48ABF7"/>
<path d="M225.476 28.8499L188.136 29.4799V28.7599L225.476 28.1299V28.8499Z" fill="#48AAF7"/>
<path d="M225.476 29.5796L188.136 30.2096V29.4796L225.476 28.8496V29.5796Z" fill="#47A9F7"/>
<path d="M225.476 30.3001L188.136 30.9301V30.2101L225.476 29.5801V30.3001Z" fill="#46A8F7"/>
<path d="M225.476 31.0198L188.136 31.6498V30.9298L225.476 30.2998V31.0198Z" fill="#46A7F7"/>
<path d="M225.476 31.7405L188.136 32.3805V31.6505L225.476 31.0205V31.7405Z" fill="#45A6F7"/>
<path d="M225.476 32.4702L188.136 33.1002V32.3802L225.476 31.7402V32.4702Z" fill="#44A5F6"/>
<path d="M225.476 33.1897L188.136 33.8197V33.0997L225.476 32.4697V33.1897Z" fill="#44A4F6"/>
<path d="M225.476 33.9104L188.136 34.5504V33.8204L225.476 33.1904V33.9104Z" fill="#43A3F6"/>
<path d="M225.476 34.6402L188.136 35.2702V34.5502L225.476 33.9102V34.6402Z" fill="#43A2F6"/>
<path d="M225.476 35.3596L188.136 35.9897V35.2696L225.476 34.6396V35.3596Z" fill="#42A1F6"/>
<path d="M225.476 36.0804L188.136 36.7204V35.9904L225.476 35.3604V36.0804Z" fill="#41A0F6"/>
<path d="M225.476 36.8101L188.136 37.4401V36.7201L225.476 36.0801V36.8101Z" fill="#419FF6"/>
<path d="M225.476 37.5305L188.136 38.1605V37.4405L225.476 36.8105V37.5305Z" fill="#409EF6"/>
<path d="M225.476 38.2503L188.136 38.8803V38.1603L225.476 37.5303V38.2503Z" fill="#409DF6"/>
<path d="M225.476 38.98L188.136 39.61V38.88L225.476 38.25V38.98Z" fill="#3F9CF6"/>
<path d="M225.476 39.7005L188.136 40.3305V39.6105L225.476 38.9805V39.7005Z" fill="#3E9BF5"/>
<path d="M225.476 40.4202L188.136 41.0502V40.3302L225.476 39.7002V40.4202Z" fill="#3E9AF5"/>
<path d="M225.476 41.1499L188.136 41.7799V41.0499L225.476 40.4199V41.1499Z" fill="#3D99F5"/>
<path d="M225.476 41.8704L188.136 42.5004V41.7804L225.476 41.1504V41.8704Z" fill="#3D98F5"/>
<path d="M225.476 42.5901L188.136 43.2201V42.5001L225.476 41.8701V42.5901Z" fill="#3C97F5"/>
<path d="M225.476 43.3198L188.136 43.9498V43.2198L225.476 42.5898V43.3198Z" fill="#3B96F5"/>
<path d="M225.476 44.0403L188.136 44.6703V43.9503L225.476 43.3203V44.0403Z" fill="#3B95F5"/>
<path d="M225.476 44.76L188.136 45.39V44.67L225.476 44.04V44.76Z" fill="#3A94F5"/>
<path d="M225.476 45.4798L188.136 46.1198V45.3898L225.476 44.7598V45.4798Z" fill="#3A93F5"/>
<path d="M225.476 46.2105L188.136 46.8405V46.1205L225.476 45.4805V46.2105Z" fill="#3992F4"/>
<path d="M225.476 46.93L188.136 47.56V46.84L225.476 46.21V46.93Z" fill="#3891F4"/>
<path d="M225.476 47.6497L188.136 48.2897V47.5597L225.476 46.9297V47.6497Z" fill="#3890F4"/>
<path d="M225.476 48.3804L188.136 49.0104V48.2904L225.476 47.6504V48.3804Z" fill="#378FF4"/>
<path d="M225.476 49.0999L188.136 49.7299V49.0099L225.476 48.3799V49.0999Z" fill="#378EF4"/>
<path d="M225.476 49.8196L188.136 50.4596V49.7296L225.476 49.0996V49.8196Z" fill="#368CF4"/>
<path d="M225.476 50.5503L188.136 51.1803V50.4603L225.476 49.8203V50.5503Z" fill="#358BF4"/>
<path d="M225.476 51.2698L188.136 51.8998V51.1798L225.476 50.5498V51.2698Z" fill="#358AF4"/>
<path d="M225.476 51.9905L188.136 52.6205V51.9005L225.476 51.2705V51.9905Z" fill="#3489F4"/>
<path d="M225.476 52.7202L188.136 53.3502V52.6202L225.476 51.9902V52.7202Z" fill="#3388F3"/>
<path d="M225.476 53.4397L188.136 54.0697V53.3497L225.476 52.7197V53.4397Z" fill="#3387F3"/>
<path d="M225.476 54.1604L188.136 54.7904V54.0704L225.476 53.4404V54.1604Z" fill="#3286F3"/>
<path d="M225.476 54.8902L188.136 55.5202V54.7902L225.476 54.1602V54.8902Z" fill="#3285F3"/>
<path d="M225.476 55.6096L188.136 56.2397V55.5196L225.476 54.8896V55.6096Z" fill="#3184F3"/>
<path d="M225.476 56.3304L188.136 56.9604V56.2404L225.476 55.6104V56.3304Z" fill="#3083F3"/>
<path d="M225.476 57.0601L188.136 57.6901V56.9601L225.476 56.3301V57.0601Z" fill="#3082F3"/>
<path d="M225.476 57.7805L188.136 58.4105V57.6905L225.476 57.0605V57.7805Z" fill="#2F81F3"/>
<path d="M225.476 58.5003L188.136 59.1303V58.4103L225.476 57.7803V58.5003Z" fill="#2F80F3"/>
<path d="M225.476 59.22L188.136 59.86V59.13L225.476 58.5V59.22Z" fill="#2E7FF2"/>
<path d="M225.476 59.9497L188.136 60.5797V59.8597L225.476 59.2197V59.9497Z" fill="#2D7EF2"/>
<path d="M225.476 60.6702L188.136 61.3002V60.5802L225.476 59.9502V60.6702Z" fill="#2D7DF2"/>
<path d="M225.476 61.3899L188.136 62.0299V61.2999L225.476 60.6699V61.3899Z" fill="#2C7CF2"/>
<path d="M225.476 62.1196L188.136 62.7496V62.0296L225.476 61.3896V62.1196Z" fill="#2C7BF2"/>
<path d="M225.476 62.8401L188.136 63.4701V62.7501L225.476 62.1201V62.8401Z" fill="#2B7AF2"/>
<path d="M225.476 63.5598L188.136 64.1998V63.4698L225.476 62.8398V63.5598Z" fill="#2A79F2"/>
<path d="M225.476 64.2905L188.136 64.9205V64.2005L225.476 63.5605V64.2905Z" fill="#2A78F2"/>
<path d="M225.476 65.01L188.136 65.64V64.92L225.476 64.29V65.01Z" fill="#2977F2"/>
<path d="M225.476 65.7298L188.136 66.3598V65.6398L225.476 65.0098V65.7298Z" fill="#2976F2"/>
<path d="M225.476 66.4605L188.136 67.0905V66.3605L225.476 65.7305V66.4605Z" fill="#2875F1"/>
<path d="M225.476 67.18L188.136 67.81V67.09L225.476 66.46V67.18Z" fill="#2774F1"/>
<path d="M225.476 67.8997L188.136 68.5297V67.8097L225.476 67.1797V67.8997Z" fill="#2773F1"/>
<path d="M225.476 68.6304L188.136 69.2604V68.5304L225.476 67.9004V68.6304Z" fill="#2672F1"/>
<path d="M225.476 69.3499L188.136 69.9799V69.2599L225.476 68.6299V69.3499Z" fill="#2571F1"/>
<path d="M225.476 70.0696L188.136 70.6996V69.9796L225.476 69.3496V70.0696Z" fill="#2570F1"/>
<path d="M225.476 70.8003L188.136 71.4303V70.7003L225.476 70.0703V70.8003Z" fill="#246FF1"/>
<path d="M225.476 71.5198L188.136 72.1498V71.4298L225.476 70.7998V71.5198Z" fill="#246EF1"/>
<path d="M225.476 72.2405L188.136 72.8705V72.1505L225.476 71.5205V72.2405Z" fill="#236DF1"/>
<path d="M225.476 72.9602L188.136 73.6002V72.8702L225.476 72.2402V72.9602Z" fill="#226CF0"/>
<path d="M225.476 73.69L188.136 74.32V73.6L225.476 72.96V73.69Z" fill="#226BF0"/>
<path d="M225.476 74.4104L188.136 75.0404V74.3204L225.476 73.6904V74.4104Z" fill="#216AF0"/>
<path d="M225.476 75.1301L188.136 75.7701V75.0402L225.476 74.4102V75.1301Z" fill="#2169F0"/>
<path d="M225.476 75.8599L188.136 76.4899V75.7699L225.476 75.1299V75.8599Z" fill="#2068F0"/>
<path d="M188.136 76.4903L225.476 75.8604V80.8503H188.136V76.4903Z" fill="#2068F0"/>
</g>
<path d="M213.395 56.35C213.465 57.79 213.245 55.69 213.395 56.35Z" fill="#231F20"/>
<path d="M221.595 25.6396C221.735 25.4696 221.885 25.3096 222.025 25.1396C221.955 25.2096 221.825 25.3596 221.595 25.6396Z" fill="#231F20"/>
<path d="M216.246 67.2101C216.506 67.8401 216.466 67.6901 216.316 67.3001C216.106 66.8301 215.946 66.4901 216.246 67.2101Z" fill="#231F20"/>
<path d="M207.765 98.5596C210.425 101.27 214.425 102.5 218.205 102.09C214.445 102.47 210.475 101.21 207.765 98.5596Z" fill="#231F20"/>
<path d="M216.205 35.1205C216.285 34.9105 216.355 34.6905 216.435 34.4805C216.285 34.8705 216.215 35.0605 216.205 35.1205Z" fill="#231F20"/>
<path d="M213.355 46.12C213.385 45.94 213.415 45.77 213.445 45.59C213.495 45.15 213.515 45.07 213.355 46.12Z" fill="#231F20"/>
<path d="M221.895 76.9303C221.855 76.8803 221.825 76.8303 221.785 76.7703C220.905 75.7803 222.995 78.4503 221.895 76.9303Z" fill="#231F20"/>
<path d="M207.765 98.56C210.475 101.22 214.445 102.47 218.205 102.09C220.945 101.79 223.575 100.65 225.485 98.56C227.455 96.4 228.655 93.71 228.985 90.95C229.385 87.37 228.275 83.69 225.485 80.85C215.255 70.84 202.605 64.73 189.415 62.5C191.645 75.69 197.745 88.34 207.765 98.57V98.56Z" fill="#2068F0"/>
<path d="M203.845 7.18974C203.795 7.22974 203.745 7.25974 203.685 7.29974C202.695 8.17974 205.365 6.08974 203.845 7.18974Z" fill="#231F20"/>
<path d="M130.525 3.61008C132.425 1.52008 135.055 0.370078 137.795 0.0800781C135.065 0.360078 132.455 1.49008 130.515 3.61008H130.525Z" fill="#231F20"/>
<path d="M217.855 0.110352C220.625 0.430352 223.325 1.63035 225.485 3.61035C223.285 1.60035 220.605 0.410352 217.855 0.110352Z" fill="#231F20"/>
<mask id="mask3_3907_34733" style="mask-type:luminance" maskUnits="userSpaceOnUse" x="148" y="3" width="60" height="38">
<path d="M189.415 39.6696C191.645 26.4796 197.745 13.8296 207.765 3.59961C206.515 4.81961 205.215 5.96961 203.895 7.11961C203.815 7.18961 203.755 7.24961 203.695 7.29961C203.745 7.25961 203.805 7.22961 203.855 7.18961C205.385 6.09961 202.715 8.17961 203.695 7.29961C202.975 7.80961 202.255 8.31961 201.515 8.79961C200.255 9.60961 198.965 10.3796 197.645 11.0896C196.825 11.5296 195.985 11.9296 195.155 12.3396C195.055 12.3896 194.585 12.5996 194.205 12.7696C194.595 12.6196 194.745 12.5796 194.115 12.8396C193.395 13.1396 193.725 12.9896 194.205 12.7696C193.675 12.9696 192.695 13.3496 192.525 13.3996C191.835 13.6396 191.135 13.8596 190.435 14.0696C188.855 14.5396 187.265 14.9296 185.655 15.2596C184.945 15.3996 184.225 15.5196 183.505 15.6496C183.395 15.6696 183.325 15.6796 183.265 15.6996C184.705 15.6296 182.605 15.8496 183.265 15.6996C183.165 15.6996 183.035 15.7096 182.895 15.7196C181.255 15.8096 179.635 15.9396 177.995 15.9396C176.535 15.9396 175.095 15.8596 173.645 15.7696C173.245 15.7396 172.795 15.6896 172.505 15.6596C172.685 15.6896 172.855 15.7196 173.035 15.7496C171.985 15.5896 172.065 15.6096 172.505 15.6596C171.965 15.5696 171.425 15.4896 170.885 15.3796C167.875 14.8096 164.905 13.9696 162.045 12.8896C161.975 12.8796 161.795 12.8096 161.405 12.6596C161.615 12.7396 161.835 12.8096 162.045 12.8896C162.365 12.9596 159.355 11.6196 158.855 11.3496C157.525 10.6596 156.235 9.90961 154.975 9.10961C154.445 8.76961 151.635 6.64961 152.065 7.06961C152.235 7.20961 152.395 7.35961 152.565 7.49961C152.295 7.26961 152.135 7.13961 152.065 7.06961C150.755 5.95961 149.475 4.81961 148.245 3.60961C158.255 13.8396 164.365 26.4896 166.595 39.6796C174.145 40.9596 181.865 40.9596 189.415 39.6796V39.6696Z" fill="white"/>
</mask>
<g mask="url(#mask3_3907_34733)">
<path d="M149.255 3.60938L150.625 40.9494H148.245V3.60938H149.255Z" fill="#EA3681"/>
<path d="M149.845 3.60938L151.205 40.9494H150.625L149.255 3.60938H149.845Z" fill="#EA3681"/>
<path d="M150.435 3.60938L151.795 40.9494H151.205L149.845 3.60938H150.435Z" fill="#E93682"/>
<path d="M151.026 3.60938L152.386 40.9494H151.796L150.436 3.60938H151.026Z" fill="#E83683"/>
<path d="M151.615 3.60938L152.975 40.9494H152.385L151.025 3.60938H151.615Z" fill="#E73684"/>
<path d="M152.205 3.60938L153.565 40.9494H152.975L151.615 3.60938H152.205Z" fill="#E63685"/>
<path d="M152.795 3.60938L154.155 40.9494H153.565L152.205 3.60938H152.795Z" fill="#E53686"/>
<path d="M153.385 3.60938L154.745 40.9494H154.155L152.795 3.60938H153.385Z" fill="#E43687"/>
<path d="M153.975 3.60938L155.335 40.9494H154.745L153.385 3.60938H153.975Z" fill="#E33588"/>
<path d="M154.566 3.60938L155.926 40.9494H155.336L153.976 3.60938H154.566Z" fill="#E23589"/>
<path d="M155.155 3.60938L156.515 40.9494H155.925L154.565 3.60938H155.155Z" fill="#E1358A"/>
<path d="M155.745 3.60938L157.105 40.9494H156.515L155.155 3.60938H155.745Z" fill="#E1358B"/>
<path d="M156.335 3.60938L157.695 40.9494H157.105L155.745 3.60938H156.335Z" fill="#E0358C"/>
<path d="M156.925 3.60938L158.285 40.9494H157.695L156.335 3.60938H156.925Z" fill="#DF358D"/>
<path d="M157.515 3.60938L158.875 40.9494H158.285L156.925 3.60938H157.515Z" fill="#DE358E"/>
<path d="M158.105 3.60938L159.465 40.9494H158.875L157.515 3.60938H158.105Z" fill="#DD358F"/>
<path d="M158.695 3.60938L160.055 40.9494H159.465L158.105 3.60938H158.695Z" fill="#DC3590"/>
<path d="M159.285 3.60938L160.645 40.9494H160.055L158.695 3.60938H159.285Z" fill="#DB3591"/>
<path d="M159.875 3.60938L161.235 40.9494H160.645L159.285 3.60938H159.875Z" fill="#DA3592"/>
<path d="M160.465 3.60938L161.825 40.9494H161.235L159.875 3.60938H160.465Z" fill="#D93593"/>
<path d="M161.055 3.60938L162.415 40.9494H161.825L160.465 3.60938H161.055Z" fill="#D83594"/>
<path d="M161.645 3.60938L163.005 40.9494H162.415L161.055 3.60938H161.645Z" fill="#D73495"/>
<path d="M162.236 3.60938L163.596 40.9494H163.006L161.646 3.60938H162.236Z" fill="#D63496"/>
<path d="M162.825 3.60938L164.185 40.9494H163.595L162.235 3.60938H162.825Z" fill="#D53497"/>
<path d="M163.415 3.60938L164.775 40.9494H164.185L162.825 3.60938H163.415Z" fill="#D43498"/>
<path d="M164.005 3.60938L165.365 40.9494H164.775L163.415 3.60938H164.005Z" fill="#D33499"/>
<path d="M164.595 3.60938L165.955 40.9494H165.365L164.005 3.60938H164.595Z" fill="#D2349A"/>
<path d="M165.185 3.60938L166.545 40.9494H165.955L164.595 3.60938H165.185Z" fill="#D1349B"/>
<path d="M165.776 3.60938L167.136 40.9494H166.546L165.186 3.60938H165.776Z" fill="#D0349C"/>
<path d="M166.365 3.60938L167.725 40.9494H167.135L165.775 3.60938H166.365Z" fill="#D0349D"/>
<path d="M166.955 3.60938L168.315 40.9494H167.725L166.365 3.60938H166.955Z" fill="#CF349E"/>
<path d="M167.545 3.60938L168.905 40.9494H168.315L166.955 3.60938H167.545Z" fill="#CE349F"/>
<path d="M168.135 3.60938L169.495 40.9494H168.905L167.545 3.60938H168.135Z" fill="#CD34A0"/>
<path d="M168.725 3.60938L170.085 40.9494H169.495L168.135 3.60938H168.725Z" fill="#CC34A1"/>
<path d="M169.316 3.60938L170.676 40.9494H170.086L168.726 3.60938H169.316Z" fill="#CB33A2"/>
<path d="M169.905 3.60938L171.265 40.9494H170.675L169.315 3.60938H169.905Z" fill="#CA33A3"/>
<path d="M170.495 3.60938L171.855 40.9494H171.265L169.905 3.60938H170.495Z" fill="#C933A4"/>
<path d="M171.085 3.60938L172.445 40.9494H171.855L170.495 3.60938H171.085Z" fill="#C833A5"/>
<path d="M171.675 3.60938L173.035 40.9494H172.445L171.085 3.60938H171.675Z" fill="#C733A6"/>
<path d="M172.265 3.60938L173.625 40.9494H173.035L171.675 3.60938H172.265Z" fill="#C633A7"/>
<path d="M172.855 3.60938L174.215 40.9494H173.625L172.265 3.60938H172.855Z" fill="#C533A8"/>
<path d="M173.445 3.60938L174.805 40.9494H174.215L172.855 3.60938H173.445Z" fill="#C433A9"/>
<path d="M174.035 3.60938L175.395 40.9494H174.805L173.445 3.60938H174.035Z" fill="#C333AA"/>
<path d="M174.625 3.60938L175.985 40.9494H175.395L174.035 3.60938H174.625Z" fill="#C233AB"/>
<path d="M175.215 3.60938L176.575 40.9494H175.985L174.625 3.60938H175.215Z" fill="#C133AC"/>
<path d="M175.805 3.60938L177.165 40.9494H176.575L175.215 3.60938H175.805Z" fill="#C033AD"/>
<path d="M176.395 3.60938L177.755 40.9494H177.165L175.805 3.60938H176.395Z" fill="#BF33AE"/>
<path d="M176.986 3.60938L178.346 40.9494H177.756L176.396 3.60938H176.986Z" fill="#BF32B0"/>
<path d="M177.575 3.60938L178.935 40.9494H178.345L176.985 3.60938H177.575Z" fill="#BE32B1"/>
<path d="M178.165 3.60938L179.525 40.9494H178.935L177.575 3.60938H178.165Z" fill="#BD32B2"/>
<path d="M178.755 3.60938L180.115 40.9494H179.525L178.165 3.60938H178.755Z" fill="#BC32B3"/>
<path d="M179.345 3.60938L180.705 40.9494H180.115L178.755 3.60938H179.345Z" fill="#BB32B4"/>
<path d="M179.935 3.60938L181.295 40.9494H180.705L179.345 3.60938H179.935Z" fill="#BA32B5"/>
<path d="M180.526 3.60938L181.886 40.9494H181.296L179.936 3.60938H180.526Z" fill="#B932B6"/>
<path d="M181.115 3.60938L182.475 40.9494H181.885L180.525 3.60938H181.115Z" fill="#B832B7"/>
<path d="M181.705 3.60938L183.065 40.9494H182.475L181.115 3.60938H181.705Z" fill="#B732B8"/>
<path d="M182.295 3.60938L183.655 40.9494H183.065L181.705 3.60938H182.295Z" fill="#B632B9"/>
<path d="M182.885 3.60938L184.245 40.9494H183.655L182.295 3.60938H182.885Z" fill="#B532BA"/>
<path d="M183.475 3.60938L184.835 40.9494H184.245L182.885 3.60938H183.475Z" fill="#B432BB"/>
<path d="M184.056 3.60938L185.426 40.9494H184.836L183.476 3.60938H184.056Z" fill="#B332BC"/>
<path d="M184.645 3.60938L186.015 40.9494H185.425L184.055 3.60938H184.645Z" fill="#B231BD"/>
<path d="M185.236 3.60938L186.606 40.9494H186.016L184.646 3.60938H185.236Z" fill="#B131BE"/>
<path d="M185.825 3.60938L187.195 40.9494H186.605L185.235 3.60938H185.825Z" fill="#B031BF"/>
<path d="M186.415 3.60938L187.775 40.9494H187.195L185.825 3.60938H186.415Z" fill="#AF31C0"/>
<path d="M187.005 3.60938L188.365 40.9494H187.775L186.415 3.60938H187.005Z" fill="#AE31C1"/>
<path d="M187.595 3.60938L188.955 40.9494H188.365L187.005 3.60938H187.595Z" fill="#AE31C2"/>
<path d="M188.185 3.60938L189.545 40.9494H188.955L187.595 3.60938H188.185Z" fill="#AD31C3"/>
<path d="M188.776 3.60938L190.136 40.9494H189.546L188.186 3.60938H188.776Z" fill="#AC31C4"/>
<path d="M189.365 3.60938L190.725 40.9494H190.135L188.775 3.60938H189.365Z" fill="#AB31C5"/>
<path d="M189.955 3.60938L191.315 40.9494H190.725L189.365 3.60938H189.955Z" fill="#AA31C6"/>
<path d="M190.545 3.60938L191.905 40.9494H191.315L189.955 3.60938H190.545Z" fill="#A931C7"/>
<path d="M191.135 3.60938L192.495 40.9494H191.905L190.545 3.60938H191.135Z" fill="#A831C8"/>
<path d="M191.725 3.60938L193.085 40.9494H192.495L191.135 3.60938H191.725Z" fill="#A731C9"/>
<path d="M192.316 3.60938L193.676 40.9494H193.086L191.726 3.60938H192.316Z" fill="#A630CA"/>
<path d="M192.905 3.60938L194.265 40.9494H193.675L192.315 3.60938H192.905Z" fill="#A530CB"/>
<path d="M193.495 3.60938L194.855 40.9494H194.265L192.905 3.60938H193.495Z" fill="#A430CC"/>
<path d="M194.085 3.60938L195.445 40.9494H194.855L193.495 3.60938H194.085Z" fill="#A330CD"/>
<path d="M194.675 3.60938L196.035 40.9494H195.445L194.085 3.60938H194.675Z" fill="#A230CE"/>
<path d="M195.265 3.60938L196.625 40.9494H196.035L194.675 3.60938H195.265Z" fill="#A130CF"/>
<path d="M195.855 3.60938L197.215 40.9494H196.625L195.265 3.60938H195.855Z" fill="#A030D0"/>
<path d="M196.445 3.60938L197.805 40.9494H197.215L195.855 3.60938H196.445Z" fill="#9F30D1"/>
<path d="M197.035 3.60938L198.395 40.9494H197.805L196.445 3.60938H197.035Z" fill="#9E30D2"/>
<path d="M197.625 3.60938L198.985 40.9494H198.395L197.035 3.60938H197.625Z" fill="#9D30D3"/>
<path d="M198.215 3.60938L199.575 40.9494H198.985L197.625 3.60938H198.215Z" fill="#9D30D4"/>
<path d="M198.805 3.60938L200.165 40.9494H199.575L198.215 3.60938H198.805Z" fill="#9C30D5"/>
<path d="M199.395 3.60938L200.755 40.9494H200.165L198.805 3.60938H199.395Z" fill="#9B30D6"/>
<path d="M199.986 3.60938L201.346 40.9494H200.756L199.396 3.60938H199.986Z" fill="#9A2FD7"/>
<path d="M200.575 3.60938L201.935 40.9494H201.345L199.985 3.60938H200.575Z" fill="#992FD8"/>
<path d="M201.165 3.60938L202.525 40.9494H201.935L200.575 3.60938H201.165Z" fill="#982FD9"/>
<path d="M201.755 3.60938L203.115 40.9494H202.525L201.165 3.60938H201.755Z" fill="#972FDA"/>
<path d="M202.345 3.60938L203.705 40.9494H203.115L201.755 3.60938H202.345Z" fill="#962FDB"/>
<path d="M202.935 3.60938L204.295 40.9494H203.705L202.345 3.60938H202.935Z" fill="#952FDC"/>
<path d="M203.526 3.60938L204.886 40.9494H204.296L202.936 3.60938H203.526Z" fill="#942FDD"/>
<path d="M204.885 40.9494L203.525 3.60938H207.765V40.9494H204.885Z" fill="#942FDD"/>
</g>
<path d="M152.555 7.48957C152.385 7.34957 152.225 7.19957 152.055 7.05957C152.125 7.12957 152.275 7.25957 152.555 7.48957Z" fill="#231F20"/>
<path d="M127.025 11.2305C126.605 14.8305 127.685 18.5405 130.525 21.3205C127.745 18.4905 126.625 14.8105 127.025 11.2305Z" fill="#231F20"/>
<path d="M194.125 12.8403C194.755 12.5803 194.605 12.6203 194.215 12.7703C193.745 12.9903 193.405 13.1403 194.125 12.8403Z" fill="#231F20"/>
<path d="M225.475 21.3296C228.185 18.6696 229.415 14.6696 229.005 10.8896C229.385 14.6496 228.125 18.6196 225.475 21.3296Z" fill="#231F20"/>
<path d="M183.265 15.6997C184.705 15.6297 182.605 15.8497 183.265 15.6997Z" fill="#231F20"/>
<path d="M162.036 12.8804C161.826 12.8004 161.606 12.7304 161.396 12.6504C161.786 12.8004 161.976 12.8704 162.036 12.8804Z" fill="#231F20"/>
<path d="M173.035 15.7295C172.855 15.6995 172.685 15.6695 172.505 15.6395C172.065 15.5895 171.985 15.5695 173.035 15.7295Z" fill="#231F20"/>
<path d="M148.245 3.6103C145.525 0.950297 141.555 -0.309703 137.795 0.0802969C135.055 0.380297 132.425 1.5203 130.515 3.6103C128.545 5.7703 127.345 8.4703 127.025 11.2303C126.635 14.8103 127.745 18.4803 130.525 21.3203C140.755 31.3303 153.405 37.4403 166.595 39.6703C164.365 26.4803 158.265 13.8303 148.245 3.6003V3.6103Z" fill="#EB4926"/>
<path d="M229.015 10.8899C228.725 8.14986 227.575 5.51986 225.485 3.60986C223.325 1.63986 220.625 0.42986 217.855 0.10986C214.275 -0.28014 210.605 0.82986 207.765 3.60986C197.755 13.8399 191.645 26.4899 189.415 39.6799C202.605 37.4499 215.255 31.3499 225.485 21.3299C228.145 18.6199 229.395 14.6499 229.015 10.8899Z" fill="#942FDD"/>
</g>
<path d="M16.0443 126.404V176.17H4.04727V126.404H16.0443ZM35.39 147.117V156.346H12.6264V147.117H35.39ZM37.3383 126.404V135.667H12.6264V126.404H37.3383ZM75.1055 126.404H87.1025V158.909C87.1025 162.783 86.2936 166.064 84.6758 168.753C83.058 171.419 80.7907 173.436 77.874 174.803C74.9574 176.17 71.528 176.854 67.5859 176.854C63.6895 176.854 60.2601 176.17 57.2979 174.803C54.3584 173.436 52.057 171.419 50.3936 168.753C48.7529 166.064 47.9326 162.783 47.9326 158.909V126.404H59.9639V158.909C59.9639 160.96 60.2601 162.635 60.8525 163.934C61.445 165.21 62.3109 166.144 63.4502 166.736C64.5895 167.329 65.9681 167.625 67.5859 167.625C69.2266 167.625 70.6052 167.329 71.7217 166.736C72.8382 166.144 73.6813 165.21 74.251 163.934C74.8206 162.635 75.1055 160.96 75.1055 158.909V126.404ZM126.066 162.942C126.066 162.168 125.952 161.473 125.724 160.857C125.496 160.219 125.075 159.627 124.46 159.08C123.844 158.533 122.956 157.986 121.794 157.439C120.654 156.87 119.15 156.277 117.282 155.662C115.094 154.933 112.987 154.113 110.959 153.201C108.931 152.267 107.119 151.185 105.524 149.954C103.929 148.701 102.664 147.243 101.73 145.579C100.796 143.893 100.329 141.933 100.329 139.7C100.329 137.558 100.807 135.633 101.764 133.924C102.721 132.192 104.054 130.722 105.763 129.515C107.495 128.284 109.523 127.35 111.847 126.712C114.171 126.051 116.712 125.721 119.469 125.721C123.115 125.721 126.328 126.359 129.108 127.635C131.911 128.888 134.098 130.677 135.671 133.001C137.266 135.302 138.063 138.025 138.063 141.17H126.134C126.134 139.917 125.872 138.812 125.348 137.854C124.847 136.897 124.084 136.146 123.058 135.599C122.033 135.052 120.745 134.778 119.196 134.778C117.692 134.778 116.427 135.006 115.402 135.462C114.377 135.918 113.602 136.533 113.078 137.308C112.554 138.06 112.292 138.891 112.292 139.803C112.292 140.555 112.497 141.238 112.907 141.854C113.34 142.446 113.944 143.004 114.718 143.528C115.516 144.052 116.473 144.554 117.589 145.032C118.729 145.511 120.005 145.978 121.418 146.434C124.061 147.277 126.408 148.222 128.459 149.271C130.532 150.296 132.275 151.469 133.688 152.791C135.124 154.09 136.206 155.571 136.935 157.234C137.687 158.898 138.063 160.778 138.063 162.874C138.063 165.107 137.63 167.09 136.764 168.821C135.898 170.553 134.657 172.023 133.039 173.23C131.421 174.415 129.484 175.315 127.228 175.931C124.972 176.546 122.454 176.854 119.674 176.854C117.122 176.854 114.604 176.535 112.121 175.896C109.66 175.236 107.427 174.233 105.421 172.889C103.416 171.521 101.81 169.778 100.602 167.659C99.4173 165.517 98.8248 162.977 98.8248 160.037H110.856C110.856 161.495 111.05 162.726 111.437 163.729C111.824 164.731 112.394 165.54 113.146 166.155C113.898 166.748 114.821 167.181 115.915 167.454C117.008 167.705 118.262 167.83 119.674 167.83C121.201 167.83 122.432 167.614 123.366 167.181C124.3 166.725 124.984 166.132 125.417 165.403C125.85 164.651 126.066 163.831 126.066 162.942ZM162.774 126.404V176.17H150.811V126.404H162.774ZM219.1 150.296V152.312C219.1 156.118 218.565 159.536 217.494 162.566C216.446 165.574 214.953 168.149 213.016 170.291C211.08 172.41 208.79 174.039 206.146 175.179C203.503 176.295 200.586 176.854 197.396 176.854C194.183 176.854 191.244 176.295 188.578 175.179C185.935 174.039 183.633 172.41 181.674 170.291C179.737 168.149 178.233 165.574 177.162 162.566C176.114 159.536 175.59 156.118 175.59 152.312V150.296C175.59 146.491 176.114 143.073 177.162 140.042C178.233 137.011 179.725 134.437 181.639 132.317C183.576 130.175 185.866 128.546 188.51 127.43C191.176 126.29 194.115 125.721 197.328 125.721C200.518 125.721 203.435 126.29 206.078 127.43C208.744 128.546 211.045 130.175 212.982 132.317C214.919 134.437 216.423 137.011 217.494 140.042C218.565 143.073 219.1 146.491 219.1 150.296ZM206.932 152.312V150.228C206.932 147.767 206.716 145.602 206.283 143.733C205.873 141.842 205.258 140.258 204.437 138.982C203.617 137.706 202.603 136.749 201.395 136.111C200.21 135.451 198.855 135.12 197.328 135.12C195.733 135.12 194.343 135.451 193.158 136.111C191.973 136.749 190.982 137.706 190.184 138.982C189.387 140.258 188.783 141.842 188.373 143.733C187.985 145.602 187.792 147.767 187.792 150.228V152.312C187.792 154.751 187.985 156.915 188.373 158.807C188.783 160.675 189.387 162.259 190.184 163.558C191.005 164.856 192.007 165.836 193.192 166.497C194.4 167.158 195.801 167.488 197.396 167.488C198.923 167.488 200.279 167.158 201.464 166.497C202.649 165.836 203.64 164.856 204.437 163.558C205.258 162.259 205.873 160.675 206.283 158.807C206.716 156.915 206.932 154.751 206.932 152.312ZM272.659 126.404V176.17H260.696L243.093 145.203V176.17H231.096V126.404H243.093L260.696 157.371V126.404H272.659Z" fill="#072764"/>
<path d="M313.023 126.404H325.021V158.909C325.021 162.783 324.212 166.064 322.594 168.753C320.976 171.419 318.709 173.436 315.792 174.803C312.875 176.17 309.446 176.854 305.504 176.854C301.607 176.854 298.178 176.17 295.216 174.803C292.276 173.436 289.975 171.419 288.312 168.753C286.671 166.064 285.851 162.783 285.851 158.909V126.404H297.882V158.909C297.882 160.96 298.178 162.635 298.771 163.934C299.363 165.21 300.229 166.144 301.368 166.736C302.507 167.329 303.886 167.625 305.504 167.625C307.145 167.625 308.523 167.329 309.64 166.736C310.756 166.144 311.599 165.21 312.169 163.934C312.739 162.635 313.023 160.96 313.023 158.909V126.404ZM351.098 126.404V176.17H339.135V126.404H351.098Z" fill="#0D4BBF"/>
<defs>
<clipPath id="clip0_3907_34733">
<rect width="102.17" height="102.17" fill="white" transform="translate(126.915)"/>
</clipPath>
</defs>
</svg>
