<svg width="475" height="103" viewBox="0 0 475 103" fill="none" xmlns="http://www.w3.org/2000/svg">
<g clip-path="url(#clip0_3907_35170)">
<path d="M76.5303 94.6797C76.7003 94.8197 76.8603 94.9697 77.0303 95.1097C76.9603 95.0397 76.8103 94.9097 76.5303 94.6797Z" fill="#231F20"/>
<path d="M56.0498 86.4395C56.2298 86.4695 56.3998 86.4994 56.5798 86.5294C57.0198 86.5794 57.0998 86.5995 56.0498 86.4395Z" fill="#231F20"/>
<path d="M102.06 90.9496C102.48 87.3496 101.4 83.6296 98.5596 80.8496C101.34 83.6896 102.45 87.3796 102.06 90.9496Z" fill="#231F20"/>
<mask id="mask0_3907_35170" style="mask-type:luminance" maskUnits="userSpaceOnUse" x="21" y="61" width="60" height="38">
<path d="M39.6703 62.5003C37.4403 75.6903 31.3403 88.3403 21.3203 98.5703C22.5703 97.3503 23.8703 96.2003 25.1903 95.0503C25.2703 94.9803 25.3303 94.9203 25.3903 94.8703C25.3403 94.9103 25.2903 94.9403 25.2303 94.9803C23.7003 96.0703 26.3703 93.9903 25.3903 94.8703C26.1103 94.3603 26.8303 93.8503 27.5703 93.3703C28.8303 92.5603 30.1203 91.7903 31.4403 91.0803C32.2603 90.6403 33.1003 90.2403 33.9303 89.8303C34.0303 89.7803 34.5003 89.5703 34.8803 89.4003C34.4903 89.5503 34.3403 89.5903 34.9703 89.3303C35.6903 89.0303 35.3603 89.1803 34.8803 89.4003C35.4103 89.2003 36.3903 88.8203 36.5603 88.7703C37.2503 88.5303 37.9503 88.3103 38.6503 88.1003C40.2303 87.6303 41.8203 87.2403 43.4303 86.9103C44.1403 86.7703 44.8603 86.6503 45.5803 86.5203C45.6903 86.5003 45.7603 86.4903 45.8203 86.4703C46.4803 86.3203 44.3803 86.5403 45.8203 86.4703C45.9203 86.4703 46.0503 86.4603 46.1903 86.4503C47.8303 86.3603 49.4503 86.2303 51.0903 86.2303C52.5503 86.2303 53.9903 86.3103 55.4403 86.4003C55.8403 86.4303 56.2903 86.4803 56.5803 86.5103C56.4003 86.4803 56.2303 86.4503 56.0503 86.4203C57.1003 86.5803 57.0203 86.5603 56.5803 86.5103C57.1203 86.6003 57.6603 86.6803 58.2003 86.7903C61.2103 87.3603 64.1803 88.2003 67.0403 89.2803C67.1103 89.2903 67.2903 89.3603 67.6803 89.5103C67.4703 89.4303 67.2503 89.3603 67.0403 89.2803C66.7203 89.2103 69.7303 90.5503 70.2303 90.8203C71.5603 91.5103 72.8503 92.2603 74.1103 93.0603C74.6403 93.4003 77.4503 95.5203 77.0203 95.1003C76.8503 94.9603 76.6903 94.8103 76.5203 94.6703C76.7903 94.9003 76.9503 95.0303 77.0203 95.1003C78.3303 96.2103 79.6103 97.3503 80.8403 98.5603C70.8303 88.3303 64.7203 75.6803 62.4903 62.4903C54.9403 61.2103 47.2203 61.2103 39.6703 62.4903V62.5003Z" fill="white"/>
</mask>
<g mask="url(#mask0_3907_35170)">
<path d="M77.4201 98.5607L74.0801 61.2207H80.8501V98.5607H77.4201Z" fill="#A9CE41"/>
<path d="M76.8197 98.5607L73.4697 61.2207H74.0797L77.4197 98.5607H76.8197Z" fill="#A9CE41"/>
<path d="M76.2101 98.5607L72.8701 61.2207H73.4701L76.8201 98.5607H76.2101Z" fill="#A8CD41"/>
<path d="M75.6098 98.5607L72.2598 61.2207H72.8698L76.2098 98.5607H75.6098Z" fill="#A7CD41"/>
<path d="M75.0002 98.5607L71.6602 61.2207H72.2602L75.6102 98.5607H75.0002Z" fill="#A6CC40"/>
<path d="M74.3998 98.5607L71.0498 61.2207H71.6598L74.9998 98.5607H74.3998Z" fill="#A5CC40"/>
<path d="M73.7902 98.5607L70.4502 61.2207H71.0502L74.4002 98.5607H73.7902Z" fill="#A4CB40"/>
<path d="M73.1898 98.5607L69.8398 61.2207H70.4498L73.7898 98.5607H73.1898Z" fill="#A3CB40"/>
<path d="M72.5802 98.5607L69.2402 61.2207H69.8402L73.1902 98.5607H72.5802Z" fill="#A2CA3F"/>
<path d="M71.9799 98.5607L68.6299 61.2207H69.2399L72.5799 98.5607H71.9799Z" fill="#A1CA3F"/>
<path d="M71.3703 98.5607L68.0303 61.2207H68.6303L71.9803 98.5607H71.3703Z" fill="#A0C93F"/>
<path d="M70.7699 98.5607L67.4199 61.2207H68.0299L71.3699 98.5607H70.7699Z" fill="#9FC83F"/>
<path d="M70.1603 98.5607L66.8203 61.2207H67.4203L70.7703 98.5607H70.1603Z" fill="#9EC83F"/>
<path d="M69.56 98.5607L66.21 61.2207H66.82L70.16 98.5607H69.56Z" fill="#9DC73E"/>
<path d="M68.9503 98.5607L65.6104 61.2207H66.2104L69.5603 98.5607H68.9503Z" fill="#9CC73E"/>
<path d="M68.35 98.5607L65 61.2207H65.61L68.95 98.5607H68.35Z" fill="#9BC63E"/>
<path d="M67.7404 98.5607L64.4004 61.2207H65.0004L68.3504 98.5607H67.7404Z" fill="#9AC63E"/>
<path d="M67.14 98.5607L63.79 61.2207H64.4L67.74 98.5607H67.14Z" fill="#99C53D"/>
<path d="M66.5304 98.5607L63.1904 61.2207H63.7904L67.1404 98.5607H66.5304Z" fill="#98C43D"/>
<path d="M65.9301 98.5607L62.5801 61.2207H63.1901L66.5301 98.5607H65.9301Z" fill="#97C43D"/>
<path d="M65.3205 98.5607L61.9805 61.2207H62.5805L65.9305 98.5607H65.3205Z" fill="#96C33D"/>
<path d="M64.7201 98.5607L61.3701 61.2207H61.9801L65.3201 98.5607H64.7201Z" fill="#95C33D"/>
<path d="M64.1105 98.5607L60.7705 61.2207H61.3705L64.7205 98.5607H64.1105Z" fill="#94C23C"/>
<path d="M63.5102 98.5607L60.1602 61.2207H60.7702L64.1102 98.5607H63.5102Z" fill="#93C23C"/>
<path d="M62.9005 98.5607L59.5605 61.2207H60.1605L63.5105 98.5607H62.9005Z" fill="#92C13C"/>
<path d="M62.3002 98.5607L58.9502 61.2207H59.5602L62.9002 98.5607H62.3002Z" fill="#91C13C"/>
<path d="M61.6896 98.5607L58.3496 61.2207H58.9496L62.2996 98.5607H61.6896Z" fill="#90C03B"/>
<path d="M61.0902 98.5607L57.7402 61.2207H58.3502L61.6902 98.5607H61.0902Z" fill="#8FBF3B"/>
<path d="M60.4796 98.5607L57.1396 61.2207H57.7397L61.0896 98.5607H60.4796Z" fill="#8EBF3B"/>
<path d="M59.8803 98.5607L56.5303 61.2207H57.1403L60.4803 98.5607H59.8803Z" fill="#8DBE3B"/>
<path d="M59.2697 98.5607L55.9297 61.2207H56.5297L59.8797 98.5607H59.2697Z" fill="#8CBE3A"/>
<path d="M58.6703 98.5607L55.3203 61.2207H55.9303L59.2703 98.5607H58.6703Z" fill="#8BBD3A"/>
<path d="M58.0597 98.5607L54.7197 61.2207H55.3197L58.6697 98.5607H58.0597Z" fill="#8ABD3A"/>
<path d="M57.4604 98.5607L54.1104 61.2207H54.7204L58.0604 98.5607H57.4604Z" fill="#89BC3A"/>
<path d="M56.8498 98.5607L53.5098 61.2207H54.1098L57.4598 98.5607H56.8498Z" fill="#88BB3A"/>
<path d="M56.2504 98.5607L52.9004 61.2207H53.5104L56.8504 98.5607H56.2504Z" fill="#87BB39"/>
<path d="M55.6398 98.5607L52.2998 61.2207H52.8998L56.2498 98.5607H55.6398Z" fill="#86BA39"/>
<path d="M55.0404 98.5607L51.6904 61.2207H52.3004L55.6404 98.5607H55.0404Z" fill="#85BA39"/>
<path d="M54.4298 98.5607L51.0898 61.2207H51.6898L55.0398 98.5607H54.4298Z" fill="#84B939"/>
<path d="M53.8305 98.5607L50.4805 61.2207H51.0905L54.4305 98.5607H53.8305Z" fill="#83B938"/>
<path d="M53.2199 98.5607L49.8799 61.2207H50.4799L53.8299 98.5607H53.2199Z" fill="#82B838"/>
<path d="M52.6205 98.5607L49.2705 61.2207H49.8805L53.2205 98.5607H52.6205Z" fill="#81B838"/>
<path d="M52.0099 98.5607L48.6699 61.2207H49.2699L52.6199 98.5607H52.0099Z" fill="#80B738"/>
<path d="M51.4105 98.5607L48.0605 61.2207H48.6705L52.0105 98.5607H51.4105Z" fill="#7FB638"/>
<path d="M50.8 98.5607L47.46 61.2207H48.06L51.41 98.5607H50.8Z" fill="#7EB637"/>
<path d="M50.1996 98.5607L46.8496 61.2207H47.4596L50.7996 98.5607H50.1996Z" fill="#7DB537"/>
<path d="M49.59 98.5607L46.25 61.2207H46.85L50.2 98.5607H49.59Z" fill="#7BB537"/>
<path d="M48.9897 98.5607L45.6396 61.2207H46.2496L49.5896 98.5607H48.9897Z" fill="#7AB437"/>
<path d="M48.38 98.5607L45.04 61.2207H45.64L48.99 98.5607H48.38Z" fill="#79B436"/>
<path d="M47.7797 98.5607L44.4297 61.2207H45.0397L48.3797 98.5607H47.7797Z" fill="#78B336"/>
<path d="M47.1701 98.5607L43.8301 61.2207H44.4301L47.7801 98.5607H47.1701Z" fill="#77B236"/>
<path d="M46.5697 98.5607L43.2197 61.2207H43.8297L47.1697 98.5607H46.5697Z" fill="#76B236"/>
<path d="M45.9601 98.5607L42.6201 61.2207H43.2201L46.5701 98.5607H45.9601Z" fill="#75B136"/>
<path d="M45.3598 98.5607L42.0098 61.2207H42.6198L45.9598 98.5607H45.3598Z" fill="#74B135"/>
<path d="M44.7502 98.5607L41.4102 61.2207H42.0102L45.3602 98.5607H44.7502Z" fill="#73B035"/>
<path d="M44.1498 98.5607L40.7998 61.2207H41.4098L44.7498 98.5607H44.1498Z" fill="#72B035"/>
<path d="M43.5402 98.5607L40.2002 61.2207H40.8002L44.1502 98.5607H43.5402Z" fill="#71AF35"/>
<path d="M42.9398 98.5607L39.5898 61.2207H40.1998L43.5398 98.5607H42.9398Z" fill="#70AF34"/>
<path d="M42.3302 98.5607L38.9902 61.2207H39.5902L42.9402 98.5607H42.3302Z" fill="#6FAE34"/>
<path d="M41.7299 98.5607L38.3799 61.2207H38.9899L42.3299 98.5607H41.7299Z" fill="#6EAD34"/>
<path d="M41.1203 98.5607L37.7803 61.2207H38.3803L41.7303 98.5607H41.1203Z" fill="#6DAD34"/>
<path d="M40.5199 98.5607L37.1699 61.2207H37.7799L41.1199 98.5607H40.5199Z" fill="#6CAC34"/>
<path d="M39.9103 98.5607L36.5703 61.2207H37.1703L40.5203 98.5607H39.9103Z" fill="#6BAC33"/>
<path d="M39.31 98.5607L35.96 61.2207H36.57L39.91 98.5607H39.31Z" fill="#6AAB33"/>
<path d="M38.7104 98.5607L35.3604 61.2207H35.9604L39.3104 98.5607H38.7104Z" fill="#69AB33"/>
<path d="M38.1 98.5607L34.75 61.2207H35.36L38.71 98.5607H38.1Z" fill="#68AA33"/>
<path d="M37.5004 98.5607L34.1504 61.2207H34.7504L38.1004 98.5607H37.5004Z" fill="#67A932"/>
<path d="M36.89 98.5607L33.54 61.2207H34.15L37.5 98.5607H36.89Z" fill="#66A932"/>
<path d="M36.2904 98.5607L32.9404 61.2207H33.5404L36.8904 98.5607H36.2904Z" fill="#65A832"/>
<path d="M35.6801 98.5607L32.3301 61.2207H32.9401L36.2901 98.5607H35.6801Z" fill="#64A832"/>
<path d="M35.0805 98.5607L31.7305 61.2207H32.3305L35.6805 98.5607H35.0805Z" fill="#63A731"/>
<path d="M34.4701 98.5607L31.1201 61.2207H31.7301L35.0801 98.5607H34.4701Z" fill="#62A731"/>
<path d="M33.8705 98.5607L30.5205 61.2207H31.1205L34.4705 98.5607H33.8705Z" fill="#61A631"/>
<path d="M33.2602 98.5607L29.9102 61.2207H30.5202L33.8702 98.5607H33.2602Z" fill="#60A631"/>
<path d="M32.6605 98.5607L29.3105 61.2207H29.9105L33.2605 98.5607H32.6605Z" fill="#5FA531"/>
<path d="M32.0502 98.5607L28.7002 61.2207H29.3102L32.6602 98.5607H32.0502Z" fill="#5EA430"/>
<path d="M31.4496 98.5607L28.0996 61.2607L28.5196 61.2207H28.6996L32.0496 98.5607H31.4496Z" fill="#5DA430"/>
<path d="M30.84 98.5607L27.5 61.3107L28.1 61.2607L31.45 98.5607H30.84Z" fill="#5CA330"/>
<path d="M30.2404 98.5605L26.9004 61.3705L27.5004 61.3105L30.8404 98.5605H30.2404Z" fill="#5BA330"/>
<path d="M29.6298 98.5611L26.2998 61.4211L26.8998 61.3711L30.2398 98.5611H29.6298Z" fill="#5AA22F"/>
<path d="M29.0302 98.5609L25.7002 61.4709L26.3002 61.4209L29.6302 98.5609H29.0302Z" fill="#59A22F"/>
<path d="M28.4196 98.5607L25.0996 61.5307L25.6996 61.4707L29.0296 98.5607H28.4196Z" fill="#58A12F"/>
<path d="M27.82 98.5603L24.5 61.5803L25.1 61.5303L28.42 98.5603H27.82Z" fill="#57A02F"/>
<path d="M27.2104 98.5611L23.9004 61.6411L24.5004 61.5811L27.8204 98.5611H27.2104Z" fill="#56A02F"/>
<path d="M26.6098 98.5606L23.2998 61.6906L23.8998 61.6406L27.2098 98.5606H26.6098Z" fill="#559F2E"/>
<path d="M26.0002 98.5604L22.7002 61.7404L23.3002 61.6904L26.6102 98.5604H26.0002Z" fill="#549F2E"/>
<path d="M25.3996 98.5602L22.0996 61.8002L22.6996 61.7402L25.9996 98.5602H25.3996Z" fill="#539E2E"/>
<path d="M24.79 98.5608L21.5 61.8508L22.1 61.8008L25.4 98.5608H24.79Z" fill="#529E2E"/>
<path d="M24.1901 98.5606L21.3301 66.6706V61.8706L21.5001 61.8506L24.7901 98.5606H24.1901Z" fill="#519D2D"/>
<path d="M23.5801 98.5599L21.3301 73.4199V66.6699L24.1901 98.5599H23.5801Z" fill="#509D2D"/>
<path d="M22.9801 98.5599L21.3301 80.1699V73.4199L23.5801 98.5599H22.9801Z" fill="#4F9C2D"/>
<path d="M21.3301 80.1699L22.9801 98.5599H21.3301V80.1699Z" fill="#4F9C2D"/>
</g>
<path d="M45.82 86.4794C46.48 86.3294 44.38 86.5494 45.82 86.4794Z" fill="#231F20"/>
<path d="M34.9601 89.3295C34.3301 89.5895 34.4801 89.5495 34.8701 89.3995C35.3401 89.1895 35.6801 89.0295 34.9601 89.3295Z" fill="#231F20"/>
<path d="M11.2296 102.061C8.45961 101.741 5.75961 100.541 3.59961 98.5605C5.79961 100.571 8.47961 101.761 11.2296 102.061Z" fill="#231F20"/>
<path d="M3.61012 80.8496C0.90012 83.5096 -0.32988 87.5096 0.0801201 91.2896C-0.29988 87.5296 0.96012 83.5596 3.61012 80.8496Z" fill="#231F20"/>
<path d="M25.2401 94.9809C25.2901 94.9409 25.3401 94.9109 25.4001 94.8709C26.3901 93.9909 23.7201 96.0809 25.2401 94.9809Z" fill="#231F20"/>
<path d="M67.0498 89.2891C67.2598 89.3691 67.4798 89.4391 67.6898 89.5191C67.2998 89.3691 67.1098 89.2991 67.0498 89.2891Z" fill="#231F20"/>
<path d="M98.5603 98.5605C96.6503 100.651 94.0203 101.801 91.2803 102.091C94.0103 101.811 96.6203 100.681 98.5603 98.5605Z" fill="#231F20"/>
<path d="M11.2305 102.061C14.8305 102.481 18.5405 101.401 21.3205 98.5605C18.4805 101.341 14.8005 102.451 11.2305 102.061Z" fill="#231F20"/>
<path d="M7.48957 76.5293C7.34957 76.6993 7.19957 76.8593 7.05957 77.0293C7.12957 76.9593 7.25957 76.8093 7.48957 76.5293Z" fill="#231F20"/>
<mask id="mask1_3907_35170" style="mask-type:luminance" maskUnits="userSpaceOnUse" x="3" y="21" width="38" height="60">
<path d="M39.6696 39.6703C26.4796 37.4403 13.8296 31.3403 3.59961 21.3203C4.81961 22.5703 5.96961 23.8703 7.11961 25.1903C7.18961 25.2703 7.24961 25.3303 7.29961 25.3903C7.25961 25.3403 7.22961 25.2903 7.18961 25.2303C6.09961 23.7003 8.17961 26.3703 7.29961 25.3903C7.80961 26.1103 8.31961 26.8303 8.79961 27.5703C9.60961 28.8303 10.3796 30.1203 11.0896 31.4403C11.5296 32.2603 11.9296 33.1003 12.3396 33.9303C12.3896 34.0303 12.5996 34.5003 12.7696 34.8803C12.6196 34.4903 12.5796 34.3403 12.8396 34.9703C13.1396 35.6903 12.9896 35.3603 12.7696 34.8803C12.9696 35.4103 13.3496 36.3903 13.3996 36.5603C13.6396 37.2503 13.8596 37.9503 14.0696 38.6503C14.5396 40.2303 14.9296 41.8203 15.2596 43.4303C15.3996 44.1403 15.5196 44.8603 15.6496 45.5803C15.6696 45.6903 15.6796 45.7603 15.6996 45.8203C15.8496 46.4803 15.6296 44.3803 15.6996 45.8203C15.6996 45.9203 15.7096 46.0503 15.7196 46.1903C15.8096 47.8303 15.9396 49.4503 15.9396 51.0903C15.9396 52.5403 15.8596 53.9903 15.7696 55.4403C15.7396 55.8403 15.6896 56.2903 15.6596 56.5803C15.6896 56.4003 15.7196 56.2303 15.7496 56.0503C15.5896 57.1003 15.6096 57.0203 15.6596 56.5803C15.5696 57.1203 15.4896 57.6603 15.3796 58.2003C14.8096 61.2103 13.9696 64.1803 12.8896 67.0403C12.8796 67.1103 12.8096 67.2903 12.6596 67.6803C12.7396 67.4703 12.8096 67.2503 12.8896 67.0403C12.9596 66.7203 11.6196 69.7303 11.3496 70.2303C10.6596 71.5603 9.90961 72.8503 9.10961 74.1103C8.76961 74.6403 6.64961 77.4503 7.06961 77.0203C7.20961 76.8503 7.35961 76.6903 7.49961 76.5203C7.26961 76.7903 7.13961 76.9503 7.06961 77.0203C5.95961 78.3303 4.81961 79.6103 3.60961 80.8403C13.8396 70.8303 26.4896 64.7203 39.6796 62.4903C40.9596 54.9403 40.9596 47.2203 39.6796 39.6703H39.6696Z" fill="white"/>
</mask>
<g mask="url(#mask1_3907_35170)">
<path d="M3.60938 78.2502L40.9494 74.6602V80.8502H3.60938V78.2502Z" fill="#F5B53F"/>
<path d="M3.60938 77.7502L40.9494 74.1602V74.6602L3.60938 78.2502V77.7502Z" fill="#F5B53F"/>
<path d="M3.60938 77.2402L40.9494 73.6602V74.1602L3.60938 77.7502V77.2402Z" fill="#F5B43F"/>
<path d="M3.60938 76.7404L40.9494 73.1504V73.6604L3.60938 77.2404V76.7404Z" fill="#F5B33F"/>
<path d="M3.60938 76.2404L40.9494 72.6504V73.1504L3.60938 76.7404V76.2404Z" fill="#F5B23E"/>
<path d="M3.60938 75.7306L40.9494 72.1406V72.6506L3.60938 76.2406V75.7306Z" fill="#F5B13E"/>
<path d="M3.60938 75.2306L40.9494 71.6406V72.1406L3.60938 75.7306V75.2306Z" fill="#F5B03E"/>
<path d="M3.60938 74.7209L40.9494 71.1309V71.6409L3.60938 75.2309V74.7209Z" fill="#F4AF3E"/>
<path d="M3.60938 74.2209L40.9494 70.6309V71.1309L3.60938 74.7209V74.2209Z" fill="#F4AE3D"/>
<path d="M3.60938 73.7091L40.9494 70.1191V70.6291L3.60938 74.2191V73.7091Z" fill="#F4AD3D"/>
<path d="M3.60938 73.2091L40.9494 69.6191V70.1191L3.60938 73.7091V73.2091Z" fill="#F4AC3D"/>
<path d="M3.60938 72.6991L40.9494 69.1191V69.6191L3.60938 73.2091V72.6991Z" fill="#F4AB3D"/>
<path d="M3.60938 72.1994L40.9494 68.6094V69.1194L3.60938 72.6994V72.1994Z" fill="#F4AA3C"/>
<path d="M3.60938 71.6994L40.9494 68.1094V68.6094L3.60938 72.1994V71.6994Z" fill="#F4A93C"/>
<path d="M3.60938 71.1896L40.9494 67.5996V68.1096L3.60938 71.6996V71.1896Z" fill="#F4A83C"/>
<path d="M3.60938 70.6896L40.9494 67.0996V67.5996L3.60938 71.1896V70.6896Z" fill="#F4A73C"/>
<path d="M3.60938 70.1798L40.9494 66.5898V67.0998L3.60938 70.6898V70.1798Z" fill="#F4A63B"/>
<path d="M3.60938 69.6798L40.9494 66.0898V66.5898L3.60938 70.1798V69.6798Z" fill="#F4A53B"/>
<path d="M3.60938 69.1701L40.9494 65.5801V66.0901L3.60938 69.6801V69.1701Z" fill="#F3A43B"/>
<path d="M3.60938 68.6701L40.9494 65.0801V65.5801L3.60938 69.1701V68.6701Z" fill="#F3A33B"/>
<path d="M3.60938 68.1601L40.9494 64.5801V65.0801L3.60938 68.6701V68.1601Z" fill="#F3A23B"/>
<path d="M3.60938 67.6603L40.9494 64.0703V64.5803L3.60938 68.1603V67.6603Z" fill="#F3A13A"/>
<path d="M3.60938 67.1603L40.9494 63.5703V64.0703L3.60938 67.6603V67.1603Z" fill="#F3A03A"/>
<path d="M3.60938 66.6505L40.9494 63.0605V63.5705L3.60938 67.1605V66.6505Z" fill="#F39F3A"/>
<path d="M3.60938 66.1505L40.9494 62.5605V63.0605L3.60938 66.6505V66.1505Z" fill="#F39E3A"/>
<path d="M3.60938 65.6408L40.9494 62.0508V62.5608L3.60938 66.1508V65.6408Z" fill="#F39D39"/>
<path d="M3.60938 65.1398L40.9494 61.5498V62.0498L3.60938 65.6398V65.1398Z" fill="#F39C39"/>
<path d="M3.60938 64.63L40.9494 61.04V61.55L3.60938 65.14V64.63Z" fill="#F39B39"/>
<path d="M3.60938 64.13L40.9494 60.54V61.04L3.60938 64.63V64.13Z" fill="#F29A39"/>
<path d="M3.60938 63.62L40.9494 60.04V60.54L3.60938 64.13V63.62Z" fill="#F29938"/>
<path d="M3.60938 63.1203L40.9494 59.5303V60.0403L3.60938 63.6203V63.1203Z" fill="#F29838"/>
<path d="M3.60938 62.6203L40.9494 59.0303V59.5303L3.60938 63.1203V62.6203Z" fill="#F29738"/>
<path d="M3.60938 62.1105L40.9494 58.5205V59.0305L3.60938 62.6205V62.1105Z" fill="#F29638"/>
<path d="M3.60938 61.6105L40.9494 58.0205V58.5205L3.60938 62.1105V61.6105Z" fill="#F29538"/>
<path d="M3.60938 61.0998L40.9494 57.5098V58.0198L3.60938 61.6098V61.0998Z" fill="#F29437"/>
<path d="M3.60938 60.5998L40.9494 57.0098V57.5098L3.60938 61.0998V60.5998Z" fill="#F29337"/>
<path d="M3.60938 60.09L40.9494 56.5V57.01L3.60938 60.6V60.09Z" fill="#F29237"/>
<path d="M3.60938 59.59L40.9494 56V56.5L3.60938 60.09V59.59Z" fill="#F29137"/>
<path d="M3.60938 59.08L40.9494 55.5V56L3.60938 59.59V59.08Z" fill="#F29036"/>
<path d="M3.60938 58.5802L40.9494 54.9902V55.5002L3.60938 59.0802V58.5802Z" fill="#F18F36"/>
<path d="M3.60938 58.0802L40.9494 54.4902V54.9902L3.60938 58.5802V58.0802Z" fill="#F18E36"/>
<path d="M3.60938 57.5705L40.9494 53.9805V54.4905L3.60938 58.0805V57.5705Z" fill="#F18D36"/>
<path d="M3.60938 57.0705L40.9494 53.4805V53.9805L3.60938 57.5705V57.0705Z" fill="#F18C35"/>
<path d="M3.60938 56.5597L40.9494 52.9697V53.4797L3.60938 57.0697V56.5597Z" fill="#F18B35"/>
<path d="M3.60938 56.0597L40.9494 52.4697V52.9697L3.60938 56.5597V56.0597Z" fill="#F18A35"/>
<path d="M3.60938 55.55L40.9494 51.96V52.47L3.60938 56.06V55.55Z" fill="#F18935"/>
<path d="M3.60938 55.05L40.9494 51.46V51.96L3.60938 55.55V55.05Z" fill="#F18834"/>
<path d="M3.60938 54.55L40.9494 50.96V51.46L3.60938 55.05V54.55Z" fill="#F18734"/>
<path d="M3.60938 54.0402L40.9494 50.4502V50.9602L3.60938 54.5502V54.0402Z" fill="#F18634"/>
<path d="M3.60938 53.5402L40.9494 49.9502V50.4502L3.60938 54.0402V53.5402Z" fill="#F18534"/>
<path d="M3.60938 53.0304L40.9494 49.4404V49.9504L3.60938 53.5404V53.0304Z" fill="#F08434"/>
<path d="M3.60938 52.5304L40.9494 48.9404V49.4404L3.60938 53.0304V52.5304Z" fill="#F08333"/>
<path d="M3.60938 52.0197L40.9494 48.4297V48.9397L3.60938 52.5297V52.0197Z" fill="#F08233"/>
<path d="M3.60938 51.5197L40.9494 47.9297V48.4297L3.60938 52.0197V51.5197Z" fill="#F08133"/>
<path d="M3.60938 51.0099L40.9494 47.4199V47.9299L3.60938 51.5199V51.0099Z" fill="#F08033"/>
<path d="M3.60938 50.5099L40.9494 46.9199V47.4199L3.60938 51.0099V50.5099Z" fill="#F07E32"/>
<path d="M3.60938 50.0099L40.9494 46.4199V46.9199L3.60938 50.5099V50.0099Z" fill="#F07D32"/>
<path d="M3.60938 49.5002L40.9494 45.9102V46.4202L3.60938 50.0102V49.5002Z" fill="#F07C32"/>
<path d="M3.60938 49.0002L40.9494 45.4102V45.9102L3.60938 49.5002V49.0002Z" fill="#F07B32"/>
<path d="M3.60938 48.4904L40.9494 44.9004V45.4104L3.60938 49.0004V48.4904Z" fill="#F07A31"/>
<path d="M3.60938 47.9904L40.9494 44.4004V44.9004L3.60938 48.4904V47.9904Z" fill="#EF7931"/>
<path d="M3.60938 47.4796L40.9494 43.8896V44.3997L3.60938 47.9897V47.4796Z" fill="#EF7831"/>
<path d="M3.60938 46.9796L40.9494 43.3896V43.8896L3.60938 47.4796V46.9796Z" fill="#EF7731"/>
<path d="M3.60938 46.4699L40.9494 42.8799V43.3899L3.60938 46.9799V46.4699Z" fill="#EF7631"/>
<path d="M3.60938 45.9699L40.9494 42.3799V42.8799L3.60938 46.4699V45.9699Z" fill="#EF7530"/>
<path d="M3.60938 45.4699L40.9494 41.8799V42.3799L3.60938 45.9699V45.4699Z" fill="#EF7430"/>
<path d="M3.60938 44.9601L40.9494 41.3701V41.8801L3.60938 45.4701V44.9601Z" fill="#EF7330"/>
<path d="M3.60938 44.4601L40.9494 40.8701V41.3701L3.60938 44.9601V44.4601Z" fill="#EF7230"/>
<path d="M3.60938 43.9504L40.9494 40.3604V40.8703L3.60938 44.4604V43.9504Z" fill="#EF712F"/>
<path d="M3.60938 43.4504L40.9494 39.8604V40.3604L3.60938 43.9504V43.4504Z" fill="#EF702F"/>
<path d="M3.60938 42.9396L40.9494 39.3496V39.8596L3.60938 43.4496V42.9396Z" fill="#EF6F2F"/>
<path d="M3.60938 42.4396L40.9494 38.8496V39.3496L3.60938 42.9396V42.4396Z" fill="#EE6E2F"/>
<path d="M3.60938 41.9298L40.9494 38.3398V38.8498L3.60938 42.4398V41.9298Z" fill="#EE6D2E"/>
<path d="M3.60938 41.4298L40.9494 37.8398V38.3398L3.60938 41.9298V41.4298Z" fill="#EE6C2E"/>
<path d="M3.60938 40.9298L40.9494 37.3398V37.8398L3.60938 41.4298V40.9298Z" fill="#EE6B2E"/>
<path d="M3.60938 40.4201L40.9494 36.8301V37.3401L3.60938 40.9301V40.4201Z" fill="#EE6A2E"/>
<path d="M3.60938 39.9201L40.9494 36.3301V36.8301L3.60938 40.4201V39.9201Z" fill="#EE692D"/>
<path d="M3.60938 39.4103L40.9494 35.8203V36.3303L3.60938 39.9203V39.4103Z" fill="#EE682D"/>
<path d="M3.60938 38.9103L40.9494 35.3203V35.8203L3.60938 39.4103V38.9103Z" fill="#EE672D"/>
<path d="M3.60938 38.4005L40.9494 34.8105V35.3205L3.60938 38.9105V38.4005Z" fill="#EE662D"/>
<path d="M3.60938 37.9005L40.9494 34.3105V34.8105L3.60938 38.4005V37.9005Z" fill="#EE652D"/>
<path d="M3.60938 37.3898L40.9494 33.7998V34.3098L3.60938 37.8998V37.3898Z" fill="#EE642C"/>
<path d="M3.60938 36.8898L40.9494 33.2998V33.7998L3.60938 37.3898V36.8898Z" fill="#ED632C"/>
<path d="M3.60938 36.3898L40.9494 32.7998V33.2998L3.60938 36.8898V36.3898Z" fill="#ED622C"/>
<path d="M3.60938 35.88L40.9494 32.29V32.8L3.60938 36.39V35.88Z" fill="#ED612C"/>
<path d="M3.60938 35.38L40.9494 31.79V32.29L3.60938 35.88V35.38Z" fill="#ED602B"/>
<path d="M3.60938 34.8703L40.9494 31.2803V31.7903L3.60938 35.3803V34.8703Z" fill="#ED5F2B"/>
<path d="M3.60938 34.3703L40.9494 30.7803V31.2803L3.60938 34.8703V34.3703Z" fill="#ED5E2B"/>
<path d="M3.60938 33.8605L40.9494 30.2705V30.7805L3.60938 34.3705V33.8605Z" fill="#ED5D2B"/>
<path d="M3.60938 33.3605L40.9494 29.7705V30.2705L3.60938 33.8605V33.3605Z" fill="#ED5C2A"/>
<path d="M3.60938 32.8505L40.8994 29.2705L40.9494 29.7605V29.7705L3.60938 33.3605V32.8505Z" fill="#ED5B2A"/>
<path d="M3.60938 32.3505L40.8494 28.7705L40.8994 29.2705L3.60938 32.8505V32.3505Z" fill="#ED5A2A"/>
<path d="M3.60938 31.8505L40.8094 28.2705L40.8494 28.7705L3.60938 32.3505V31.8505Z" fill="#EC592A"/>
<path d="M3.60938 31.3405L40.7594 27.7705L40.8094 28.2705L3.60938 31.8505V31.3405Z" fill="#EC582A"/>
<path d="M3.60938 30.8405L40.7094 27.2705L40.7594 27.7705L3.60938 31.3405V30.8405Z" fill="#EC5729"/>
<path d="M3.60938 30.3305L40.6594 26.7705L40.7094 27.2705L3.60938 30.8405V30.3305Z" fill="#EC5629"/>
<path d="M3.60938 29.8305L40.6094 26.2705L40.6594 26.7705L3.60938 30.3305V29.8305Z" fill="#EC5529"/>
<path d="M3.60938 29.3205L40.5694 25.7705L40.6094 26.2705L3.60938 29.8305V29.3205Z" fill="#EC5429"/>
<path d="M3.60938 28.8205L40.5194 25.2705L40.5694 25.7705L3.60938 29.3205V28.8205Z" fill="#EC5328"/>
<path d="M3.60938 28.3105L40.4694 24.7705L40.5194 25.2705L3.60938 28.8205V28.3105Z" fill="#EC5228"/>
<path d="M3.60938 27.8105L40.4194 24.2705L40.4694 24.7705L3.60938 28.3105V27.8105Z" fill="#EC5128"/>
<path d="M3.60938 27.3105L40.3694 23.7705L40.4194 24.2705L3.60938 27.8105V27.3105Z" fill="#EC5028"/>
<path d="M3.60938 26.8005L40.3294 23.2705L40.3694 23.7705L3.60938 27.3105V26.8005Z" fill="#EC4F27"/>
<path d="M3.60938 26.3005L40.2794 22.7705L40.3294 23.2705L3.60938 26.8005V26.3005Z" fill="#EB4E27"/>
<path d="M3.60938 25.7905L40.2294 22.2705L40.2794 22.7705L3.60938 26.3005V25.7905Z" fill="#EB4D27"/>
<path d="M3.60938 25.2905L40.1794 21.7705L40.2294 22.2705L3.60938 25.7905V25.2905Z" fill="#EB4C27"/>
<path d="M3.60938 24.7801L39.5694 21.3301H40.1394L40.1794 21.7701L3.60938 25.2901V24.7801Z" fill="#EB4B26"/>
<path d="M3.60938 24.2801L34.3194 21.3301H39.5694L3.60938 24.7801V24.2801Z" fill="#EB4A26"/>
<path d="M3.60938 23.7701L29.0694 21.3301H34.3194L3.60938 24.2801V23.7701Z" fill="#EB4926"/>
<path d="M29.0694 21.3301L3.60938 23.7701V21.3301H29.0694Z" fill="#EB4926"/>
</g>
<path d="M12.8804 67.0508C12.8004 67.2608 12.7304 67.4808 12.6504 67.6908C12.8004 67.3008 12.8704 67.1108 12.8804 67.0508Z" fill="#231F20"/>
<path d="M12.8403 34.9601C12.5803 34.3301 12.6203 34.4801 12.7703 34.8701C12.9803 35.3401 13.1403 35.6701 12.8403 34.9601Z" fill="#231F20"/>
<path d="M15.6997 45.82C15.8497 46.48 15.6297 44.38 15.6997 45.82Z" fill="#231F20"/>
<path d="M7.18974 25.2401C7.22974 25.2901 7.25974 25.3401 7.29974 25.4001C8.17974 26.3901 6.08974 23.7201 7.18974 25.2401Z" fill="#231F20"/>
<path d="M15.7295 56.0498C15.6995 56.2298 15.6695 56.3998 15.6395 56.5798C15.5895 57.0198 15.5695 57.0998 15.7295 56.0498Z" fill="#231F20"/>
<path d="M0.110352 11.2296C0.430352 8.45961 1.63035 5.75961 3.61035 3.59961C1.60035 5.79961 0.410352 8.48961 0.110352 11.2296Z" fill="#231F20"/>
<path d="M21.3299 3.60956C18.6699 0.88956 14.6599 -0.33044 10.8799 0.0795603C14.6399 -0.30044 18.6099 0.94956 21.3199 3.60956H21.3299Z" fill="#231F20"/>
<path d="M3.61008 98.5593C1.52008 96.6493 0.370078 94.0193 0.0800781 91.2793C0.360078 94.0093 1.49008 96.6193 3.61008 98.5593Z" fill="#231F20"/>
<path d="M3.61047 80.85C0.950466 83.56 -0.299534 87.53 0.0804662 91.29C0.370466 94.03 1.52047 96.66 3.61047 98.57C5.77047 100.54 8.47047 101.75 11.2405 102.07C14.8205 102.46 18.4905 101.35 21.3305 98.57C31.3405 88.34 37.4505 75.69 39.6805 62.5C26.4905 64.73 13.8405 70.83 3.61047 80.85Z" fill="#4C9E2D"/>
<path d="M90.9396 0.10996C87.3396 -0.31004 83.6296 0.76996 80.8496 3.60996C83.6896 0.82996 87.3696 -0.28004 90.9396 0.10996Z" fill="#231F20"/>
<path d="M102.06 90.9492C101.74 93.7092 100.53 96.4092 98.5596 98.5592C100.57 96.3692 101.75 93.6892 102.06 90.9492Z" fill="#231F20"/>
<path d="M98.5596 3.61035C100.65 5.52035 101.8 8.15035 102.09 10.8904C101.81 8.16035 100.68 5.55035 98.5596 3.61035Z" fill="#231F20"/>
<mask id="mask2_3907_35170" style="mask-type:luminance" maskUnits="userSpaceOnUse" x="61" y="21" width="38" height="60">
<path d="M62.5003 62.5001C75.6903 64.7301 88.3403 70.8301 98.5703 80.8501C97.3503 79.6001 96.2003 78.3001 95.0503 76.9801C94.9803 76.9001 94.9203 76.8401 94.8703 76.7801C94.9103 76.8301 94.9403 76.8801 94.9803 76.9401C96.0703 78.4701 93.9903 75.8001 94.8703 76.7801C94.3603 76.0601 93.8503 75.3401 93.3703 74.6001C92.5603 73.3401 91.7903 72.0501 91.0803 70.7301C90.6403 69.9101 90.2403 69.0701 89.8303 68.2401C89.7803 68.1401 89.5703 67.6701 89.4003 67.2901C89.5503 67.6801 89.5903 67.8301 89.3303 67.2001C89.0303 66.4801 89.1803 66.8101 89.4003 67.2901C89.2003 66.7601 88.8203 65.7801 88.7703 65.6101C88.5303 64.9201 88.3103 64.2201 88.1003 63.5201C87.6303 61.9401 87.2403 60.3501 86.9103 58.7401C86.7703 58.0301 86.6503 57.3101 86.5203 56.5901C86.5003 56.4801 86.4903 56.4101 86.4703 56.3501C86.5403 57.7901 86.3203 55.6901 86.4703 56.3501C86.4703 56.2501 86.4603 56.1201 86.4503 55.9801C86.3603 54.3401 86.2303 52.7201 86.2303 51.0801C86.2303 49.6201 86.3103 48.1801 86.4003 46.7301C86.4303 46.3301 86.4803 45.8801 86.5103 45.5901C86.4803 45.7701 86.4503 45.9401 86.4203 46.1201C86.5803 45.0701 86.5603 45.1501 86.5103 45.5901C86.6003 45.0501 86.6803 44.5101 86.7903 43.9701C87.3603 40.9601 88.2003 37.9901 89.2803 35.1301C89.2903 35.0601 89.3603 34.8801 89.5103 34.4901C89.4303 34.7001 89.3603 34.9201 89.2803 35.1301C89.2103 35.4501 90.5503 32.4401 90.8203 31.9401C91.5103 30.6101 92.2603 29.3201 93.0603 28.0601C93.4003 27.5301 95.5203 24.7201 95.1003 25.1501C94.9603 25.3201 94.8103 25.4801 94.6703 25.6501C94.9003 25.3801 95.0303 25.2201 95.1003 25.1501C96.2103 23.8401 97.3503 22.5601 98.5603 21.3301C88.3303 31.3401 75.6803 37.4501 62.4903 39.6801C61.2103 47.2301 61.2103 54.9501 62.4903 62.5001H62.5003Z" fill="white"/>
</mask>
<g mask="url(#mask2_3907_35170)">
<path d="M98.5607 21.6201L61.2207 22.2501V21.3301H98.5607V21.6201Z" fill="#4DB3F8"/>
<path d="M98.5607 22.3401L61.2207 22.9801V22.2501L98.5607 21.6201V22.3401Z" fill="#4DB3F8"/>
<path d="M98.5607 23.0698L61.2207 23.6998V22.9798L98.5607 22.3398V23.0698Z" fill="#4CB2F8"/>
<path d="M98.5607 23.7903L61.2207 24.4203V23.7003L98.5607 23.0703V23.7903Z" fill="#4CB1F8"/>
<path d="M98.5607 24.51L61.2207 25.14V24.42L98.5607 23.79V24.51Z" fill="#4BB0F8"/>
<path d="M98.5607 25.2398L61.2207 25.8698V25.1398L98.5607 24.5098V25.2398Z" fill="#4BAFF8"/>
<path d="M98.5607 25.9602L61.2207 26.5902V25.8702L98.5607 25.2402V25.9602Z" fill="#4AAEF7"/>
<path d="M98.5607 26.68L61.2207 27.31V26.59L98.5607 25.96V26.68Z" fill="#49ADF7"/>
<path d="M98.5607 27.4097L61.2207 28.0397V27.3097L98.5607 26.6797V27.4097Z" fill="#49ACF7"/>
<path d="M98.5607 28.1302L61.2207 28.7602V28.0402L98.5607 27.4102V28.1302Z" fill="#48ABF7"/>
<path d="M98.5607 28.8499L61.2207 29.4799V28.7599L98.5607 28.1299V28.8499Z" fill="#48AAF7"/>
<path d="M98.5607 29.5796L61.2207 30.2096V29.4796L98.5607 28.8496V29.5796Z" fill="#47A9F7"/>
<path d="M98.5607 30.3001L61.2207 30.9301V30.2101L98.5607 29.5801V30.3001Z" fill="#46A8F7"/>
<path d="M98.5607 31.0198L61.2207 31.6498V30.9298L98.5607 30.2998V31.0198Z" fill="#46A7F7"/>
<path d="M98.5607 31.7405L61.2207 32.3805V31.6505L98.5607 31.0205V31.7405Z" fill="#45A6F7"/>
<path d="M98.5607 32.4702L61.2207 33.1002V32.3802L98.5607 31.7402V32.4702Z" fill="#44A5F6"/>
<path d="M98.5607 33.1897L61.2207 33.8197V33.0997L98.5607 32.4697V33.1897Z" fill="#44A4F6"/>
<path d="M98.5607 33.9104L61.2207 34.5504V33.8204L98.5607 33.1904V33.9104Z" fill="#43A3F6"/>
<path d="M98.5607 34.6402L61.2207 35.2702V34.5502L98.5607 33.9102V34.6402Z" fill="#43A2F6"/>
<path d="M98.5607 35.3596L61.2207 35.9897V35.2696L98.5607 34.6396V35.3596Z" fill="#42A1F6"/>
<path d="M98.5607 36.0804L61.2207 36.7204V35.9904L98.5607 35.3604V36.0804Z" fill="#41A0F6"/>
<path d="M98.5607 36.8101L61.2207 37.4401V36.7201L98.5607 36.0801V36.8101Z" fill="#419FF6"/>
<path d="M98.5607 37.5305L61.2207 38.1605V37.4405L98.5607 36.8105V37.5305Z" fill="#409EF6"/>
<path d="M98.5607 38.2503L61.2207 38.8803V38.1603L98.5607 37.5303V38.2503Z" fill="#409DF6"/>
<path d="M98.5607 38.98L61.2207 39.61V38.88L98.5607 38.25V38.98Z" fill="#3F9CF6"/>
<path d="M98.5607 39.7005L61.2207 40.3305V39.6105L98.5607 38.9805V39.7005Z" fill="#3E9BF5"/>
<path d="M98.5607 40.4202L61.2207 41.0502V40.3302L98.5607 39.7002V40.4202Z" fill="#3E9AF5"/>
<path d="M98.5607 41.1499L61.2207 41.7799V41.0499L98.5607 40.4199V41.1499Z" fill="#3D99F5"/>
<path d="M98.5607 41.8704L61.2207 42.5004V41.7804L98.5607 41.1504V41.8704Z" fill="#3D98F5"/>
<path d="M98.5607 42.5901L61.2207 43.2201V42.5001L98.5607 41.8701V42.5901Z" fill="#3C97F5"/>
<path d="M98.5607 43.3198L61.2207 43.9498V43.2198L98.5607 42.5898V43.3198Z" fill="#3B96F5"/>
<path d="M98.5607 44.0403L61.2207 44.6703V43.9503L98.5607 43.3203V44.0403Z" fill="#3B95F5"/>
<path d="M98.5607 44.76L61.2207 45.39V44.67L98.5607 44.04V44.76Z" fill="#3A94F5"/>
<path d="M98.5607 45.4798L61.2207 46.1198V45.3898L98.5607 44.7598V45.4798Z" fill="#3A93F5"/>
<path d="M98.5607 46.2105L61.2207 46.8405V46.1205L98.5607 45.4805V46.2105Z" fill="#3992F4"/>
<path d="M98.5607 46.93L61.2207 47.56V46.84L98.5607 46.21V46.93Z" fill="#3891F4"/>
<path d="M98.5607 47.6497L61.2207 48.2897V47.5597L98.5607 46.9297V47.6497Z" fill="#3890F4"/>
<path d="M98.5607 48.3804L61.2207 49.0104V48.2904L98.5607 47.6504V48.3804Z" fill="#378FF4"/>
<path d="M98.5607 49.0999L61.2207 49.7299V49.0099L98.5607 48.3799V49.0999Z" fill="#378EF4"/>
<path d="M98.5607 49.8196L61.2207 50.4596V49.7296L98.5607 49.0996V49.8196Z" fill="#368CF4"/>
<path d="M98.5607 50.5503L61.2207 51.1803V50.4603L98.5607 49.8203V50.5503Z" fill="#358BF4"/>
<path d="M98.5607 51.2698L61.2207 51.8998V51.1798L98.5607 50.5498V51.2698Z" fill="#358AF4"/>
<path d="M98.5607 51.9905L61.2207 52.6205V51.9005L98.5607 51.2705V51.9905Z" fill="#3489F4"/>
<path d="M98.5607 52.7202L61.2207 53.3502V52.6202L98.5607 51.9902V52.7202Z" fill="#3388F3"/>
<path d="M98.5607 53.4397L61.2207 54.0697V53.3497L98.5607 52.7197V53.4397Z" fill="#3387F3"/>
<path d="M98.5607 54.1604L61.2207 54.7904V54.0704L98.5607 53.4404V54.1604Z" fill="#3286F3"/>
<path d="M98.5607 54.8902L61.2207 55.5202V54.7902L98.5607 54.1602V54.8902Z" fill="#3285F3"/>
<path d="M98.5607 55.6096L61.2207 56.2397V55.5196L98.5607 54.8896V55.6096Z" fill="#3184F3"/>
<path d="M98.5607 56.3304L61.2207 56.9604V56.2404L98.5607 55.6104V56.3304Z" fill="#3083F3"/>
<path d="M98.5607 57.0601L61.2207 57.6901V56.9601L98.5607 56.3301V57.0601Z" fill="#3082F3"/>
<path d="M98.5607 57.7805L61.2207 58.4105V57.6905L98.5607 57.0605V57.7805Z" fill="#2F81F3"/>
<path d="M98.5607 58.5003L61.2207 59.1303V58.4103L98.5607 57.7803V58.5003Z" fill="#2F80F3"/>
<path d="M98.5607 59.22L61.2207 59.86V59.13L98.5607 58.5V59.22Z" fill="#2E7FF2"/>
<path d="M98.5607 59.9497L61.2207 60.5797V59.8597L98.5607 59.2197V59.9497Z" fill="#2D7EF2"/>
<path d="M98.5607 60.6702L61.2207 61.3002V60.5802L98.5607 59.9502V60.6702Z" fill="#2D7DF2"/>
<path d="M98.5607 61.3899L61.2207 62.0299V61.2999L98.5607 60.6699V61.3899Z" fill="#2C7CF2"/>
<path d="M98.5607 62.1196L61.2207 62.7496V62.0296L98.5607 61.3896V62.1196Z" fill="#2C7BF2"/>
<path d="M98.5607 62.8391L61.2207 63.4691V62.7491L98.5607 62.1191V62.8391Z" fill="#2B7AF2"/>
<path d="M98.5607 63.5598L61.2207 64.1998V63.4698L98.5607 62.8398V63.5598Z" fill="#2A79F2"/>
<path d="M98.5607 64.2905L61.2207 64.9205V64.2005L98.5607 63.5605V64.2905Z" fill="#2A78F2"/>
<path d="M98.5607 65.011L61.2207 65.641V64.921L98.5607 64.291V65.011Z" fill="#2977F2"/>
<path d="M98.5607 65.7298L61.2207 66.3598V65.6398L98.5607 65.0098V65.7298Z" fill="#2976F2"/>
<path d="M98.5607 66.4605L61.2207 67.0905V66.3605L98.5607 65.7305V66.4605Z" fill="#2875F1"/>
<path d="M98.5607 67.1809L61.2207 67.8109V67.0909L98.5607 66.4609V67.1809Z" fill="#2774F1"/>
<path d="M98.5607 67.8997L61.2207 68.5297V67.8097L98.5607 67.1797V67.8997Z" fill="#2773F1"/>
<path d="M98.5607 68.6304L61.2207 69.2604V68.5304L98.5607 67.9004V68.6304Z" fill="#2672F1"/>
<path d="M98.5607 69.3509L61.2207 69.9809V69.2609L98.5607 68.6309V69.3509Z" fill="#2571F1"/>
<path d="M98.5607 70.0696L61.2207 70.6996V69.9796L98.5607 69.3496V70.0696Z" fill="#2570F1"/>
<path d="M98.5607 70.8003L61.2207 71.4303V70.7003L98.5607 70.0703V70.8003Z" fill="#246FF1"/>
<path d="M98.5607 71.5208L61.2207 72.1508V71.4308L98.5607 70.8008V71.5208Z" fill="#246EF1"/>
<path d="M98.5607 72.2395L61.2207 72.8695V72.1495L98.5607 71.5195V72.2395Z" fill="#236DF1"/>
<path d="M98.5607 72.9602L61.2207 73.6002V72.8702L98.5607 72.2402V72.9602Z" fill="#226CF0"/>
<path d="M98.5607 73.6909L61.2207 74.3209V73.6009L98.5607 72.9609V73.6909Z" fill="#226BF0"/>
<path d="M98.5607 74.4095L61.2207 75.0395V74.3195L98.5607 73.6895V74.4095Z" fill="#216AF0"/>
<path d="M98.5607 75.1301L61.2207 75.7701V75.0402L98.5607 74.4102V75.1301Z" fill="#2169F0"/>
<path d="M98.5607 75.8609L61.2207 76.4909V75.7709L98.5607 75.1309V75.8609Z" fill="#2068F0"/>
<path d="M61.2207 76.4894L98.5607 75.8594V80.8494H61.2207V76.4894Z" fill="#2068F0"/>
</g>
<path d="M86.4803 56.35C86.5503 57.79 86.3303 55.69 86.4803 56.35Z" fill="#231F20"/>
<path d="M94.6797 25.6396C94.8197 25.4696 94.9697 25.3096 95.1097 25.1396C95.0397 25.2096 94.9097 25.3596 94.6797 25.6396Z" fill="#231F20"/>
<path d="M89.3295 67.2101C89.5895 67.8401 89.5495 67.6901 89.3995 67.3001C89.1895 66.8301 89.0295 66.4901 89.3295 67.2101Z" fill="#231F20"/>
<path d="M80.8496 98.5605C83.5096 101.271 87.5096 102.501 91.2896 102.091C87.5296 102.471 83.5596 101.211 80.8496 98.5605Z" fill="#231F20"/>
<path d="M89.29 35.1205C89.37 34.9105 89.44 34.6905 89.52 34.4805C89.37 34.8705 89.3 35.0605 89.29 35.1205Z" fill="#231F20"/>
<path d="M86.4404 46.12C86.4704 45.94 86.5004 45.77 86.5304 45.59C86.5804 45.15 86.6004 45.07 86.4404 46.12Z" fill="#231F20"/>
<path d="M94.9799 76.9294C94.9399 76.8794 94.9099 76.8294 94.8699 76.7694C93.9899 75.7794 96.0799 78.4494 94.9799 76.9294Z" fill="#231F20"/>
<path d="M80.85 98.56C83.56 101.22 87.53 102.47 91.29 102.09C94.03 101.79 96.66 100.65 98.57 98.56C100.54 96.4 101.74 93.71 102.07 90.95C102.47 87.37 101.36 83.69 98.57 80.85C88.34 70.84 75.69 64.73 62.5 62.5C64.73 75.69 70.83 88.34 80.85 98.57V98.56Z" fill="#2068F0"/>
<path d="M76.9303 7.18974C76.8803 7.22974 76.8303 7.25974 76.7703 7.29974C75.7803 8.17974 78.4503 6.08974 76.9303 7.18974Z" fill="#231F20"/>
<path d="M3.60961 3.61008C5.50961 1.52008 8.13961 0.370078 10.8796 0.0800781C8.14961 0.360078 5.53961 1.49008 3.59961 3.61008H3.60961Z" fill="#231F20"/>
<path d="M90.9404 0.110352C93.7104 0.430352 96.4104 1.63035 98.5704 3.61035C96.3704 1.60035 93.6904 0.410352 90.9404 0.110352Z" fill="#231F20"/>
<mask id="mask3_3907_35170" style="mask-type:luminance" maskUnits="userSpaceOnUse" x="21" y="3" width="60" height="38">
<path d="M62.5001 39.6696C64.7301 26.4796 70.8301 13.8296 80.8501 3.59961C79.6001 4.81961 78.3001 5.96961 76.9801 7.11961C76.9001 7.18961 76.8401 7.24961 76.7801 7.29961C76.8301 7.25961 76.8901 7.22961 76.9401 7.18961C78.4701 6.09961 75.8001 8.17961 76.7801 7.29961C76.0601 7.80961 75.3401 8.31961 74.6001 8.79961C73.3401 9.60961 72.0501 10.3796 70.7301 11.0896C69.9101 11.5296 69.0701 11.9296 68.2401 12.3396C68.1401 12.3896 67.6701 12.5996 67.2901 12.7696C67.6801 12.6196 67.8301 12.5796 67.2001 12.8396C66.4801 13.1396 66.8101 12.9896 67.2901 12.7696C66.7601 12.9696 65.7801 13.3496 65.6101 13.3996C64.9201 13.6396 64.2201 13.8596 63.5201 14.0696C61.9401 14.5396 60.3501 14.9296 58.7401 15.2596C58.0301 15.3996 57.3101 15.5196 56.5901 15.6496C56.4801 15.6696 56.4101 15.6796 56.3501 15.6996C57.7901 15.6296 55.6901 15.8496 56.3501 15.6996C56.2501 15.6996 56.1201 15.7096 55.9801 15.7196C54.3401 15.8096 52.7201 15.9396 51.0801 15.9396C49.6201 15.9396 48.1801 15.8596 46.7301 15.7696C46.3301 15.7396 45.8801 15.6896 45.5901 15.6596C45.7701 15.6896 45.9401 15.7196 46.1201 15.7496C45.0701 15.5896 45.1501 15.6096 45.5901 15.6596C45.0501 15.5696 44.5101 15.4896 43.9701 15.3796C40.9601 14.8096 37.9901 13.9696 35.1301 12.8896C35.0601 12.8796 34.8801 12.8096 34.4901 12.6596C34.7001 12.7396 34.9201 12.8096 35.1301 12.8896C35.4501 12.9596 32.4401 11.6196 31.9401 11.3496C30.6101 10.6596 29.3201 9.90961 28.0601 9.10961C27.5301 8.76961 24.7201 6.64961 25.1501 7.06961C25.3201 7.20961 25.4801 7.35961 25.6501 7.49961C25.3801 7.26961 25.2201 7.13961 25.1501 7.06961C23.8401 5.95961 22.5601 4.81961 21.3301 3.60961C31.3401 13.8396 37.4501 26.4896 39.6801 39.6796C47.2301 40.9596 54.9501 40.9596 62.5001 39.6796V39.6696Z" fill="white"/>
</mask>
<g mask="url(#mask3_3907_35170)">
<path d="M22.3401 3.60938L23.7101 40.9494H21.3301V3.60938H22.3401Z" fill="#EA3681"/>
<path d="M22.9298 3.60938L24.2898 40.9494H23.7098L22.3398 3.60938H22.9298Z" fill="#EA3681"/>
<path d="M23.5197 3.60938L24.8797 40.9494H24.2897L22.9297 3.60938H23.5197Z" fill="#E93682"/>
<path d="M24.1105 3.60938L25.4705 40.9494H24.8805L23.5205 3.60938H24.1105Z" fill="#E83683"/>
<path d="M24.7004 3.60938L26.0604 40.9494H25.4704L24.1104 3.60938H24.7004Z" fill="#E73684"/>
<path d="M25.2902 3.60938L26.6502 40.9494H26.0602L24.7002 3.60938H25.2902Z" fill="#E63685"/>
<path d="M25.88 3.60938L27.24 40.9494H26.65L25.29 3.60938H25.88Z" fill="#E53686"/>
<path d="M26.4699 3.60938L27.8299 40.9494H27.2399L25.8799 3.60938H26.4699Z" fill="#E43687"/>
<path d="M27.0597 3.60938L28.4197 40.9494H27.8297L26.4697 3.60938H27.0597Z" fill="#E33588"/>
<path d="M27.6505 3.60938L29.0105 40.9494H28.4205L27.0605 3.60938H27.6505Z" fill="#E23589"/>
<path d="M28.2404 3.60938L29.6004 40.9494H29.0104L27.6504 3.60938H28.2404Z" fill="#E1358A"/>
<path d="M28.8302 3.60938L30.1902 40.9494H29.6002L28.2402 3.60938H28.8302Z" fill="#E1358B"/>
<path d="M29.4201 3.60938L30.7801 40.9494H30.1901L28.8301 3.60938H29.4201Z" fill="#E0358C"/>
<path d="M30.0099 3.60938L31.3699 40.9494H30.7799L29.4199 3.60938H30.0099Z" fill="#DF358D"/>
<path d="M30.5998 3.60938L31.9598 40.9494H31.3698L30.0098 3.60938H30.5998Z" fill="#DE358E"/>
<path d="M31.1896 3.60938L32.5496 40.9494H31.9596L30.5996 3.60938H31.1896Z" fill="#DD358F"/>
<path d="M31.7804 3.60938L33.1404 40.9494H32.5504L31.1904 3.60938H31.7804Z" fill="#DC3590"/>
<path d="M32.3703 3.60938L33.7303 40.9494H33.1403L31.7803 3.60938H32.3703Z" fill="#DB3591"/>
<path d="M32.9601 3.60938L34.3201 40.9494H33.7301L32.3701 3.60938H32.9601Z" fill="#DA3592"/>
<path d="M33.55 3.60938L34.91 40.9494H34.32L32.96 3.60938H33.55Z" fill="#D93593"/>
<path d="M34.1398 3.60938L35.4998 40.9494H34.9098L33.5498 3.60938H34.1398Z" fill="#D83594"/>
<path d="M34.7296 3.60938L36.0896 40.9494H35.4996L34.1396 3.60938H34.7296Z" fill="#D73495"/>
<path d="M35.3205 3.60938L36.6805 40.9494H36.0905L34.7305 3.60938H35.3205Z" fill="#D63496"/>
<path d="M35.9103 3.60938L37.2703 40.9494H36.6803L35.3203 3.60938H35.9103Z" fill="#D53497"/>
<path d="M36.5002 3.60938L37.8602 40.9494H37.2702L35.9102 3.60938H36.5002Z" fill="#D43498"/>
<path d="M37.09 3.60938L38.45 40.9494H37.86L36.5 3.60938H37.09Z" fill="#D33499"/>
<path d="M37.6798 3.60938L39.0398 40.9494H38.4498L37.0898 3.60938H37.6798Z" fill="#D2349A"/>
<path d="M38.2697 3.60938L39.6297 40.9494H39.0397L37.6797 3.60938H38.2697Z" fill="#D1349B"/>
<path d="M38.8605 3.60938L40.2205 40.9494H39.6305L38.2705 3.60938H38.8605Z" fill="#D0349C"/>
<path d="M39.4504 3.60938L40.8104 40.9494H40.2204L38.8604 3.60938H39.4504Z" fill="#D0349D"/>
<path d="M40.0402 3.60938L41.4002 40.9494H40.8102L39.4502 3.60938H40.0402Z" fill="#CF349E"/>
<path d="M40.63 3.60938L41.99 40.9494H41.4L40.04 3.60938H40.63Z" fill="#CE349F"/>
<path d="M41.2199 3.60938L42.5799 40.9494H41.9899L40.6299 3.60938H41.2199Z" fill="#CD34A0"/>
<path d="M41.8097 3.60938L43.1697 40.9494H42.5797L41.2197 3.60938H41.8097Z" fill="#CC34A1"/>
<path d="M42.4005 3.60938L43.7605 40.9494H43.1705L41.8105 3.60938H42.4005Z" fill="#CB33A2"/>
<path d="M42.9904 3.60938L44.3504 40.9494H43.7604L42.4004 3.60938H42.9904Z" fill="#CA33A3"/>
<path d="M43.5802 3.60938L44.9402 40.9494H44.3502L42.9902 3.60938H43.5802Z" fill="#C933A4"/>
<path d="M44.1701 3.60938L45.5301 40.9494H44.9401L43.5801 3.60938H44.1701Z" fill="#C833A5"/>
<path d="M44.7599 3.60938L46.1199 40.9494H45.5299L44.1699 3.60938H44.7599Z" fill="#C733A6"/>
<path d="M45.3498 3.60938L46.7098 40.9494H46.1198L44.7598 3.60938H45.3498Z" fill="#C633A7"/>
<path d="M45.9396 3.60938L47.2996 40.9494H46.7096L45.3496 3.60938H45.9396Z" fill="#C533A8"/>
<path d="M46.5304 3.60938L47.8904 40.9494H47.3004L45.9404 3.60938H46.5304Z" fill="#C433A9"/>
<path d="M47.1203 3.60938L48.4803 40.9494H47.8903L46.5303 3.60938H47.1203Z" fill="#C333AA"/>
<path d="M47.7101 3.60938L49.0701 40.9494H48.4801L47.1201 3.60938H47.7101Z" fill="#C233AB"/>
<path d="M48.3 3.60938L49.66 40.9494H49.07L47.71 3.60938H48.3Z" fill="#C133AC"/>
<path d="M48.8898 3.60938L50.2498 40.9494H49.6598L48.2998 3.60938H48.8898Z" fill="#C033AD"/>
<path d="M49.4796 3.60938L50.8396 40.9494H50.2496L48.8896 3.60938H49.4796Z" fill="#BF33AE"/>
<path d="M50.0705 3.60938L51.4305 40.9494H50.8405L49.4805 3.60938H50.0705Z" fill="#BF32B0"/>
<path d="M50.6603 3.60938L52.0203 40.9494H51.4303L50.0703 3.60938H50.6603Z" fill="#BE32B1"/>
<path d="M51.2502 3.60938L52.6102 40.9494H52.0202L50.6602 3.60938H51.2502Z" fill="#BD32B2"/>
<path d="M51.84 3.60938L53.2 40.9494H52.61L51.25 3.60938H51.84Z" fill="#BC32B3"/>
<path d="M52.4298 3.60938L53.7898 40.9494H53.1998L51.8398 3.60938H52.4298Z" fill="#BB32B4"/>
<path d="M53.0197 3.60938L54.3797 40.9494H53.7897L52.4297 3.60938H53.0197Z" fill="#BA32B5"/>
<path d="M53.6105 3.60938L54.9705 40.9494H54.3805L53.0205 3.60938H53.6105Z" fill="#B932B6"/>
<path d="M54.2004 3.60938L55.5604 40.9494H54.9704L53.6104 3.60938H54.2004Z" fill="#B832B7"/>
<path d="M54.7902 3.60938L56.1502 40.9494H55.5602L54.2002 3.60938H54.7902Z" fill="#B732B8"/>
<path d="M55.38 3.60938L56.74 40.9494H56.15L54.79 3.60938H55.38Z" fill="#B632B9"/>
<path d="M55.9699 3.60938L57.3299 40.9494H56.7399L55.3799 3.60938H55.9699Z" fill="#B532BA"/>
<path d="M56.5597 3.60938L57.9197 40.9494H57.3297L55.9697 3.60938H56.5597Z" fill="#B432BB"/>
<path d="M57.1405 3.60938L58.5105 40.9494H57.9205L56.5605 3.60938H57.1405Z" fill="#B332BC"/>
<path d="M57.7296 3.60938L59.0996 40.9494H58.5096L57.1396 3.60938H57.7296Z" fill="#B231BD"/>
<path d="M58.3205 3.60938L59.6905 40.9494H59.1005L57.7305 3.60938H58.3205Z" fill="#B131BE"/>
<path d="M58.9103 3.60938L60.2803 40.9494H59.6903L58.3203 3.60938H58.9103Z" fill="#B031BF"/>
<path d="M59.5002 3.60938L60.8602 40.9494H60.2802L58.9102 3.60938H59.5002Z" fill="#AF31C0"/>
<path d="M60.09 3.60938L61.45 40.9494H60.86L59.5 3.60938H60.09Z" fill="#AE31C1"/>
<path d="M60.6798 3.60938L62.0398 40.9494H61.4498L60.0898 3.60938H60.6798Z" fill="#AE31C2"/>
<path d="M61.2697 3.60938L62.6297 40.9494H62.0397L60.6797 3.60938H61.2697Z" fill="#AD31C3"/>
<path d="M61.8605 3.60938L63.2205 40.9494H62.6305L61.2705 3.60938H61.8605Z" fill="#AC31C4"/>
<path d="M62.4504 3.60938L63.8104 40.9494H63.2204L61.8604 3.60938H62.4504Z" fill="#AB31C5"/>
<path d="M63.0402 3.60938L64.4002 40.9494H63.8102L62.4502 3.60938H63.0402Z" fill="#AA31C6"/>
<path d="M63.63 3.60938L64.99 40.9494H64.4L63.04 3.60938H63.63Z" fill="#A931C7"/>
<path d="M64.2199 3.60938L65.5799 40.9494H64.9899L63.6299 3.60938H64.2199Z" fill="#A831C8"/>
<path d="M64.8097 3.60938L66.1697 40.9494H65.5797L64.2197 3.60938H64.8097Z" fill="#A731C9"/>
<path d="M65.4006 3.60938L66.7606 40.9494H66.1705L64.8105 3.60938H65.4006Z" fill="#A630CA"/>
<path d="M65.9904 3.60938L67.3504 40.9494H66.7604L65.4004 3.60938H65.9904Z" fill="#A530CB"/>
<path d="M66.5802 3.60938L67.9402 40.9494H67.3502L65.9902 3.60938H66.5802Z" fill="#A430CC"/>
<path d="M67.1701 3.60938L68.5301 40.9494H67.9401L66.5801 3.60938H67.1701Z" fill="#A330CD"/>
<path d="M67.7599 3.60938L69.1199 40.9494H68.5299L67.1699 3.60938H67.7599Z" fill="#A230CE"/>
<path d="M68.3498 3.60938L69.7098 40.9494H69.1198L67.7598 3.60938H68.3498Z" fill="#A130CF"/>
<path d="M68.9396 3.60938L70.2996 40.9494H69.7096L68.3496 3.60938H68.9396Z" fill="#A030D0"/>
<path d="M69.5304 3.60938L70.8904 40.9494H70.3004L68.9404 3.60938H69.5304Z" fill="#9F30D1"/>
<path d="M70.1203 3.60938L71.4803 40.9494H70.8903L69.5303 3.60938H70.1203Z" fill="#9E30D2"/>
<path d="M70.7101 3.60938L72.0701 40.9494H71.4801L70.1201 3.60938H70.7101Z" fill="#9D30D3"/>
<path d="M71.3 3.60938L72.66 40.9494H72.07L70.71 3.60938H71.3Z" fill="#9D30D4"/>
<path d="M71.8898 3.60938L73.2498 40.9494H72.6598L71.2998 3.60938H71.8898Z" fill="#9C30D5"/>
<path d="M72.4797 3.60938L73.8396 40.9494H73.2496L71.8896 3.60938H72.4797Z" fill="#9B30D6"/>
<path d="M73.0705 3.60938L74.4305 40.9494H73.8405L72.4805 3.60938H73.0705Z" fill="#9A2FD7"/>
<path d="M73.6603 3.60938L75.0203 40.9494H74.4303L73.0703 3.60938H73.6603Z" fill="#992FD8"/>
<path d="M74.2502 3.60938L75.6102 40.9494H75.0201L73.6602 3.60938H74.2502Z" fill="#982FD9"/>
<path d="M74.84 3.60938L76.2 40.9494H75.61L74.25 3.60938H74.84Z" fill="#972FDA"/>
<path d="M75.4298 3.60938L76.7898 40.9494H76.1998L74.8398 3.60938H75.4298Z" fill="#962FDB"/>
<path d="M76.0197 3.60938L77.3797 40.9494H76.7897L75.4297 3.60938H76.0197Z" fill="#952FDC"/>
<path d="M76.6105 3.60938L77.9705 40.9494H77.3805L76.0205 3.60938H76.6105Z" fill="#942FDD"/>
<path d="M77.9704 40.9494L76.6104 3.60938H80.8503V40.9494H77.9704Z" fill="#942FDD"/>
</g>
<path d="M25.6396 7.48957C25.4696 7.34957 25.3096 7.19957 25.1396 7.05957C25.2096 7.12957 25.3596 7.25957 25.6396 7.48957Z" fill="#231F20"/>
<path d="M0.10996 11.2305C-0.31004 14.8305 0.76996 18.5405 3.60996 21.3205C0.82996 18.4905 -0.29004 14.8105 0.10996 11.2305Z" fill="#231F20"/>
<path d="M67.2101 12.8403C67.8401 12.5803 67.6901 12.6203 67.3001 12.7703C66.8301 12.9903 66.4901 13.1403 67.2101 12.8403Z" fill="#231F20"/>
<path d="M98.5596 21.3296C101.27 18.6696 102.5 14.6696 102.09 10.8896C102.47 14.6496 101.21 18.6196 98.5596 21.3296Z" fill="#231F20"/>
<path d="M56.35 15.6997C57.79 15.6297 55.69 15.8497 56.35 15.6997Z" fill="#231F20"/>
<path d="M35.1205 12.8804C34.9105 12.8004 34.6905 12.7304 34.4805 12.6504C34.8705 12.8004 35.0605 12.8704 35.1205 12.8804Z" fill="#231F20"/>
<path d="M46.12 15.7295C45.94 15.6995 45.77 15.6695 45.59 15.6395C45.15 15.5895 45.07 15.5695 46.12 15.7295Z" fill="#231F20"/>
<path d="M21.3299 3.6103C18.6099 0.950297 14.6399 -0.309703 10.8799 0.0802969C8.13986 0.380297 5.50986 1.5203 3.59986 3.6103C1.62986 5.7703 0.42986 8.4703 0.10986 11.2303C-0.28014 14.8103 0.82986 18.4803 3.60986 21.3203C13.8399 31.3303 26.4899 37.4403 39.6799 39.6703C37.4499 26.4803 31.3499 13.8303 21.3299 3.6003V3.6103Z" fill="#EB4926"/>
<path d="M102.1 10.8899C101.81 8.14986 100.66 5.51986 98.57 3.60986C96.41 1.63986 93.71 0.42986 90.94 0.10986C87.36 -0.28014 83.69 0.82986 80.85 3.60986C70.84 13.8399 64.73 26.4899 62.5 39.6799C75.69 37.4499 88.34 31.3499 98.57 21.3299C101.23 18.6199 102.48 14.6499 102.1 10.8899Z" fill="#942FDD"/>
</g>
<path d="M134.214 25.3193V75.085H122.217V25.3193H134.214ZM153.56 46.0322V55.2607H130.796V46.0322H153.56ZM155.508 25.3193V34.582H130.796V25.3193H155.508ZM193.275 25.3193H205.272V57.8242C205.272 61.6979 204.464 64.9792 202.846 67.668C201.228 70.334 198.961 72.3506 196.044 73.7178C193.127 75.085 189.698 75.7686 185.756 75.7686C181.859 75.7686 178.43 75.085 175.468 73.7178C172.528 72.3506 170.227 70.334 168.563 67.668C166.923 64.9792 166.103 61.6979 166.103 57.8242V25.3193H178.134V57.8242C178.134 59.875 178.43 61.5498 179.022 62.8486C179.615 64.1247 180.481 65.0589 181.62 65.6514C182.759 66.2438 184.138 66.54 185.756 66.54C187.396 66.54 188.775 66.2438 189.892 65.6514C191.008 65.0589 191.851 64.1247 192.421 62.8486C192.991 61.5498 193.275 59.875 193.275 57.8242V25.3193ZM244.236 61.8574C244.236 61.0827 244.122 60.3877 243.894 59.7725C243.666 59.1344 243.245 58.542 242.63 57.9951C242.014 57.4482 241.126 56.9014 239.963 56.3545C238.824 55.7848 237.32 55.1924 235.452 54.5771C233.264 53.848 231.157 53.0277 229.129 52.1162C227.101 51.182 225.289 50.0996 223.694 48.8691C222.099 47.6159 220.834 46.1576 219.9 44.4941C218.966 42.8079 218.499 40.8483 218.499 38.6152C218.499 36.4733 218.977 34.5479 219.934 32.8389C220.891 31.1071 222.224 29.6374 223.933 28.4297C225.665 27.1992 227.693 26.265 230.017 25.627C232.341 24.9661 234.882 24.6357 237.639 24.6357C241.285 24.6357 244.498 25.2738 247.278 26.5498C250.081 27.8031 252.268 29.5918 253.84 31.916C255.435 34.2174 256.233 36.9404 256.233 40.085H244.304C244.304 38.8317 244.042 37.7266 243.518 36.7695C243.017 35.8125 242.254 35.0605 241.228 34.5137C240.203 33.9668 238.915 33.6934 237.366 33.6934C235.862 33.6934 234.597 33.9212 233.572 34.377C232.546 34.8327 231.772 35.4479 231.248 36.2227C230.724 36.9746 230.462 37.8063 230.462 38.7178C230.462 39.4697 230.667 40.1533 231.077 40.7686C231.51 41.361 232.114 41.9193 232.888 42.4434C233.686 42.9674 234.643 43.4688 235.759 43.9473C236.899 44.4258 238.175 44.8929 239.588 45.3486C242.231 46.1917 244.578 47.1374 246.629 48.1855C248.702 49.2109 250.445 50.3844 251.858 51.7061C253.294 53.0049 254.376 54.486 255.105 56.1494C255.857 57.8128 256.233 59.6927 256.233 61.7891C256.233 64.0221 255.8 66.0046 254.934 67.7363C254.068 69.4681 252.826 70.9378 251.209 72.1455C249.591 73.3304 247.654 74.2305 245.398 74.8457C243.142 75.4609 240.624 75.7686 237.844 75.7686C235.292 75.7686 232.774 75.4495 230.291 74.8115C227.83 74.1507 225.597 73.1481 223.591 71.8037C221.586 70.4365 219.98 68.6934 218.772 66.5742C217.587 64.4323 216.995 61.8916 216.995 58.9521H229.026C229.026 60.4105 229.22 61.641 229.607 62.6436C229.994 63.6462 230.564 64.4551 231.316 65.0703C232.068 65.6628 232.991 66.0957 234.085 66.3691C235.178 66.6198 236.432 66.7451 237.844 66.7451C239.371 66.7451 240.602 66.5286 241.536 66.0957C242.47 65.64 243.154 65.0475 243.587 64.3184C244.019 63.5664 244.236 62.7461 244.236 61.8574ZM280.944 25.3193V75.085H268.981V25.3193H280.944ZM337.27 49.2109V51.2275C337.27 55.0329 336.735 58.4508 335.664 61.4814C334.616 64.4893 333.123 67.0641 331.186 69.2061C329.249 71.3252 326.959 72.9544 324.316 74.0938C321.673 75.2103 318.756 75.7686 315.566 75.7686C312.353 75.7686 309.414 75.2103 306.748 74.0938C304.105 72.9544 301.803 71.3252 299.844 69.2061C297.907 67.0641 296.403 64.4893 295.332 61.4814C294.284 58.4508 293.76 55.0329 293.76 51.2275V49.2109C293.76 45.4056 294.284 41.9876 295.332 38.957C296.403 35.9264 297.895 33.3516 299.809 31.2324C301.746 29.0905 304.036 27.4613 306.68 26.3447C309.346 25.2054 312.285 24.6357 315.498 24.6357C318.688 24.6357 321.605 25.2054 324.248 26.3447C326.914 27.4613 329.215 29.0905 331.152 31.2324C333.089 33.3516 334.593 35.9264 335.664 38.957C336.735 41.9876 337.27 45.4056 337.27 49.2109ZM325.102 51.2275V49.1426C325.102 46.6816 324.886 44.5169 324.453 42.6484C324.043 40.7572 323.428 39.1735 322.607 37.8975C321.787 36.6214 320.773 35.6644 319.565 35.0264C318.38 34.3656 317.025 34.0352 315.498 34.0352C313.903 34.0352 312.513 34.3656 311.328 35.0264C310.143 35.6644 309.152 36.6214 308.354 37.8975C307.557 39.1735 306.953 40.7572 306.543 42.6484C306.155 44.5169 305.962 46.6816 305.962 49.1426V51.2275C305.962 53.6657 306.155 55.8304 306.543 57.7217C306.953 59.5902 307.557 61.1738 308.354 62.4727C309.175 63.7715 310.177 64.7513 311.362 65.4121C312.57 66.0729 313.971 66.4033 315.566 66.4033C317.093 66.4033 318.449 66.0729 319.634 65.4121C320.819 64.7513 321.81 63.7715 322.607 62.4727C323.428 61.1738 324.043 59.5902 324.453 57.7217C324.886 55.8304 325.102 53.6657 325.102 51.2275ZM390.829 25.3193V75.085H378.866L361.263 44.1182V75.085H349.266V25.3193H361.263L378.866 56.2861V25.3193H390.829Z" fill="#072764"/>
<path d="M431.193 25.3193H443.19V57.8242C443.19 61.6979 442.382 64.9792 440.764 67.668C439.146 70.334 436.879 72.3506 433.962 73.7178C431.045 75.085 427.616 75.7686 423.674 75.7686C419.777 75.7686 416.348 75.085 413.386 73.7178C410.446 72.3506 408.145 70.334 406.481 67.668C404.841 64.9792 404.021 61.6979 404.021 57.8242V25.3193H416.052V57.8242C416.052 59.875 416.348 61.5498 416.94 62.8486C417.533 64.1247 418.399 65.0589 419.538 65.6514C420.677 66.2438 422.056 66.54 423.674 66.54C425.314 66.54 426.693 66.2438 427.81 65.6514C428.926 65.0589 429.769 64.1247 430.339 62.8486C430.909 61.5498 431.193 59.875 431.193 57.8242V25.3193ZM469.268 25.3193V75.085H457.305V25.3193H469.268Z" fill="#0D4BBF"/>
<defs>
<clipPath id="clip0_3907_35170">
<rect width="102.17" height="102.17" fill="white"/>
</clipPath>
</defs>
</svg>
