<?xml version="1.0" encoding="UTF-8"?><svg id="Layer_1" xmlns="http://www.w3.org/2000/svg" xmlns:xlink="http://www.w3.org/1999/xlink" viewBox="0 0 491.78 491.78"><defs><style>.cls-1,.cls-2,.cls-3,.cls-4,.cls-5{fill:none;}.cls-2{clip-path:url(#clippath-3);}.cls-3{clip-path:url(#clippath-2);}.cls-4{clip-path:url(#clippath-1);}.cls-6{fill:#f4a53b;}.cls-7{fill:#f4aa3c;}.cls-8{fill:#f4a83c;}.cls-9{fill:#f4a93c;}.cls-10{fill:#f4af3e;}.cls-11{fill:#f4a63b;}.cls-12{fill:#f4ab3d;}.cls-13{fill:#f4a73c;}.cls-14{fill:#f4ae3d;}.cls-15{fill:#f4ac3d;}.cls-16{fill:#f4ad3d;}.cls-17{fill:#f3a43b;}.cls-18{fill:#f39f3a;}.cls-19{fill:#f3a03a;}.cls-20{fill:#f3a13a;}.cls-21{fill:#f39e3a;}.cls-22{fill:#f3a33b;}.cls-23{fill:#f3a23b;}.cls-24{fill:#f39c39;}.cls-25{fill:#f39d39;}.cls-26{fill:#69ab33;}.cls-27{fill:#68aa33;}.cls-28{fill:#66a932;}.cls-29{fill:#f08333;}.cls-30{fill:#f07c32;}.cls-31{fill:#f07a31;}.cls-32{fill:#f07b32;}.cls-33{fill:#ed5e2b;}.cls-34{fill:#ed5f2b;}.cls-35{fill:#ed602b;}.cls-36{fill:#ed612c;}.cls-37{fill:#ed622c;}.cls-38{fill:#ed632c;}.cls-39{fill:#f29a39;}.cls-40{fill:#f29938;}.cls-41{fill:#f29137;}.cls-42{fill:#f29036;}.cls-43{fill:#f29838;}.cls-44{fill:#f29738;}.cls-45{fill:#f29638;}.cls-46{fill:#f29538;}.cls-47{fill:#f29437;}.cls-48{fill:#f29337;}.cls-49{fill:#f29237;}.cls-50{fill:#f5b23e;}.cls-51{fill:#f5b33f;}.cls-52{fill:#ec592a;}.cls-53{fill:#ec582a;}.cls-54{fill:#f5b53f;}.cls-55{fill:#f5b43f;}.cls-56{fill:#f5b03e;}.cls-57{fill:#f5b13e;}.cls-58{fill:#ea3681;}.cls-59{fill:#e93682;}.cls-60{fill:#eb4e27;}.cls-61{fill:#eb4926;}.cls-62{fill:#e63685;}.cls-63{fill:#ee642c;}.cls-64{fill:#eb4c27;}.cls-65{fill:#eb4b26;}.cls-66{fill:#eb4d27;}.cls-67{fill:#eb4a26;}.cls-68{fill:#ef7931;}.cls-69{fill:#ef6f2f;}.cls-70{fill:#ef702f;}.cls-71{fill:#ef7530;}.cls-72{fill:#ef7631;}.cls-73{fill:#ef7731;}.cls-74{fill:#ef7831;}.cls-75{fill:#ef7330;}.cls-76{fill:#ef7230;}.cls-77{fill:#ef7430;}.cls-78{fill:#ef712f;}.cls-79{fill:#ec5328;}.cls-80{fill:#ec5529;}.cls-81{fill:#ec5429;}.cls-82{fill:#ec4f27;}.cls-83{fill:#ec5228;}.cls-84{fill:#ec5629;}.cls-85{fill:#ec5028;}.cls-86{fill:#ec5128;}.cls-87{fill:#ec5729;}.cls-88{fill:#f08133;}.cls-89{fill:#f39b39;}.cls-90{fill:#f07e32;}.cls-91{fill:#f08434;}.cls-92{fill:#f07d32;}.cls-93{fill:#f08233;}.cls-94{fill:#f08033;}.cls-95{fill:#ee662d;}.cls-96{fill:#ee682d;}.cls-97{fill:#ee6b2e;}.cls-98{fill:#ee6d2e;}.cls-99{fill:#ee6a2e;}.cls-100{fill:#ee672d;}.cls-101{fill:#ee6c2e;}.cls-102{fill:#ee692d;}.cls-103{fill:#e73684;}.cls-104{fill:#e83683;}.cls-105{fill:#ed5a2a;}.cls-106{fill:#ed5b2a;}.cls-107{fill:#ed5c2a;}.cls-108{fill:#ed5d2b;}.cls-109{fill:#ee652d;}.cls-110{fill:#ee6e2f;}.cls-111{fill:#f18834;}.cls-112{fill:#f18534;}.cls-113{fill:#f18a35;}.cls-114{fill:#e53686;}.cls-115{fill:#f18634;}.cls-116{fill:#f18b35;}.cls-117{fill:#f18734;}.cls-118{fill:#f18f36;}.cls-119{fill:#f18e36;}.cls-120{fill:#f18d36;}.cls-121{fill:#f18c35;}.cls-122{fill:#f18935;}.cls-123{fill:#7db537;}.cls-124{fill:#6aab33;}.cls-125{fill:#7fb638;}.cls-126{fill:#80b738;}.cls-127{fill:#7eb637;}.cls-128{fill:#73b035;}.cls-129{fill:#67a932;}.cls-130{fill:#64a832;}.cls-131{fill:#9a2fd7;}.cls-132{fill:#95c33d;}.cls-133{fill:#982fd9;}.cls-134{fill:#6bac33;}.cls-135{fill:#9b30d6;}.cls-136{fill:#992fd8;}.cls-137{fill:#9ac63e;}.cls-138{fill:#97c43d;}.cls-139{fill:#8abd3a;}.cls-140{fill:#9ec83f;}.cls-141{fill:#9dc73e;}.cls-142{fill:#a130cf;}.cls-143{fill:#a230ce;}.cls-144{fill:#a030d0;}.cls-145{fill:#9fc83f;}.cls-146{fill:#83b938;}.cls-147{fill:#a2ca3f;}.cls-148{fill:#84b939;}.cls-149{fill:#91c13c;}.cls-150{fill:#952fdc;}.cls-151{fill:#b632b9;}.cls-152{fill:#89bc3a;}.cls-153{fill:#b932b6;}.cls-154{fill:#9cc73e;}.cls-155{fill:#ba32b5;}.cls-156{fill:#9bc63e;}.cls-157{fill:#b732b8;}.cls-158{fill:#9f30d1;}.cls-159{fill:#9e30d2;}.cls-160{fill:#a0c93f;}.cls-161{fill:#bb32b4;}.cls-162{fill:#8fbf3b;}.cls-163{fill:#c433a9;}.cls-164{fill:#b532ba;}.cls-165{fill:#90c03b;}.cls-166{fill:#8ebf3b;}.cls-167{fill:#b832b7;}.cls-168{fill:#c333aa;}.cls-169{fill:#65a832;}.cls-170{fill:#72b035;}.cls-171{fill:#bc32b3;}.cls-172{fill:#3286f3;}.cls-173{fill:#3285f3;}.cls-174{fill:#3184f3;}.cls-175{fill:#2f81f3;}.cls-176{fill:#2f80f3;}.cls-177{fill:#8bbd3a;}.cls-178{fill:#8dbe3b;}.cls-179{fill:#8cbe3a;}.cls-180{fill:#942fdd;}.cls-181{fill:#92c13c;}.cls-182{fill:#cf349e;}.cls-183{fill:#d0349c;}.cls-184{fill:#d0349d;}.cls-185{fill:#d1349b;}.cls-186{fill:#a3cb40;}.cls-187{fill:#b332bc;}.cls-188{fill:#ad31c3;}.cls-189{fill:#a8cd41;}.cls-190{fill:#a530cb;}.cls-191{fill:#aa31c6;}.cls-192{fill:#b432bb;}.cls-193{fill:#a731c9;}.cls-194{fill:#a9ce41;}.cls-195{fill:#ab31c5;}.cls-196{fill:#bd32b2;}.cls-197{fill:#a5cc40;}.cls-198{fill:#b131be;}.cls-199{fill:#af31c0;}.cls-200{fill:#b231bd;}.cls-201{fill:#da3592;}.cls-202{fill:#a4cb40;}.cls-203{fill:#a630ca;}.cls-204{fill:#b031bf;}.cls-205{fill:#bf32b0;}.cls-206{fill:#be32b1;}.cls-207{fill:#a6cc40;}.cls-208{fill:#a831c8;}.cls-209{fill:#bf33ae;}.cls-210{fill:#c133ac;}.cls-211{fill:#ac31c4;}.cls-212{fill:#c233ab;}.cls-213{fill:#d93593;}.cls-214{fill:#c033ad;}.cls-215{fill:#c733a6;}.cls-216{fill:#ce349f;}.cls-217{fill:#c533a8;}.cls-218{fill:#cc34a1;}.cls-219{fill:#cb33a2;}.cls-220{fill:#d2349a;}.cls-221{fill:#dd358f;}.cls-222{fill:#e0358c;}.cls-223{fill:#df358d;}.cls-224{fill:#cd34a0;}.cls-225{fill:#d43498;}.cls-226{fill:#d33499;}.cls-227{fill:#e1358b;}.cls-228{fill:#e1358a;}.cls-229{fill:#c633a7;}.cls-230{fill:#c833a5;}.cls-231{fill:#d63496;}.cls-232{fill:#d73495;}.cls-233{fill:#de358e;}.cls-234{fill:#d53497;}.cls-235{fill:#dc3590;}.cls-236{fill:#db3591;}.cls-237{fill:#e23589;}.cls-238{fill:#ae31c2;}.cls-239{fill:#ae31c1;}.cls-240{fill:#c933a4;}.cls-241{fill:#e43687;}.cls-242{fill:#e33588;}.cls-243{fill:#ca33a3;}.cls-244{fill:#d83594;}.cls-245{fill:#a7cd41;}.cls-246{fill:#a931c7;}.cls-247{fill:#246ff1;}.cls-248{fill:#246ef1;}.cls-249{fill:#236df1;}.cls-250{fill:#231f20;}.cls-251{fill:#2169f0;}.cls-252{fill:#216af0;}.cls-253{fill:#2068f0;}.cls-254{fill:#226bf0;}.cls-255{fill:#226cf0;}.cls-256{fill:#3f9cf6;}.cls-257{fill:#409ef6;}.cls-258{fill:#409df6;}.cls-259{fill:#419ff6;}.cls-260{fill:#41a0f6;}.cls-261{fill:#358bf4;}.cls-262{fill:#358af4;}.cls-263{fill:#368cf4;}.cls-264{fill:#42a1f6;}.cls-265{fill:#43a2f6;}.cls-266{fill:#43a3f6;}.cls-267{fill:#3d99f5;}.cls-268{fill:#3d98f5;}.cls-269{fill:#3e9af5;}.cls-270{fill:#3e9bf5;}.cls-271{fill:#3c97f5;}.cls-272{fill:#93c23c;}.cls-273{fill:#96c33d;}.cls-274{fill:#962fdb;}.cls-275{fill:#6dad34;}.cls-276{fill:#9d30d3;}.cls-277{fill:#9d30d4;}.cls-278{fill:#99c53d;}.cls-279{fill:#6ead34;}.cls-280{fill:#6fae34;}.cls-281{fill:#a1ca3f;}.cls-282{fill:#a330cd;}.cls-283{fill:#70af34;}.cls-284{fill:#a430cc;}.cls-285{fill:#98c43d;}.cls-286{fill:#972fda;}.cls-287{fill:#94c23c;}.cls-288{fill:#539e2e;}.cls-289{fill:#45a6f7;}.cls-290{fill:#86ba39;}.cls-291{fill:#88bb3a;}.cls-292{fill:#87bb39;}.cls-293{fill:#6cac34;}.cls-294{fill:#85ba39;}.cls-295{fill:#9c30d5;}.cls-296{fill:#81b838;}.cls-297{fill:#63a731;}.cls-298{fill:#549f2e;}.cls-299{fill:#62a731;}.cls-300{fill:#61a631;}.cls-301{fill:#5aa22f;}.cls-302{fill:#2773f1;}.cls-303{fill:#2774f1;}.cls-304{fill:#58a12f;}.cls-305{fill:#2976f2;}.cls-306{fill:#2977f2;}.cls-307{fill:#2a78f2;}.cls-308{fill:#2a79f2;}.cls-309{fill:#559f2e;}.cls-310{fill:#2c7bf2;}.cls-311{fill:#2c7cf2;}.cls-312{fill:#5ba330;}.cls-313{fill:#49adf7;}.cls-314{fill:#49acf7;}.cls-315{fill:#2875f1;}.cls-316{fill:#47a9f7;}.cls-317{fill:#2b7af2;}.cls-318{fill:#3992f4;}.cls-319{fill:#3489f4;}.cls-320{fill:#2d7ef2;}.cls-321{fill:#2d7df2;}.cls-322{fill:#3b96f5;}.cls-323{fill:#2e7ff2;}.cls-324{fill:#3891f4;}.cls-325{fill:#3083f3;}.cls-326{fill:#3082f3;}.cls-327{fill:#2570f1;}.cls-328{fill:#2571f1;}.cls-329{fill:#3a93f5;}.cls-330{fill:#3a94f5;}.cls-331{fill:#378ef4;}.cls-332{fill:#378ff4;}.cls-333{fill:#3387f3;}.cls-334{fill:#3388f3;}.cls-335{fill:#59a22f;}.cls-336{fill:#3890f4;}.cls-337{fill:#57a02f;}.cls-338{fill:#56a02f;}.cls-339{fill:#3b95f5;}.cls-340{fill:#4baff8;}.cls-341{fill:#4aaef7;}.cls-342{fill:#60a631;}.cls-343{fill:#48aaf7;}.cls-344{fill:#48abf7;}.cls-345{fill:#5ea430;}.cls-346{fill:#5da430;}.cls-347{fill:#529e2e;}.cls-348{fill:#5ca330;}.cls-349{fill:#44a5f6;}.cls-350{fill:#44a4f6;}.cls-351{fill:#75b136;}.cls-352{fill:#76b236;}.cls-353{fill:#78b336;}.cls-354{fill:#79b436;}.cls-355{fill:#5fa531;}.cls-356{fill:#71af35;}.cls-357{fill:#4bb0f8;}.cls-358{fill:#46a7f7;}.cls-359{fill:#519d2d;}.cls-360{fill:#46a8f7;}.cls-361{fill:#77b236;}.cls-362{fill:#4f9c2d;}.cls-363{fill:#82b838;}.cls-364{fill:#4cb1f8;}.cls-365{fill:#4c9e2d;}.cls-366{fill:#7bb537;}.cls-367{fill:#4cb2f8;}.cls-368{fill:#74b135;}.cls-369{fill:#2672f1;}.cls-370{fill:#509d2d;}.cls-371{fill:#4db3f8;}.cls-372{fill:#7ab437;}.cls-5{clip-path:url(#clippath);}</style><clipPath id="clippath"><path class="cls-1" d="m190.96,300.82c-10.73,63.47-40.11,124.37-88.31,173.6,6.01-5.89,12.28-11.42,18.63-16.93.39-.34.69-.61.96-.85-.25.18-.5.35-.75.53-7.35,5.27,5.51-4.78.75-.53,3.45-2.47,6.93-4.9,10.49-7.21,6.05-3.92,12.26-7.6,18.61-11.01,3.95-2.12,7.97-4.04,11.98-6.03.46-.23,2.72-1.24,4.55-2.07-1.9.71-2.6.93.42-.33,3.45-1.45,1.86-.7-.42.33,2.55-.95,7.28-2.78,8.07-3.05,3.34-1.14,6.7-2.22,10.08-3.22,7.58-2.25,15.27-4.16,23.02-5.71,3.44-.69,6.9-1.25,10.35-1.87.51-.09.86-.16,1.14-.23-6.94.34,3.18-.71,0,0,.5-.02,1.1-.06,1.79-.1,7.87-.46,15.67-1.04,23.57-1.04,7,0,13.97.37,20.95.83,1.91.13,4.09.38,5.51.55-.85-.14-1.7-.3-2.56-.44,5.06.78,4.69.7,2.56.44,2.61.42,5.21.83,7.8,1.33,14.47,2.76,28.76,6.78,42.56,11.97.31.07,1.23.39,3.09,1.12-1.02-.4-2.06-.74-3.09-1.12-1.56-.35,12.93,6.13,15.33,7.39,6.38,3.34,12.61,6.95,18.7,10.8,2.56,1.63,16.09,11.84,14,9.81-.81-.68-1.58-1.39-2.39-2.07,1.32,1.1,2.05,1.73,2.39,2.07,6.32,5.35,12.45,10.83,18.38,16.63-48.2-49.23-77.58-110.12-88.31-173.6-36.34-6.14-73.51-6.14-109.86,0Z"/></clipPath><clipPath id="clippath-1"><path class="cls-1" d="m190.96,190.96c-63.47-10.73-124.37-40.11-173.6-88.31,5.89,6.01,11.42,12.28,16.93,18.63.34.39.61.69.85.96-.18-.25-.35-.5-.53-.75-5.27-7.35,4.78,5.51.53.75,2.47,3.45,4.9,6.93,7.21,10.49,3.92,6.05,7.6,12.26,11.01,18.61,2.12,3.95,4.04,7.97,6.03,11.98.23.46,1.24,2.73,2.08,4.55-.71-1.9-.94-2.61.33.42,1.45,3.45.7,1.86-.33-.42.95,2.56,2.78,7.28,3.05,8.07,1.14,3.34,2.22,6.7,3.22,10.08,2.25,7.58,4.16,15.27,5.71,23.02.69,3.44,1.25,6.9,1.87,10.35.09.51.16.86.23,1.14-.34-6.94.71,3.18,0,0,.02.5.06,1.1.1,1.79.46,7.87,1.04,15.67,1.04,23.56,0,7-.37,13.97-.83,20.95-.13,1.91-.38,4.09-.55,5.5.14-.85.3-1.7.44-2.55-.79,5.06-.7,4.68-.44,2.55-.42,2.61-.84,5.22-1.33,7.81-2.76,14.47-6.78,28.76-11.97,42.56-.07.31-.39,1.23-1.12,3.09.4-1.02.74-2.06,1.12-3.09.35-1.56-6.13,12.93-7.39,15.33-3.34,6.38-6.95,12.61-10.8,18.7-1.63,2.56-11.84,16.09-9.81,14,.68-.81,1.39-1.58,2.07-2.39-1.1,1.32-1.73,2.05-2.07,2.39-5.35,6.32-10.83,12.45-16.63,18.38,49.23-48.2,110.12-77.58,173.6-88.31,6.14-36.34,6.14-73.51,0-109.86Z"/></clipPath><clipPath id="clippath-2"><path class="cls-1" d="m300.82,300.82c63.47,10.73,124.37,40.11,173.6,88.31-5.89-6.01-11.42-12.28-16.93-18.63-.34-.39-.61-.69-.85-.96.18.25.35.5.53.75,5.27,7.35-4.78-5.51-.53-.75-2.47-3.45-4.9-6.93-7.21-10.49-3.92-6.05-7.6-12.26-11.01-18.61-2.12-3.95-4.04-7.97-6.03-11.98-.23-.46-1.24-2.72-2.07-4.55.71,1.9.93,2.6-.33-.42-1.45-3.45-.7-1.86.33.42-.95-2.55-2.78-7.28-3.05-8.07-1.14-3.34-2.22-6.7-3.22-10.08-2.25-7.58-4.16-15.27-5.71-23.02-.69-3.44-1.25-6.9-1.87-10.35-.09-.51-.16-.86-.23-1.14.34,6.94-.71-3.18,0,0-.02-.5-.06-1.1-.1-1.79-.46-7.87-1.04-15.67-1.04-23.56,0-7,.37-13.97.83-20.95.13-1.91.38-4.09.55-5.51-.14.85-.3,1.7-.44,2.56.78-5.06.7-4.68.44-2.56.42-2.61.83-5.21,1.33-7.81,2.76-14.47,6.78-28.76,11.97-42.57.07-.31.39-1.23,1.12-3.09-.4,1.02-.74,2.06-1.12,3.09-.35,1.56,6.13-12.93,7.39-15.33,3.34-6.38,6.95-12.62,10.8-18.7,1.63-2.56,11.84-16.09,9.81-14-.68.81-1.39,1.58-2.07,2.39,1.1-1.32,1.73-2.05,2.07-2.39,5.35-6.32,10.83-12.45,16.63-18.38-49.23,48.2-110.12,77.58-173.6,88.31-6.14,36.34-6.14,73.51,0,109.86Z"/></clipPath><clipPath id="clippath-3"><path class="cls-1" d="m300.82,190.96c10.73-63.47,40.11-124.37,88.31-173.6-6.01,5.89-12.28,11.42-18.63,16.93-.39.34-.69.61-.96.85.25-.18.51-.35.76-.53,7.35-5.27-5.51,4.78-.76.53-3.45,2.47-6.93,4.9-10.49,7.21-6.05,3.92-12.26,7.6-18.61,11.01-3.95,2.12-7.97,4.04-11.98,6.03-.46.23-2.72,1.24-4.55,2.07,1.9-.71,2.6-.93-.42.33-3.45,1.45-1.86.7.42-.33-2.55.95-7.28,2.78-8.07,3.05-3.34,1.14-6.7,2.22-10.08,3.22-7.58,2.25-15.27,4.16-23.02,5.71-3.44.69-6.9,1.25-10.35,1.87-.51.09-.86.16-1.14.23,6.94-.34-3.18.71,0,0-.5.02-1.1.06-1.79.1-7.87.46-15.67,1.04-23.56,1.04-7,0-13.97-.37-20.95-.83-1.91-.13-4.09-.38-5.51-.55.85.14,1.7.3,2.56.44-5.06-.78-4.68-.7-2.56-.44-2.61-.42-5.21-.84-7.81-1.33-14.47-2.76-28.76-6.78-42.56-11.97-.31-.07-1.23-.39-3.09-1.12,1.02.4,2.06.74,3.09,1.12,1.56.35-12.93-6.13-15.33-7.39-6.38-3.34-12.61-6.95-18.7-10.8-2.56-1.63-16.09-11.84-14-9.81.81.68,1.58,1.39,2.39,2.07-1.32-1.1-2.05-1.73-2.39-2.07-6.32-5.35-12.45-10.83-18.38-16.63,48.2,49.23,77.58,110.12,88.31,173.6,36.34,6.14,73.51,6.14,109.86,0Z"/></clipPath></defs><path class="cls-1" d="m190.96,190.96c6.14,36.34,6.14,73.51,0,109.86,36.34-6.14,73.51-6.14,109.86,0-6.14-36.34-6.14-73.51,0-109.86-36.34,6.14-73.51,6.14-109.86,0Z"/><path class="cls-250" d="m368.36,455.72c.81.68,1.59,1.39,2.39,2.07-.35-.34-1.07-.97-2.39-2.07Z"/><path class="cls-250" d="m269.79,416.04c.86.13,1.71.3,2.56.44,2.13.26,2.5.35-2.56-.44Z"/><path class="cls-250" d="m491.25,437.76c2.03-17.35-3.16-35.25-16.83-48.64,13.4,13.68,18.75,31.41,16.83,48.64Z"/><g class="cls-5"><polygon class="cls-194" points="372.66 474.42 356.54 294.68 389.13 294.68 389.13 474.42 372.66 474.42"/><polygon class="cls-194" points="369.74 474.42 353.63 294.68 356.54 294.68 372.66 474.42 369.74 474.42"/><polygon class="cls-189" points="366.83 474.42 350.72 294.68 353.63 294.68 369.74 474.42 366.83 474.42"/><polygon class="cls-245" points="363.92 474.42 347.81 294.68 350.72 294.68 366.83 474.42 363.92 474.42"/><polygon class="cls-207" points="361.01 474.42 344.9 294.68 347.81 294.68 363.92 474.42 361.01 474.42"/><polygon class="cls-197" points="358.1 474.42 341.98 294.68 344.9 294.68 361.01 474.42 358.1 474.42"/><polygon class="cls-202" points="355.19 474.42 339.07 294.68 341.98 294.68 358.1 474.42 355.19 474.42"/><polygon class="cls-186" points="352.27 474.42 336.16 294.68 339.07 294.68 355.19 474.42 352.27 474.42"/><polygon class="cls-147" points="349.36 474.42 333.25 294.68 336.16 294.68 352.27 474.42 349.36 474.42"/><polygon class="cls-281" points="346.45 474.42 330.34 294.68 333.25 294.68 349.36 474.42 346.45 474.42"/><polygon class="cls-160" points="343.54 474.42 327.42 294.68 330.34 294.68 346.45 474.42 343.54 474.42"/><polygon class="cls-145" points="340.63 474.42 324.51 294.68 327.42 294.68 343.54 474.42 340.63 474.42"/><polygon class="cls-140" points="337.71 474.42 321.6 294.68 324.51 294.68 340.63 474.42 337.71 474.42"/><polygon class="cls-141" points="334.8 474.42 318.69 294.68 321.6 294.68 337.71 474.42 334.8 474.42"/><polygon class="cls-154" points="331.89 474.42 315.78 294.68 318.69 294.68 334.8 474.42 331.89 474.42"/><polygon class="cls-156" points="328.98 474.42 312.87 294.68 315.78 294.68 331.89 474.42 328.98 474.42"/><polygon class="cls-137" points="326.07 474.42 309.95 294.68 312.87 294.68 328.98 474.42 326.07 474.42"/><polygon class="cls-278" points="323.15 474.42 307.04 294.68 309.95 294.68 326.07 474.42 323.15 474.42"/><polygon class="cls-285" points="320.24 474.42 304.13 294.68 307.04 294.68 323.15 474.42 320.24 474.42"/><polygon class="cls-138" points="317.33 474.42 301.22 294.68 304.13 294.68 320.24 474.42 317.33 474.42"/><polygon class="cls-273" points="314.42 474.42 298.31 294.68 301.22 294.68 317.33 474.42 314.42 474.42"/><polygon class="cls-132" points="311.51 474.42 295.39 294.68 298.31 294.68 314.42 474.42 311.51 474.42"/><polygon class="cls-287" points="308.6 474.42 292.48 294.68 295.39 294.68 311.51 474.42 308.6 474.42"/><polygon class="cls-272" points="305.68 474.42 289.57 294.68 292.48 294.68 308.6 474.42 305.68 474.42"/><polygon class="cls-181" points="302.77 474.42 286.66 294.68 289.57 294.68 305.68 474.42 302.77 474.42"/><polygon class="cls-149" points="299.86 474.42 283.75 294.68 286.66 294.68 302.77 474.42 299.86 474.42"/><polygon class="cls-165" points="296.95 474.42 280.84 294.68 283.75 294.68 299.86 474.42 296.95 474.42"/><polygon class="cls-162" points="294.04 474.42 277.92 294.68 280.84 294.68 296.95 474.42 294.04 474.42"/><polygon class="cls-166" points="291.12 474.42 275.01 294.68 277.92 294.68 294.04 474.42 291.12 474.42"/><polygon class="cls-178" points="288.21 474.42 272.1 294.68 275.01 294.68 291.12 474.42 288.21 474.42"/><polygon class="cls-179" points="285.3 474.42 269.19 294.68 272.1 294.68 288.21 474.42 285.3 474.42"/><polygon class="cls-177" points="282.39 474.42 266.28 294.68 269.19 294.68 285.3 474.42 282.39 474.42"/><polygon class="cls-139" points="279.48 474.42 263.36 294.68 266.28 294.68 282.39 474.42 279.48 474.42"/><polygon class="cls-152" points="276.57 474.42 260.45 294.68 263.36 294.68 279.48 474.42 276.57 474.42"/><polygon class="cls-291" points="273.65 474.42 257.54 294.68 260.45 294.68 276.57 474.42 273.65 474.42"/><polygon class="cls-292" points="270.74 474.42 254.63 294.68 257.54 294.68 273.65 474.42 270.74 474.42"/><polygon class="cls-290" points="267.83 474.42 251.72 294.68 254.63 294.68 270.74 474.42 267.83 474.42"/><polygon class="cls-294" points="264.92 474.42 248.8 294.68 251.72 294.68 267.83 474.42 264.92 474.42"/><polygon class="cls-148" points="262.01 474.42 245.89 294.68 248.8 294.68 264.92 474.42 262.01 474.42"/><polygon class="cls-146" points="259.09 474.42 242.98 294.68 245.89 294.68 262.01 474.42 259.09 474.42"/><polygon class="cls-363" points="256.18 474.42 240.07 294.68 242.98 294.68 259.09 474.42 256.18 474.42"/><polygon class="cls-296" points="253.27 474.42 237.16 294.68 240.07 294.68 256.18 474.42 253.27 474.42"/><polygon class="cls-126" points="250.36 474.42 234.25 294.68 237.16 294.68 253.27 474.42 250.36 474.42"/><polygon class="cls-125" points="247.45 474.42 231.33 294.68 234.25 294.68 250.36 474.42 247.45 474.42"/><polygon class="cls-127" points="244.53 474.42 228.42 294.68 231.33 294.68 247.45 474.42 244.53 474.42"/><polygon class="cls-123" points="241.62 474.42 225.51 294.68 228.42 294.68 244.53 474.42 241.62 474.42"/><polygon class="cls-366" points="238.71 474.42 222.6 294.68 225.51 294.68 241.62 474.42 238.71 474.42"/><polygon class="cls-372" points="235.8 474.42 219.69 294.68 222.6 294.68 238.71 474.42 235.8 474.42"/><polygon class="cls-354" points="232.89 474.42 216.77 294.68 219.69 294.68 235.8 474.42 232.89 474.42"/><polygon class="cls-353" points="229.98 474.42 213.86 294.68 216.77 294.68 232.89 474.42 229.98 474.42"/><polygon class="cls-361" points="227.06 474.42 210.95 294.68 213.86 294.68 229.98 474.42 227.06 474.42"/><polygon class="cls-352" points="224.15 474.42 208.04 294.68 210.95 294.68 227.06 474.42 224.15 474.42"/><polygon class="cls-351" points="221.24 474.42 205.13 294.68 208.04 294.68 224.15 474.42 221.24 474.42"/><polygon class="cls-368" points="218.33 474.42 202.21 294.68 205.13 294.68 221.24 474.42 218.33 474.42"/><polygon class="cls-128" points="215.42 474.42 199.3 294.68 202.21 294.68 218.33 474.42 215.42 474.42"/><polygon class="cls-170" points="212.5 474.42 196.39 294.68 199.3 294.68 215.42 474.42 212.5 474.42"/><polygon class="cls-356" points="209.59 474.42 193.48 294.68 196.39 294.68 212.5 474.42 209.59 474.42"/><polygon class="cls-283" points="206.68 474.42 190.57 294.68 193.48 294.68 209.59 474.42 206.68 474.42"/><polygon class="cls-280" points="203.77 474.42 187.66 294.68 190.57 294.68 206.68 474.42 203.77 474.42"/><polygon class="cls-279" points="200.86 474.42 184.74 294.68 187.66 294.68 203.77 474.42 200.86 474.42"/><polygon class="cls-275" points="197.95 474.42 181.83 294.68 184.74 294.68 200.86 474.42 197.95 474.42"/><polygon class="cls-293" points="195.03 474.42 178.92 294.68 181.83 294.68 197.95 474.42 195.03 474.42"/><polygon class="cls-134" points="192.12 474.42 176.01 294.68 178.92 294.68 195.03 474.42 192.12 474.42"/><polygon class="cls-124" points="189.21 474.42 173.1 294.68 176.01 294.68 192.12 474.42 189.21 474.42"/><polygon class="cls-26" points="186.3 474.42 170.18 294.68 173.1 294.68 189.21 474.42 186.3 474.42"/><polygon class="cls-27" points="183.39 474.42 167.27 294.68 170.18 294.68 186.3 474.42 183.39 474.42"/><polygon class="cls-129" points="180.47 474.42 164.36 294.68 167.27 294.68 183.39 474.42 180.47 474.42"/><polygon class="cls-28" points="177.56 474.42 161.45 294.68 164.36 294.68 180.47 474.42 177.56 474.42"/><polygon class="cls-169" points="174.65 474.42 158.54 294.68 161.45 294.68 177.56 474.42 174.65 474.42"/><polygon class="cls-130" points="171.74 474.42 155.63 294.68 158.54 294.68 174.65 474.42 171.74 474.42"/><polygon class="cls-297" points="168.83 474.42 152.71 294.68 155.63 294.68 171.74 474.42 168.83 474.42"/><polygon class="cls-299" points="165.91 474.42 149.8 294.68 152.71 294.68 168.83 474.42 165.91 474.42"/><polygon class="cls-300" points="163 474.42 146.89 294.68 149.8 294.68 165.91 474.42 163 474.42"/><polygon class="cls-342" points="160.09 474.42 143.98 294.68 146.89 294.68 163 474.42 160.09 474.42"/><polygon class="cls-355" points="157.18 474.42 141.07 294.68 143.98 294.68 160.09 474.42 157.18 474.42"/><polygon class="cls-345" points="154.27 474.42 138.15 294.68 141.07 294.68 157.18 474.42 154.27 474.42"/><polygon class="cls-346" points="151.36 474.42 135.26 294.85 137.25 294.68 138.15 294.68 154.27 474.42 151.36 474.42"/><polygon class="cls-348" points="148.44 474.42 132.37 295.11 135.26 294.85 151.36 474.42 148.44 474.42"/><polygon class="cls-312" points="145.53 474.42 129.48 295.37 132.37 295.11 148.44 474.42 145.53 474.42"/><polygon class="cls-301" points="142.62 474.42 126.59 295.63 129.48 295.37 145.53 474.42 142.62 474.42"/><polygon class="cls-335" points="139.71 474.42 123.7 295.89 126.59 295.63 142.62 474.42 139.71 474.42"/><polygon class="cls-304" points="136.8 474.42 120.82 296.15 123.7 295.89 139.71 474.42 136.8 474.42"/><polygon class="cls-337" points="133.88 474.42 117.93 296.41 120.82 296.15 136.8 474.42 133.88 474.42"/><polygon class="cls-338" points="130.97 474.42 115.04 296.67 117.93 296.41 133.88 474.42 130.97 474.42"/><polygon class="cls-309" points="128.06 474.42 112.15 296.93 115.04 296.67 130.97 474.42 128.06 474.42"/><polygon class="cls-298" points="125.15 474.42 109.26 297.18 112.15 296.93 128.06 474.42 125.15 474.42"/><polygon class="cls-288" points="122.24 474.42 106.37 297.44 109.26 297.18 125.15 474.42 122.24 474.42"/><polygon class="cls-347" points="119.33 474.42 103.48 297.7 106.37 297.44 122.24 474.42 119.33 474.42"/><polygon class="cls-359" points="116.41 474.42 102.65 320.89 102.65 297.78 103.48 297.7 119.33 474.42 116.41 474.42"/><polygon class="cls-370" points="113.5 474.42 102.65 353.37 102.65 320.89 116.41 474.42 113.5 474.42"/><polygon class="cls-362" points="110.59 474.42 102.65 385.86 102.65 353.37 113.5 474.42 110.59 474.42"/><polygon class="cls-362" points="102.65 385.86 110.59 474.42 102.65 474.42 102.65 385.86"/></g><path class="cls-250" d="m220.54,416.23c3.18-.71-6.94.34,0,0h0Z"/><path class="cls-250" d="m168.29,429.98c-3.02,1.27-2.32,1.04-.42.33,2.28-1.03,3.88-1.78.42-.33Z"/><path class="cls-250" d="m54.07,491.26c-13.32-1.55-26.31-7.34-36.71-16.84,10.58,9.67,23.5,15.39,36.71,16.84Z"/><path class="cls-250" d="m17.36,389.13c-13.06,12.79-18.95,32.05-17,50.24-1.84-18.08,4.22-37.19,17-50.24Z"/><path class="cls-250" d="m121.49,457.17c.25-.18.5-.35.75-.53,4.75-4.25-8.1,5.8-.75.53Z"/><path class="cls-250" d="m322.72,429.78c1.02.39,2.07.72,3.09,1.12-1.86-.73-2.77-1.05-3.09-1.12Z"/><path class="cls-250" d="m474.42,474.42c-9.18,10.05-21.83,15.58-35.04,17,13.13-1.33,25.72-6.8,35.04-17Z"/><path class="cls-250" d="m54.07,491.26c17.33,2.01,35.2-3.18,48.58-16.84-13.67,13.38-31.37,18.74-48.58,16.84Z"/><path class="cls-250" d="m36.06,368.36c-.68.81-1.39,1.59-2.07,2.39.34-.35.97-1.07,2.07-2.39Z"/><g class="cls-4"><polygon class="cls-54" points="17.36 376.66 197.1 359.38 197.1 389.13 17.36 389.13 17.36 376.66"/><polygon class="cls-54" points="17.36 374.23 197.1 356.95 197.1 359.38 17.36 376.66 17.36 374.23"/><polygon class="cls-55" points="17.36 371.8 197.1 354.52 197.1 356.95 17.36 374.23 17.36 371.8"/><polygon class="cls-51" points="17.36 369.37 197.1 352.1 197.1 354.52 17.36 371.8 17.36 369.37"/><polygon class="cls-50" points="17.36 366.94 197.1 349.67 197.1 352.1 17.36 369.37 17.36 366.94"/><polygon class="cls-57" points="17.36 364.52 197.1 347.24 197.1 349.67 17.36 366.94 17.36 364.52"/><polygon class="cls-56" points="17.36 362.09 197.1 344.81 197.1 347.24 17.36 364.52 17.36 362.09"/><polygon class="cls-10" points="17.36 359.66 197.1 342.38 197.1 344.81 17.36 362.09 17.36 359.66"/><polygon class="cls-14" points="17.36 357.23 197.1 339.96 197.1 342.38 17.36 359.66 17.36 357.23"/><polygon class="cls-16" points="17.36 354.8 197.1 337.53 197.1 339.96 17.36 357.23 17.36 354.8"/><polygon class="cls-15" points="17.36 352.38 197.1 335.1 197.1 337.53 17.36 354.8 17.36 352.38"/><polygon class="cls-12" points="17.36 349.95 197.1 332.67 197.1 335.1 17.36 352.38 17.36 349.95"/><polygon class="cls-7" points="17.36 347.52 197.1 330.24 197.1 332.67 17.36 349.95 17.36 347.52"/><polygon class="cls-9" points="17.36 345.09 197.1 327.82 197.1 330.24 17.36 347.52 17.36 345.09"/><polygon class="cls-8" points="17.36 342.66 197.1 325.39 197.1 327.82 17.36 345.09 17.36 342.66"/><polygon class="cls-13" points="17.36 340.24 197.1 322.96 197.1 325.39 17.36 342.66 17.36 340.24"/><polygon class="cls-11" points="17.36 337.81 197.1 320.53 197.1 322.96 17.36 340.24 17.36 337.81"/><polygon class="cls-6" points="17.36 335.38 197.1 318.1 197.1 320.53 17.36 337.81 17.36 335.38"/><polygon class="cls-17" points="17.36 332.95 197.1 315.68 197.1 318.1 17.36 335.38 17.36 332.95"/><polygon class="cls-22" points="17.36 330.52 197.1 313.25 197.1 315.68 17.36 332.95 17.36 330.52"/><polygon class="cls-23" points="17.36 328.1 197.1 310.82 197.1 313.25 17.36 330.52 17.36 328.1"/><polygon class="cls-20" points="17.36 325.67 197.1 308.39 197.1 310.82 17.36 328.1 17.36 325.67"/><polygon class="cls-19" points="17.36 323.24 197.1 305.96 197.1 308.39 17.36 325.67 17.36 323.24"/><polygon class="cls-18" points="17.36 320.81 197.1 303.54 197.1 305.96 17.36 323.24 17.36 320.81"/><polygon class="cls-21" points="17.36 318.38 197.1 301.11 197.1 303.54 17.36 320.81 17.36 318.38"/><polygon class="cls-25" points="17.36 315.96 197.1 298.68 197.1 301.11 17.36 318.38 17.36 315.96"/><polygon class="cls-24" points="17.36 313.53 197.1 296.25 197.1 298.68 17.36 315.96 17.36 313.53"/><polygon class="cls-89" points="17.36 311.1 197.1 293.82 197.1 296.25 17.36 313.53 17.36 311.1"/><polygon class="cls-39" points="17.36 308.67 197.1 291.4 197.1 293.82 17.36 311.1 17.36 308.67"/><polygon class="cls-40" points="17.36 306.24 197.1 288.97 197.1 291.4 17.36 308.67 17.36 306.24"/><polygon class="cls-43" points="17.36 303.82 197.1 286.54 197.1 288.97 17.36 306.24 17.36 303.82"/><polygon class="cls-44" points="17.36 301.39 197.1 284.11 197.1 286.54 17.36 303.82 17.36 301.39"/><polygon class="cls-45" points="17.36 298.96 197.1 281.68 197.1 284.11 17.36 301.39 17.36 298.96"/><polygon class="cls-46" points="17.36 296.53 197.1 279.26 197.1 281.68 17.36 298.96 17.36 296.53"/><polygon class="cls-47" points="17.36 294.1 197.1 276.83 197.1 279.26 17.36 296.53 17.36 294.1"/><polygon class="cls-48" points="17.36 291.68 197.1 274.4 197.1 276.83 17.36 294.1 17.36 291.68"/><polygon class="cls-49" points="17.36 289.25 197.1 271.97 197.1 274.4 17.36 291.68 17.36 289.25"/><polygon class="cls-41" points="17.36 286.82 197.1 269.54 197.1 271.97 17.36 289.25 17.36 286.82"/><polygon class="cls-42" points="17.36 284.39 197.1 267.12 197.1 269.54 17.36 286.82 17.36 284.39"/><polygon class="cls-118" points="17.36 281.96 197.1 264.69 197.1 267.12 17.36 284.39 17.36 281.96"/><polygon class="cls-119" points="17.36 279.54 197.1 262.26 197.1 264.69 17.36 281.96 17.36 279.54"/><polygon class="cls-120" points="17.36 277.11 197.1 259.83 197.1 262.26 17.36 279.54 17.36 277.11"/><polygon class="cls-121" points="17.36 274.68 197.1 257.4 197.1 259.83 17.36 277.11 17.36 274.68"/><polygon class="cls-116" points="17.36 272.25 197.1 254.98 197.1 257.4 17.36 274.68 17.36 272.25"/><polygon class="cls-113" points="17.36 269.82 197.1 252.55 197.1 254.98 17.36 272.25 17.36 269.82"/><polygon class="cls-122" points="17.36 267.4 197.1 250.12 197.1 252.55 17.36 269.82 17.36 267.4"/><polygon class="cls-111" points="17.36 264.97 197.1 247.69 197.1 250.12 17.36 267.4 17.36 264.97"/><polygon class="cls-117" points="17.36 262.54 197.1 245.26 197.1 247.69 17.36 264.97 17.36 262.54"/><polygon class="cls-115" points="17.36 260.11 197.1 242.84 197.1 245.26 17.36 262.54 17.36 260.11"/><polygon class="cls-112" points="17.36 257.68 197.1 240.41 197.1 242.84 17.36 260.11 17.36 257.68"/><polygon class="cls-91" points="17.36 255.26 197.1 237.98 197.1 240.41 17.36 257.68 17.36 255.26"/><polygon class="cls-29" points="17.36 252.83 197.1 235.55 197.1 237.98 17.36 255.26 17.36 252.83"/><polygon class="cls-93" points="17.36 250.4 197.1 233.12 197.1 235.55 17.36 252.83 17.36 250.4"/><polygon class="cls-88" points="17.36 247.97 197.1 230.7 197.1 233.12 17.36 250.4 17.36 247.97"/><polygon class="cls-94" points="17.36 245.54 197.1 228.27 197.1 230.7 17.36 247.97 17.36 245.54"/><polygon class="cls-90" points="17.36 243.12 197.1 225.84 197.1 228.27 17.36 245.54 17.36 243.12"/><polygon class="cls-92" points="17.36 240.69 197.1 223.41 197.1 225.84 17.36 243.12 17.36 240.69"/><polygon class="cls-30" points="17.36 238.26 197.1 220.98 197.1 223.41 17.36 240.69 17.36 238.26"/><polygon class="cls-32" points="17.36 235.83 197.1 218.56 197.1 220.98 17.36 238.26 17.36 235.83"/><polygon class="cls-31" points="17.36 233.4 197.1 216.13 197.1 218.56 17.36 235.83 17.36 233.4"/><polygon class="cls-68" points="17.36 230.98 197.1 213.7 197.1 216.13 17.36 233.4 17.36 230.98"/><polygon class="cls-74" points="17.36 228.55 197.1 211.27 197.1 213.7 17.36 230.98 17.36 228.55"/><polygon class="cls-73" points="17.36 226.12 197.1 208.84 197.1 211.27 17.36 228.55 17.36 226.12"/><polygon class="cls-72" points="17.36 223.69 197.1 206.42 197.1 208.84 17.36 226.12 17.36 223.69"/><polygon class="cls-71" points="17.36 221.26 197.1 203.99 197.1 206.42 17.36 223.69 17.36 221.26"/><polygon class="cls-77" points="17.36 218.84 197.1 201.56 197.1 203.99 17.36 221.26 17.36 218.84"/><polygon class="cls-75" points="17.36 216.41 197.1 199.13 197.1 201.56 17.36 218.84 17.36 216.41"/><polygon class="cls-76" points="17.36 213.98 197.1 196.7 197.1 199.13 17.36 216.41 17.36 213.98"/><polygon class="cls-78" points="17.36 211.55 197.1 194.28 197.1 196.7 17.36 213.98 17.36 211.55"/><polygon class="cls-70" points="17.36 209.12 197.1 191.85 197.1 194.28 17.36 211.55 17.36 209.12"/><polygon class="cls-69" points="17.36 206.7 197.1 189.42 197.1 191.85 17.36 209.12 17.36 206.7"/><polygon class="cls-110" points="17.36 204.27 197.1 186.99 197.1 189.42 17.36 206.7 17.36 204.27"/><polygon class="cls-98" points="17.36 201.84 197.1 184.56 197.1 186.99 17.36 204.27 17.36 201.84"/><polygon class="cls-101" points="17.36 199.41 197.1 182.14 197.1 184.56 17.36 201.84 17.36 199.41"/><polygon class="cls-97" points="17.36 196.98 197.1 179.71 197.1 182.14 17.36 199.41 17.36 196.98"/><polygon class="cls-99" points="17.36 194.56 197.1 177.28 197.1 179.71 17.36 196.98 17.36 194.56"/><polygon class="cls-102" points="17.36 192.13 197.1 174.85 197.1 177.28 17.36 194.56 17.36 192.13"/><polygon class="cls-96" points="17.36 189.7 197.1 172.42 197.1 174.85 17.36 192.13 17.36 189.7"/><polygon class="cls-100" points="17.36 187.27 197.1 170 197.1 172.42 17.36 189.7 17.36 187.27"/><polygon class="cls-95" points="17.36 184.84 197.1 167.57 197.1 170 17.36 187.27 17.36 184.84"/><polygon class="cls-109" points="17.36 182.42 197.1 165.14 197.1 167.57 17.36 184.84 17.36 182.42"/><polygon class="cls-63" points="17.36 179.99 197.1 162.71 197.1 165.14 17.36 182.42 17.36 179.99"/><polygon class="cls-38" points="17.36 177.56 197.1 160.28 197.1 162.71 17.36 179.99 17.36 177.56"/><polygon class="cls-37" points="17.36 175.13 197.1 157.86 197.1 160.28 17.36 177.56 17.36 175.13"/><polygon class="cls-36" points="17.36 172.7 197.1 155.43 197.1 157.86 17.36 175.13 17.36 172.7"/><polygon class="cls-35" points="17.36 170.28 197.1 153 197.1 155.43 17.36 172.7 17.36 170.28"/><polygon class="cls-34" points="17.36 167.85 197.1 150.57 197.1 153 17.36 170.28 17.36 167.85"/><polygon class="cls-33" points="17.36 165.42 197.1 148.14 197.1 150.57 17.36 167.85 17.36 165.42"/><polygon class="cls-108" points="17.36 162.99 197.1 145.72 197.1 148.14 17.36 165.42 17.36 162.99"/><polygon class="cls-107" points="17.36 160.56 197.1 143.29 197.1 145.72 17.36 162.99 17.36 160.56"/><polygon class="cls-106" points="17.36 158.14 196.87 140.88 197.1 143.27 197.1 143.29 17.36 160.56 17.36 158.14"/><polygon class="cls-105" points="17.36 155.71 196.64 138.48 196.87 140.88 17.36 158.14 17.36 155.71"/><polygon class="cls-52" points="17.36 153.28 196.41 136.07 196.64 138.48 17.36 155.71 17.36 153.28"/><polygon class="cls-53" points="17.36 150.85 196.18 133.66 196.41 136.07 17.36 153.28 17.36 150.85"/><polygon class="cls-87" points="17.36 148.42 195.95 131.26 196.18 133.66 17.36 150.85 17.36 148.42"/><polygon class="cls-84" points="17.36 146 195.72 128.85 195.95 131.26 17.36 148.42 17.36 146"/><polygon class="cls-80" points="17.36 143.57 195.49 126.45 195.72 128.85 17.36 146 17.36 143.57"/><polygon class="cls-81" points="17.36 141.14 195.26 124.04 195.49 126.45 17.36 143.57 17.36 141.14"/><polygon class="cls-79" points="17.36 138.71 195.02 121.64 195.26 124.04 17.36 141.14 17.36 138.71"/><polygon class="cls-83" points="17.36 136.28 194.79 119.23 195.02 121.64 17.36 138.71 17.36 136.28"/><polygon class="cls-86" points="17.36 133.86 194.56 116.82 194.79 119.23 17.36 136.28 17.36 133.86"/><polygon class="cls-85" points="17.36 131.43 194.33 114.42 194.56 116.82 17.36 133.86 17.36 131.43"/><polygon class="cls-82" points="17.36 129 194.1 112.01 194.33 114.42 17.36 131.43 17.36 129"/><polygon class="cls-60" points="17.36 126.57 193.87 109.61 194.1 112.01 17.36 129 17.36 126.57"/><polygon class="cls-66" points="17.36 124.14 193.64 107.2 193.87 109.61 17.36 126.57 17.36 124.14"/><polygon class="cls-64" points="17.36 121.72 193.41 104.8 193.64 107.2 17.36 124.14 17.36 121.72"/><polygon class="cls-65" points="17.36 119.29 190.47 102.65 193.2 102.65 193.41 104.8 17.36 121.72 17.36 119.29"/><polygon class="cls-67" points="17.36 116.86 165.21 102.65 190.47 102.65 17.36 119.29 17.36 116.86"/><polygon class="cls-61" points="17.36 114.43 139.94 102.65 165.21 102.65 17.36 116.86 17.36 114.43"/><polygon class="cls-61" points="139.94 102.65 17.36 114.43 17.36 102.65 139.94 102.65"/></g><path class="cls-250" d="m62,322.72c-.39,1.02-.72,2.07-1.12,3.09.73-1.86,1.05-2.77,1.12-3.09Z"/><path class="cls-250" d="m61.8,168.29c-1.27-3.02-1.04-2.32-.33-.42,1.03,2.28,1.78,3.87.33.42Z"/><path class="cls-250" d="m75.55,220.53c.71,3.18-.34-6.94,0,0h0Z"/><path class="cls-250" d="m34.61,121.49c.18.25.35.5.53.75,4.25,4.75-5.8-8.1-.53-.75Z"/><path class="cls-250" d="m75.74,269.79c-.13.85-.3,1.7-.44,2.55-.26,2.13-.35,2.51.44-2.55Z"/><path class="cls-250" d="m.52,54.07c1.54-13.32,7.34-26.31,16.84-36.71C7.69,27.94,1.97,40.86.52,54.07Z"/><path class="cls-250" d="m102.65,17.36C89.85,4.29,70.58-1.59,52.38.37c18.09-1.84,37.21,4.21,50.27,16.99Z"/><path class="cls-250" d="m17.36,474.42c-10.05-9.19-15.58-21.84-17-35.05,1.33,13.13,6.8,25.72,17,35.05Z"/><path class="cls-365" d="m17.36,389.13c-12.78,13.05-18.83,32.16-17,50.24,1.42,13.21,6.95,25.86,17,35.05,10.4,9.5,23.39,15.3,36.71,16.84,17.21,1.89,34.91-3.46,48.58-16.84,48.2-49.23,77.58-110.12,88.31-173.6-63.47,10.73-124.37,40.11-173.6,88.31Z"/><path class="cls-250" d="m437.71.52c-17.33-2.01-35.2,3.18-48.58,16.84,13.67-13.38,31.37-18.74,48.58-16.84Z"/><path class="cls-250" d="m491.25,437.76c-1.56,13.29-7.34,26.27-16.83,36.65,9.65-10.56,15.37-23.46,16.83-36.65Z"/><path class="cls-250" d="m474.42,17.36c10.05,9.19,15.58,21.84,17,35.05-1.33-13.13-6.8-25.72-17-35.05Z"/><g class="cls-3"><polygon class="cls-371" points="474.42 104.06 294.68 107.11 294.68 102.65 474.42 102.65 474.42 104.06"/><polygon class="cls-371" points="474.42 107.55 294.68 110.59 294.68 107.11 474.42 104.06 474.42 107.55"/><polygon class="cls-367" points="474.42 111.03 294.68 114.07 294.68 110.59 474.42 107.55 474.42 111.03"/><polygon class="cls-364" points="474.42 114.51 294.68 117.55 294.68 114.07 474.42 111.03 474.42 114.51"/><polygon class="cls-357" points="474.42 117.99 294.68 121.03 294.68 117.55 474.42 114.51 474.42 117.99"/><polygon class="cls-340" points="474.42 121.47 294.68 124.51 294.68 121.03 474.42 117.99 474.42 121.47"/><polygon class="cls-341" points="474.42 124.95 294.68 127.99 294.68 124.51 474.42 121.47 474.42 124.95"/><polygon class="cls-313" points="474.42 128.43 294.68 131.47 294.68 127.99 474.42 124.95 474.42 128.43"/><polygon class="cls-314" points="474.42 131.91 294.68 134.95 294.68 131.47 474.42 128.43 474.42 131.91"/><polygon class="cls-344" points="474.42 135.39 294.68 138.43 294.68 134.95 474.42 131.91 474.42 135.39"/><polygon class="cls-343" points="474.42 138.87 294.68 141.91 294.68 138.43 474.42 135.39 474.42 138.87"/><polygon class="cls-316" points="474.42 142.35 294.68 145.39 294.68 141.91 474.42 138.87 474.42 142.35"/><polygon class="cls-360" points="474.42 145.83 294.68 148.87 294.68 145.39 474.42 142.35 474.42 145.83"/><polygon class="cls-358" points="474.42 149.31 294.68 152.36 294.68 148.87 474.42 145.83 474.42 149.31"/><polygon class="cls-289" points="474.42 152.8 294.68 155.84 294.68 152.36 474.42 149.31 474.42 152.8"/><polygon class="cls-349" points="474.42 156.28 294.68 159.32 294.68 155.84 474.42 152.8 474.42 156.28"/><polygon class="cls-350" points="474.42 159.76 294.68 162.8 294.68 159.32 474.42 156.28 474.42 159.76"/><polygon class="cls-266" points="474.42 163.24 294.68 166.28 294.68 162.8 474.42 159.76 474.42 163.24"/><polygon class="cls-265" points="474.42 166.72 294.68 169.76 294.68 166.28 474.42 163.24 474.42 166.72"/><polygon class="cls-264" points="474.42 170.2 294.68 173.24 294.68 169.76 474.42 166.72 474.42 170.2"/><polygon class="cls-260" points="474.42 173.68 294.68 176.72 294.68 173.24 474.42 170.2 474.42 173.68"/><polygon class="cls-259" points="474.42 177.16 294.68 180.2 294.68 176.72 474.42 173.68 474.42 177.16"/><polygon class="cls-257" points="474.42 180.64 294.68 183.68 294.68 180.2 474.42 177.16 474.42 180.64"/><polygon class="cls-258" points="474.42 184.12 294.68 187.16 294.68 183.68 474.42 180.64 474.42 184.12"/><polygon class="cls-256" points="474.42 187.6 294.68 190.64 294.68 187.16 474.42 184.12 474.42 187.6"/><polygon class="cls-270" points="474.42 191.08 294.68 194.12 294.68 190.64 474.42 187.6 474.42 191.08"/><polygon class="cls-269" points="474.42 194.56 294.68 197.61 294.68 194.12 474.42 191.08 474.42 194.56"/><polygon class="cls-267" points="474.42 198.05 294.68 201.09 294.68 197.61 474.42 194.56 474.42 198.05"/><polygon class="cls-268" points="474.42 201.53 294.68 204.57 294.68 201.09 474.42 198.05 474.42 201.53"/><polygon class="cls-271" points="474.42 205.01 294.68 208.05 294.68 204.57 474.42 201.53 474.42 205.01"/><polygon class="cls-322" points="474.42 208.49 294.68 211.53 294.68 208.05 474.42 205.01 474.42 208.49"/><polygon class="cls-339" points="474.42 211.97 294.68 215.01 294.68 211.53 474.42 208.49 474.42 211.97"/><polygon class="cls-330" points="474.42 215.45 294.68 218.49 294.68 215.01 474.42 211.97 474.42 215.45"/><polygon class="cls-329" points="474.42 218.93 294.68 221.97 294.68 218.49 474.42 215.45 474.42 218.93"/><polygon class="cls-318" points="474.42 222.41 294.68 225.45 294.68 221.97 474.42 218.93 474.42 222.41"/><polygon class="cls-324" points="474.42 225.89 294.68 228.93 294.68 225.45 474.42 222.41 474.42 225.89"/><polygon class="cls-336" points="474.42 229.37 294.68 232.41 294.68 228.93 474.42 225.89 474.42 229.37"/><polygon class="cls-332" points="474.42 232.85 294.68 235.89 294.68 232.41 474.42 229.37 474.42 232.85"/><polygon class="cls-331" points="474.42 236.33 294.68 239.37 294.68 235.89 474.42 232.85 474.42 236.33"/><polygon class="cls-263" points="474.42 239.81 294.68 242.86 294.68 239.37 474.42 236.33 474.42 239.81"/><polygon class="cls-261" points="474.42 243.3 294.68 246.34 294.68 242.86 474.42 239.81 474.42 243.3"/><polygon class="cls-262" points="474.42 246.78 294.68 249.82 294.68 246.34 474.42 243.3 474.42 246.78"/><polygon class="cls-319" points="474.42 250.26 294.68 253.3 294.68 249.82 474.42 246.78 474.42 250.26"/><polygon class="cls-334" points="474.42 253.74 294.68 256.78 294.68 253.3 474.42 250.26 474.42 253.74"/><polygon class="cls-333" points="474.42 257.22 294.68 260.26 294.68 256.78 474.42 253.74 474.42 257.22"/><polygon class="cls-172" points="474.42 260.7 294.68 263.74 294.68 260.26 474.42 257.22 474.42 260.7"/><polygon class="cls-173" points="474.42 264.18 294.68 267.22 294.68 263.74 474.42 260.7 474.42 264.18"/><polygon class="cls-174" points="474.42 267.66 294.68 270.7 294.68 267.22 474.42 264.18 474.42 267.66"/><polygon class="cls-325" points="474.42 271.14 294.68 274.18 294.68 270.7 474.42 267.66 474.42 271.14"/><polygon class="cls-326" points="474.42 274.62 294.68 277.66 294.68 274.18 474.42 271.14 474.42 274.62"/><polygon class="cls-175" points="474.42 278.1 294.68 281.14 294.68 277.66 474.42 274.62 474.42 278.1"/><polygon class="cls-176" points="474.42 281.58 294.68 284.62 294.68 281.14 474.42 278.1 474.42 281.58"/><polygon class="cls-323" points="474.42 285.06 294.68 288.11 294.68 284.62 474.42 281.58 474.42 285.06"/><polygon class="cls-320" points="474.42 288.55 294.68 291.59 294.68 288.11 474.42 285.06 474.42 288.55"/><polygon class="cls-321" points="474.42 292.03 294.68 295.07 294.68 291.59 474.42 288.55 474.42 292.03"/><polygon class="cls-311" points="474.42 295.51 294.68 298.55 294.68 295.07 474.42 292.03 474.42 295.51"/><polygon class="cls-310" points="474.42 298.99 294.68 302.03 294.68 298.55 474.42 295.51 474.42 298.99"/><polygon class="cls-317" points="474.42 302.47 294.68 305.51 294.68 302.03 474.42 298.99 474.42 302.47"/><polygon class="cls-308" points="474.42 305.95 294.68 308.99 294.68 305.51 474.42 302.47 474.42 305.95"/><polygon class="cls-307" points="474.42 309.43 294.68 312.47 294.68 308.99 474.42 305.95 474.42 309.43"/><polygon class="cls-306" points="474.42 312.91 294.68 315.95 294.68 312.47 474.42 309.43 474.42 312.91"/><polygon class="cls-305" points="474.42 316.39 294.68 319.43 294.68 315.95 474.42 312.91 474.42 316.39"/><polygon class="cls-315" points="474.42 319.87 294.68 322.91 294.68 319.43 474.42 316.39 474.42 319.87"/><polygon class="cls-303" points="474.42 323.35 294.68 326.39 294.68 322.91 474.42 319.87 474.42 323.35"/><polygon class="cls-302" points="474.42 326.83 294.68 329.87 294.68 326.39 474.42 323.35 474.42 326.83"/><polygon class="cls-369" points="474.42 330.31 294.68 333.36 294.68 329.87 474.42 326.83 474.42 330.31"/><polygon class="cls-328" points="474.42 333.8 294.68 336.84 294.68 333.36 474.42 330.31 474.42 333.8"/><polygon class="cls-327" points="474.42 337.28 294.68 340.32 294.68 336.84 474.42 333.8 474.42 337.28"/><polygon class="cls-247" points="474.42 340.76 294.68 343.8 294.68 340.32 474.42 337.28 474.42 340.76"/><polygon class="cls-248" points="474.42 344.24 294.68 347.28 294.68 343.8 474.42 340.76 474.42 344.24"/><polygon class="cls-249" points="474.42 347.72 294.68 350.76 294.68 347.28 474.42 344.24 474.42 347.72"/><polygon class="cls-255" points="474.42 351.2 294.68 354.24 294.68 350.76 474.42 347.72 474.42 351.2"/><polygon class="cls-254" points="474.42 354.68 294.68 357.72 294.68 354.24 474.42 351.2 474.42 354.68"/><polygon class="cls-252" points="474.42 358.16 294.68 361.2 294.68 357.72 474.42 354.68 474.42 358.16"/><polygon class="cls-251" points="474.42 361.64 294.68 364.68 294.68 361.2 474.42 358.16 474.42 361.64"/><polygon class="cls-253" points="474.42 365.12 294.68 368.16 294.68 364.68 474.42 361.64 474.42 365.12"/><polygon class="cls-253" points="294.68 368.16 474.42 365.12 474.42 389.13 294.68 389.13 294.68 368.16"/></g><path class="cls-250" d="m416.23,271.25c-.71-3.18.34,6.94,0,0h0Z"/><path class="cls-250" d="m455.72,123.42c.68-.81,1.39-1.59,2.07-2.39-.34.35-.97,1.07-2.07,2.39Z"/><path class="cls-250" d="m429.98,323.49c1.27,3.02,1.04,2.32.33.42-1.03-2.28-1.78-3.88-.33-.42Z"/><path class="cls-250" d="m389.13,474.42c12.79,13.06,32.05,18.95,50.25,17-18.08,1.84-37.19-4.21-50.25-17Z"/><path class="cls-250" d="m429.78,169.06c.39-1.02.72-2.07,1.12-3.09-.73,1.86-1.05,2.77-1.12,3.09Z"/><path class="cls-250" d="m416.04,221.99c.13-.85.3-1.7.44-2.56.26-2.13.35-2.5-.44,2.56Z"/><path class="cls-250" d="m457.17,370.29c-.18-.25-.35-.5-.53-.75-4.25-4.75,5.8,8.1.53.75Z"/><path class="cls-253" d="m389.13,474.42c13.05,12.78,32.16,18.83,50.25,17,13.21-1.42,25.85-6.95,35.04-17,9.49-10.38,15.28-23.36,16.83-36.65,1.91-17.23-3.44-34.95-16.83-48.64-49.23-48.2-110.12-77.58-173.6-88.31,10.73,63.47,40.11,124.37,88.31,173.6Z"/><path class="cls-250" d="m370.29,34.61c-.25.18-.51.35-.76.53-4.75,4.25,8.1-5.8.76-.53Z"/><path class="cls-250" d="m17.36,17.36C26.54,7.32,39.18,1.79,52.38.37c-13.12,1.34-25.7,6.8-35.02,16.99Z"/><path class="cls-250" d="m437.71.52c13.32,1.55,26.31,7.34,36.71,16.84-10.58-9.67-23.5-15.39-36.71-16.84Z"/><g class="cls-2"><polygon class="cls-58" points="107.55 17.36 114.1 197.1 102.65 197.1 102.65 17.36 107.55 17.36"/><polygon class="cls-58" points="110.39 17.36 116.94 197.1 114.1 197.1 107.55 17.36 110.39 17.36"/><polygon class="cls-59" points="113.23 17.36 119.78 197.1 116.94 197.1 110.39 17.36 113.23 17.36"/><polygon class="cls-104" points="116.07 17.36 122.62 197.1 119.78 197.1 113.23 17.36 116.07 17.36"/><polygon class="cls-103" points="118.91 17.36 125.45 197.1 122.62 197.1 116.07 17.36 118.91 17.36"/><polygon class="cls-62" points="121.74 17.36 128.29 197.1 125.45 197.1 118.91 17.36 121.74 17.36"/><polygon class="cls-114" points="124.58 17.36 131.13 197.1 128.29 197.1 121.74 17.36 124.58 17.36"/><polygon class="cls-241" points="127.42 17.36 133.97 197.1 131.13 197.1 124.58 17.36 127.42 17.36"/><polygon class="cls-242" points="130.26 17.36 136.81 197.1 133.97 197.1 127.42 17.36 130.26 17.36"/><polygon class="cls-237" points="133.1 17.36 139.65 197.1 136.81 197.1 130.26 17.36 133.1 17.36"/><polygon class="cls-228" points="135.94 17.36 142.49 197.1 139.65 197.1 133.1 17.36 135.94 17.36"/><polygon class="cls-227" points="138.78 17.36 145.33 197.1 142.49 197.1 135.94 17.36 138.78 17.36"/><polygon class="cls-222" points="141.62 17.36 148.17 197.1 145.33 197.1 138.78 17.36 141.62 17.36"/><polygon class="cls-223" points="144.46 17.36 151.01 197.1 148.17 197.1 141.62 17.36 144.46 17.36"/><polygon class="cls-233" points="147.3 17.36 153.85 197.1 151.01 197.1 144.46 17.36 147.3 17.36"/><polygon class="cls-221" points="150.14 17.36 156.68 197.1 153.85 197.1 147.3 17.36 150.14 17.36"/><polygon class="cls-235" points="152.97 17.36 159.52 197.1 156.68 197.1 150.14 17.36 152.97 17.36"/><polygon class="cls-236" points="155.81 17.36 162.36 197.1 159.52 197.1 152.97 17.36 155.81 17.36"/><polygon class="cls-201" points="158.65 17.36 165.2 197.1 162.36 197.1 155.81 17.36 158.65 17.36"/><polygon class="cls-213" points="161.49 17.36 168.04 197.1 165.2 197.1 158.65 17.36 161.49 17.36"/><polygon class="cls-244" points="164.33 17.36 170.88 197.1 168.04 197.1 161.49 17.36 164.33 17.36"/><polygon class="cls-232" points="167.17 17.36 173.72 197.1 170.88 197.1 164.33 17.36 167.17 17.36"/><polygon class="cls-231" points="170.01 17.36 176.56 197.1 173.72 197.1 167.17 17.36 170.01 17.36"/><polygon class="cls-234" points="172.85 17.36 179.4 197.1 176.56 197.1 170.01 17.36 172.85 17.36"/><polygon class="cls-225" points="175.69 17.36 182.24 197.1 179.4 197.1 172.85 17.36 175.69 17.36"/><polygon class="cls-226" points="178.53 17.36 185.08 197.1 182.24 197.1 175.69 17.36 178.53 17.36"/><polygon class="cls-220" points="181.37 17.36 187.91 197.1 185.08 197.1 178.53 17.36 181.37 17.36"/><polygon class="cls-185" points="184.2 17.36 190.75 197.1 187.91 197.1 181.37 17.36 184.2 17.36"/><polygon class="cls-183" points="187.04 17.36 193.59 197.1 190.75 197.1 184.2 17.36 187.04 17.36"/><polygon class="cls-184" points="189.88 17.36 196.43 197.1 193.59 197.1 187.04 17.36 189.88 17.36"/><polygon class="cls-182" points="192.72 17.36 199.27 197.1 196.43 197.1 189.88 17.36 192.72 17.36"/><polygon class="cls-216" points="195.56 17.36 202.11 197.1 199.27 197.1 192.72 17.36 195.56 17.36"/><polygon class="cls-224" points="198.4 17.36 204.95 197.1 202.11 197.1 195.56 17.36 198.4 17.36"/><polygon class="cls-218" points="201.24 17.36 207.79 197.1 204.95 197.1 198.4 17.36 201.24 17.36"/><polygon class="cls-219" points="204.08 17.36 210.63 197.1 207.79 197.1 201.24 17.36 204.08 17.36"/><polygon class="cls-243" points="206.92 17.36 213.47 197.1 210.63 197.1 204.08 17.36 206.92 17.36"/><polygon class="cls-240" points="209.76 17.36 216.3 197.1 213.47 197.1 206.92 17.36 209.76 17.36"/><polygon class="cls-230" points="212.59 17.36 219.14 197.1 216.3 197.1 209.76 17.36 212.59 17.36"/><polygon class="cls-215" points="215.43 17.36 221.98 197.1 219.14 197.1 212.59 17.36 215.43 17.36"/><polygon class="cls-229" points="218.27 17.36 224.82 197.1 221.98 197.1 215.43 17.36 218.27 17.36"/><polygon class="cls-217" points="221.11 17.36 227.66 197.1 224.82 197.1 218.27 17.36 221.11 17.36"/><polygon class="cls-163" points="223.95 17.36 230.5 197.1 227.66 197.1 221.11 17.36 223.95 17.36"/><polygon class="cls-168" points="226.79 17.36 233.34 197.1 230.5 197.1 223.95 17.36 226.79 17.36"/><polygon class="cls-212" points="229.63 17.36 236.18 197.1 233.34 197.1 226.79 17.36 229.63 17.36"/><polygon class="cls-210" points="232.47 17.36 239.02 197.1 236.18 197.1 229.63 17.36 232.47 17.36"/><polygon class="cls-214" points="235.31 17.36 241.86 197.1 239.02 197.1 232.47 17.36 235.31 17.36"/><polygon class="cls-209" points="238.15 17.36 244.7 197.1 241.86 197.1 235.31 17.36 238.15 17.36"/><polygon class="cls-205" points="240.99 17.36 247.53 197.1 244.7 197.1 238.15 17.36 240.99 17.36"/><polygon class="cls-206" points="243.82 17.36 250.37 197.1 247.53 197.1 240.99 17.36 243.82 17.36"/><polygon class="cls-196" points="246.66 17.36 253.21 197.1 250.37 197.1 243.82 17.36 246.66 17.36"/><polygon class="cls-171" points="249.5 17.36 256.05 197.1 253.21 197.1 246.66 17.36 249.5 17.36"/><polygon class="cls-161" points="252.34 17.36 258.89 197.1 256.05 197.1 249.5 17.36 252.34 17.36"/><polygon class="cls-155" points="255.18 17.36 261.73 197.1 258.89 197.1 252.34 17.36 255.18 17.36"/><polygon class="cls-153" points="258.02 17.36 264.57 197.1 261.73 197.1 255.18 17.36 258.02 17.36"/><polygon class="cls-167" points="260.86 17.36 267.41 197.1 264.57 197.1 258.02 17.36 260.86 17.36"/><polygon class="cls-157" points="263.7 17.36 270.25 197.1 267.41 197.1 260.86 17.36 263.7 17.36"/><polygon class="cls-151" points="266.54 17.36 273.09 197.1 270.25 197.1 263.7 17.36 266.54 17.36"/><polygon class="cls-164" points="269.38 17.36 275.92 197.1 273.09 197.1 266.54 17.36 269.38 17.36"/><polygon class="cls-192" points="272.21 17.36 278.76 197.1 275.92 197.1 269.38 17.36 272.21 17.36"/><polygon class="cls-187" points="275.05 17.36 281.6 197.1 278.76 197.1 272.21 17.36 275.05 17.36"/><polygon class="cls-200" points="277.89 17.36 284.44 197.1 281.6 197.1 275.05 17.36 277.89 17.36"/><polygon class="cls-198" points="280.73 17.36 287.28 197.1 284.44 197.1 277.89 17.36 280.73 17.36"/><polygon class="cls-204" points="283.57 17.36 290.12 197.1 287.28 197.1 280.73 17.36 283.57 17.36"/><polygon class="cls-199" points="286.41 17.36 292.96 197.1 290.12 197.1 283.57 17.36 286.41 17.36"/><polygon class="cls-239" points="289.25 17.36 295.8 197.1 292.96 197.1 286.41 17.36 289.25 17.36"/><polygon class="cls-238" points="292.09 17.36 298.64 197.1 295.8 197.1 289.25 17.36 292.09 17.36"/><polygon class="cls-188" points="294.93 17.36 301.48 197.1 298.64 197.1 292.09 17.36 294.93 17.36"/><polygon class="cls-211" points="297.77 17.36 304.32 197.1 301.48 197.1 294.93 17.36 297.77 17.36"/><polygon class="cls-195" points="300.61 17.36 307.15 197.1 304.32 197.1 297.77 17.36 300.61 17.36"/><polygon class="cls-191" points="303.44 17.36 309.99 197.1 307.15 197.1 300.61 17.36 303.44 17.36"/><polygon class="cls-246" points="306.28 17.36 312.83 197.1 309.99 197.1 303.44 17.36 306.28 17.36"/><polygon class="cls-208" points="309.12 17.36 315.67 197.1 312.83 197.1 306.28 17.36 309.12 17.36"/><polygon class="cls-193" points="311.96 17.36 318.51 197.1 315.67 197.1 309.12 17.36 311.96 17.36"/><polygon class="cls-203" points="314.8 17.36 321.35 197.1 318.51 197.1 311.96 17.36 314.8 17.36"/><polygon class="cls-190" points="317.64 17.36 324.19 197.1 321.35 197.1 314.8 17.36 317.64 17.36"/><polygon class="cls-284" points="320.48 17.36 327.03 197.1 324.19 197.1 317.64 17.36 320.48 17.36"/><polygon class="cls-282" points="323.32 17.36 329.87 197.1 327.03 197.1 320.48 17.36 323.32 17.36"/><polygon class="cls-143" points="326.16 17.36 332.71 197.1 329.87 197.1 323.32 17.36 326.16 17.36"/><polygon class="cls-142" points="329 17.36 335.55 197.1 332.71 197.1 326.16 17.36 329 17.36"/><polygon class="cls-144" points="331.84 17.36 338.38 197.1 335.55 197.1 329 17.36 331.84 17.36"/><polygon class="cls-158" points="334.67 17.36 341.22 197.1 338.38 197.1 331.84 17.36 334.67 17.36"/><polygon class="cls-159" points="337.51 17.36 344.06 197.1 341.22 197.1 334.67 17.36 337.51 17.36"/><polygon class="cls-276" points="340.35 17.36 346.9 197.1 344.06 197.1 337.51 17.36 340.35 17.36"/><polygon class="cls-277" points="343.19 17.36 349.74 197.1 346.9 197.1 340.35 17.36 343.19 17.36"/><polygon class="cls-295" points="346.03 17.36 352.58 197.1 349.74 197.1 343.19 17.36 346.03 17.36"/><polygon class="cls-135" points="348.87 17.36 355.42 197.1 352.58 197.1 346.03 17.36 348.87 17.36"/><polygon class="cls-131" points="351.71 17.36 358.26 197.1 355.42 197.1 348.87 17.36 351.71 17.36"/><polygon class="cls-136" points="354.55 17.36 361.1 197.1 358.26 197.1 351.71 17.36 354.55 17.36"/><polygon class="cls-133" points="357.39 17.36 363.94 197.1 361.1 197.1 354.55 17.36 357.39 17.36"/><polygon class="cls-286" points="360.23 17.36 366.77 197.1 363.94 197.1 357.39 17.36 360.23 17.36"/><polygon class="cls-274" points="363.06 17.36 369.61 197.1 366.77 197.1 360.23 17.36 363.06 17.36"/><polygon class="cls-150" points="365.9 17.36 372.45 197.1 369.61 197.1 363.06 17.36 365.9 17.36"/><polygon class="cls-180" points="368.74 17.36 375.29 197.1 372.45 197.1 365.9 17.36 368.74 17.36"/><polygon class="cls-180" points="375.29 197.1 368.74 17.36 389.13 17.36 389.13 197.1 375.29 197.1"/></g><path class="cls-250" d="m123.42,36.06c-.81-.68-1.59-1.39-2.39-2.07.35.34,1.07.97,2.39,2.07Z"/><path class="cls-250" d="m.52,54.07c-2.01,17.33,3.18,35.2,16.84,48.58C3.98,88.98-1.37,71.28.52,54.07Z"/><path class="cls-250" d="m323.49,61.8c3.02-1.27,2.32-1.04.42-.33-2.28,1.04-3.87,1.78-.42.33Z"/><path class="cls-250" d="m474.42,102.65c13.06-12.79,18.95-32.05,17-50.24,1.84,18.08-4.22,37.19-17,50.24Z"/><path class="cls-250" d="m271.24,75.55c-3.18.71,6.94-.34,0,0h0Z"/><path class="cls-250" d="m169.06,62c-1.02-.39-2.07-.72-3.09-1.12,1.86.73,2.77,1.05,3.09,1.12Z"/><path class="cls-250" d="m221.99,75.74c-.85-.13-1.7-.3-2.56-.44-2.13-.26-2.5-.35,2.56.44Z"/><path class="cls-61" d="m102.65,17.36C89.59,4.58,70.47-1.48,52.38.37c-13.2,1.42-25.84,6.95-35.02,16.99C7.86,27.76,2.07,40.76.52,54.07c-1.89,17.21,3.46,34.91,16.84,48.58,49.23,48.2,110.12,77.58,173.6,88.31-10.73-63.47-40.11-124.37-88.31-173.6Z"/><path class="cls-180" d="m491.41,52.41c-1.42-13.21-6.95-25.86-17-35.05-10.4-9.5-23.39-15.3-36.71-16.84-17.21-1.89-34.91,3.46-48.58,16.84-48.2,49.23-77.58,110.12-88.31,173.6,63.47-10.73,124.37-40.11,173.6-88.31,12.78-13.05,18.83-32.16,17-50.24Z"/></svg>